<?xml version="1.0" encoding="UTF-8"?>
<svg xmlns="http://www.w3.org/2000/svg" xmlns:xlink="http://www.w3.org/1999/xlink" version="1.1" width="180px" height="180px" viewBox="0 0 180 180"><defs><rect id="r0" width="4" height="4" fill="#000000"/></defs><rect x="0" y="0" width="180" height="180" fill="#fefefe"/><use x="24" y="24" xlink:href="#r0"/><use x="28" y="24" xlink:href="#r0"/><use x="32" y="24" xlink:href="#r0"/><use x="36" y="24" xlink:href="#r0"/><use x="40" y="24" xlink:href="#r0"/><use x="44" y="24" xlink:href="#r0"/><use x="48" y="24" xlink:href="#r0"/><use x="60" y="24" xlink:href="#r0"/><use x="80" y="24" xlink:href="#r0"/><use x="100" y="24" xlink:href="#r0"/><use x="116" y="24" xlink:href="#r0"/><use x="128" y="24" xlink:href="#r0"/><use x="132" y="24" xlink:href="#r0"/><use x="136" y="24" xlink:href="#r0"/><use x="140" y="24" xlink:href="#r0"/><use x="144" y="24" xlink:href="#r0"/><use x="148" y="24" xlink:href="#r0"/><use x="152" y="24" xlink:href="#r0"/><use x="24" y="28" xlink:href="#r0"/><use x="48" y="28" xlink:href="#r0"/><use x="56" y="28" xlink:href="#r0"/><use x="60" y="28" xlink:href="#r0"/><use x="68" y="28" xlink:href="#r0"/><use x="72" y="28" xlink:href="#r0"/><use x="76" y="28" xlink:href="#r0"/><use x="84" y="28" xlink:href="#r0"/><use x="96" y="28" xlink:href="#r0"/><use x="104" y="28" xlink:href="#r0"/><use x="112" y="28" xlink:href="#r0"/><use x="128" y="28" xlink:href="#r0"/><use x="152" y="28" xlink:href="#r0"/><use x="24" y="32" xlink:href="#r0"/><use x="32" y="32" xlink:href="#r0"/><use x="36" y="32" xlink:href="#r0"/><use x="40" y="32" xlink:href="#r0"/><use x="48" y="32" xlink:href="#r0"/><use x="60" y="32" xlink:href="#r0"/><use x="64" y="32" xlink:href="#r0"/><use x="68" y="32" xlink:href="#r0"/><use x="80" y="32" xlink:href="#r0"/><use x="84" y="32" xlink:href="#r0"/><use x="88" y="32" xlink:href="#r0"/><use x="96" y="32" xlink:href="#r0"/><use x="108" y="32" xlink:href="#r0"/><use x="128" y="32" xlink:href="#r0"/><use x="136" y="32" xlink:href="#r0"/><use x="140" y="32" xlink:href="#r0"/><use x="144" y="32" xlink:href="#r0"/><use x="152" y="32" xlink:href="#r0"/><use x="24" y="36" xlink:href="#r0"/><use x="32" y="36" xlink:href="#r0"/><use x="36" y="36" xlink:href="#r0"/><use x="40" y="36" xlink:href="#r0"/><use x="48" y="36" xlink:href="#r0"/><use x="56" y="36" xlink:href="#r0"/><use x="60" y="36" xlink:href="#r0"/><use x="68" y="36" xlink:href="#r0"/><use x="76" y="36" xlink:href="#r0"/><use x="84" y="36" xlink:href="#r0"/><use x="88" y="36" xlink:href="#r0"/><use x="92" y="36" xlink:href="#r0"/><use x="96" y="36" xlink:href="#r0"/><use x="112" y="36" xlink:href="#r0"/><use x="120" y="36" xlink:href="#r0"/><use x="128" y="36" xlink:href="#r0"/><use x="136" y="36" xlink:href="#r0"/><use x="140" y="36" xlink:href="#r0"/><use x="144" y="36" xlink:href="#r0"/><use x="152" y="36" xlink:href="#r0"/><use x="24" y="40" xlink:href="#r0"/><use x="32" y="40" xlink:href="#r0"/><use x="36" y="40" xlink:href="#r0"/><use x="40" y="40" xlink:href="#r0"/><use x="48" y="40" xlink:href="#r0"/><use x="64" y="40" xlink:href="#r0"/><use x="72" y="40" xlink:href="#r0"/><use x="80" y="40" xlink:href="#r0"/><use x="100" y="40" xlink:href="#r0"/><use x="104" y="40" xlink:href="#r0"/><use x="108" y="40" xlink:href="#r0"/><use x="116" y="40" xlink:href="#r0"/><use x="128" y="40" xlink:href="#r0"/><use x="136" y="40" xlink:href="#r0"/><use x="140" y="40" xlink:href="#r0"/><use x="144" y="40" xlink:href="#r0"/><use x="152" y="40" xlink:href="#r0"/><use x="24" y="44" xlink:href="#r0"/><use x="48" y="44" xlink:href="#r0"/><use x="56" y="44" xlink:href="#r0"/><use x="64" y="44" xlink:href="#r0"/><use x="76" y="44" xlink:href="#r0"/><use x="80" y="44" xlink:href="#r0"/><use x="84" y="44" xlink:href="#r0"/><use x="88" y="44" xlink:href="#r0"/><use x="92" y="44" xlink:href="#r0"/><use x="104" y="44" xlink:href="#r0"/><use x="108" y="44" xlink:href="#r0"/><use x="112" y="44" xlink:href="#r0"/><use x="120" y="44" xlink:href="#r0"/><use x="128" y="44" xlink:href="#r0"/><use x="152" y="44" xlink:href="#r0"/><use x="24" y="48" xlink:href="#r0"/><use x="28" y="48" xlink:href="#r0"/><use x="32" y="48" xlink:href="#r0"/><use x="36" y="48" xlink:href="#r0"/><use x="40" y="48" xlink:href="#r0"/><use x="44" y="48" xlink:href="#r0"/><use x="48" y="48" xlink:href="#r0"/><use x="56" y="48" xlink:href="#r0"/><use x="64" y="48" xlink:href="#r0"/><use x="72" y="48" xlink:href="#r0"/><use x="80" y="48" xlink:href="#r0"/><use x="88" y="48" xlink:href="#r0"/><use x="96" y="48" xlink:href="#r0"/><use x="104" y="48" xlink:href="#r0"/><use x="112" y="48" xlink:href="#r0"/><use x="120" y="48" xlink:href="#r0"/><use x="128" y="48" xlink:href="#r0"/><use x="132" y="48" xlink:href="#r0"/><use x="136" y="48" xlink:href="#r0"/><use x="140" y="48" xlink:href="#r0"/><use x="144" y="48" xlink:href="#r0"/><use x="148" y="48" xlink:href="#r0"/><use x="152" y="48" xlink:href="#r0"/><use x="72" y="52" xlink:href="#r0"/><use x="84" y="52" xlink:href="#r0"/><use x="88" y="52" xlink:href="#r0"/><use x="100" y="52" xlink:href="#r0"/><use x="108" y="52" xlink:href="#r0"/><use x="120" y="52" xlink:href="#r0"/><use x="24" y="56" xlink:href="#r0"/><use x="28" y="56" xlink:href="#r0"/><use x="32" y="56" xlink:href="#r0"/><use x="36" y="56" xlink:href="#r0"/><use x="40" y="56" xlink:href="#r0"/><use x="48" y="56" xlink:href="#r0"/><use x="52" y="56" xlink:href="#r0"/><use x="56" y="56" xlink:href="#r0"/><use x="60" y="56" xlink:href="#r0"/><use x="64" y="56" xlink:href="#r0"/><use x="72" y="56" xlink:href="#r0"/><use x="76" y="56" xlink:href="#r0"/><use x="84" y="56" xlink:href="#r0"/><use x="92" y="56" xlink:href="#r0"/><use x="96" y="56" xlink:href="#r0"/><use x="104" y="56" xlink:href="#r0"/><use x="112" y="56" xlink:href="#r0"/><use x="116" y="56" xlink:href="#r0"/><use x="124" y="56" xlink:href="#r0"/><use x="132" y="56" xlink:href="#r0"/><use x="140" y="56" xlink:href="#r0"/><use x="148" y="56" xlink:href="#r0"/><use x="32" y="60" xlink:href="#r0"/><use x="60" y="60" xlink:href="#r0"/><use x="80" y="60" xlink:href="#r0"/><use x="88" y="60" xlink:href="#r0"/><use x="92" y="60" xlink:href="#r0"/><use x="100" y="60" xlink:href="#r0"/><use x="116" y="60" xlink:href="#r0"/><use x="124" y="60" xlink:href="#r0"/><use x="128" y="60" xlink:href="#r0"/><use x="144" y="60" xlink:href="#r0"/><use x="148" y="60" xlink:href="#r0"/><use x="152" y="60" xlink:href="#r0"/><use x="24" y="64" xlink:href="#r0"/><use x="32" y="64" xlink:href="#r0"/><use x="36" y="64" xlink:href="#r0"/><use x="40" y="64" xlink:href="#r0"/><use x="44" y="64" xlink:href="#r0"/><use x="48" y="64" xlink:href="#r0"/><use x="56" y="64" xlink:href="#r0"/><use x="60" y="64" xlink:href="#r0"/><use x="68" y="64" xlink:href="#r0"/><use x="72" y="64" xlink:href="#r0"/><use x="84" y="64" xlink:href="#r0"/><use x="88" y="64" xlink:href="#r0"/><use x="96" y="64" xlink:href="#r0"/><use x="108" y="64" xlink:href="#r0"/><use x="120" y="64" xlink:href="#r0"/><use x="124" y="64" xlink:href="#r0"/><use x="140" y="64" xlink:href="#r0"/><use x="148" y="64" xlink:href="#r0"/><use x="24" y="68" xlink:href="#r0"/><use x="32" y="68" xlink:href="#r0"/><use x="36" y="68" xlink:href="#r0"/><use x="40" y="68" xlink:href="#r0"/><use x="56" y="68" xlink:href="#r0"/><use x="60" y="68" xlink:href="#r0"/><use x="64" y="68" xlink:href="#r0"/><use x="68" y="68" xlink:href="#r0"/><use x="80" y="68" xlink:href="#r0"/><use x="84" y="68" xlink:href="#r0"/><use x="96" y="68" xlink:href="#r0"/><use x="100" y="68" xlink:href="#r0"/><use x="108" y="68" xlink:href="#r0"/><use x="112" y="68" xlink:href="#r0"/><use x="116" y="68" xlink:href="#r0"/><use x="144" y="68" xlink:href="#r0"/><use x="24" y="72" xlink:href="#r0"/><use x="32" y="72" xlink:href="#r0"/><use x="36" y="72" xlink:href="#r0"/><use x="48" y="72" xlink:href="#r0"/><use x="56" y="72" xlink:href="#r0"/><use x="60" y="72" xlink:href="#r0"/><use x="68" y="72" xlink:href="#r0"/><use x="84" y="72" xlink:href="#r0"/><use x="92" y="72" xlink:href="#r0"/><use x="104" y="72" xlink:href="#r0"/><use x="112" y="72" xlink:href="#r0"/><use x="116" y="72" xlink:href="#r0"/><use x="120" y="72" xlink:href="#r0"/><use x="136" y="72" xlink:href="#r0"/><use x="140" y="72" xlink:href="#r0"/><use x="28" y="76" xlink:href="#r0"/><use x="32" y="76" xlink:href="#r0"/><use x="36" y="76" xlink:href="#r0"/><use x="40" y="76" xlink:href="#r0"/><use x="56" y="76" xlink:href="#r0"/><use x="60" y="76" xlink:href="#r0"/><use x="64" y="76" xlink:href="#r0"/><use x="72" y="76" xlink:href="#r0"/><use x="76" y="76" xlink:href="#r0"/><use x="88" y="76" xlink:href="#r0"/><use x="96" y="76" xlink:href="#r0"/><use x="100" y="76" xlink:href="#r0"/><use x="108" y="76" xlink:href="#r0"/><use x="112" y="76" xlink:href="#r0"/><use x="116" y="76" xlink:href="#r0"/><use x="120" y="76" xlink:href="#r0"/><use x="128" y="76" xlink:href="#r0"/><use x="148" y="76" xlink:href="#r0"/><use x="152" y="76" xlink:href="#r0"/><use x="24" y="80" xlink:href="#r0"/><use x="28" y="80" xlink:href="#r0"/><use x="32" y="80" xlink:href="#r0"/><use x="40" y="80" xlink:href="#r0"/><use x="44" y="80" xlink:href="#r0"/><use x="48" y="80" xlink:href="#r0"/><use x="52" y="80" xlink:href="#r0"/><use x="56" y="80" xlink:href="#r0"/><use x="60" y="80" xlink:href="#r0"/><use x="64" y="80" xlink:href="#r0"/><use x="76" y="80" xlink:href="#r0"/><use x="80" y="80" xlink:href="#r0"/><use x="84" y="80" xlink:href="#r0"/><use x="88" y="80" xlink:href="#r0"/><use x="104" y="80" xlink:href="#r0"/><use x="108" y="80" xlink:href="#r0"/><use x="112" y="80" xlink:href="#r0"/><use x="124" y="80" xlink:href="#r0"/><use x="128" y="80" xlink:href="#r0"/><use x="136" y="80" xlink:href="#r0"/><use x="148" y="80" xlink:href="#r0"/><use x="32" y="84" xlink:href="#r0"/><use x="40" y="84" xlink:href="#r0"/><use x="60" y="84" xlink:href="#r0"/><use x="64" y="84" xlink:href="#r0"/><use x="72" y="84" xlink:href="#r0"/><use x="76" y="84" xlink:href="#r0"/><use x="96" y="84" xlink:href="#r0"/><use x="104" y="84" xlink:href="#r0"/><use x="108" y="84" xlink:href="#r0"/><use x="116" y="84" xlink:href="#r0"/><use x="124" y="84" xlink:href="#r0"/><use x="136" y="84" xlink:href="#r0"/><use x="144" y="84" xlink:href="#r0"/><use x="24" y="88" xlink:href="#r0"/><use x="28" y="88" xlink:href="#r0"/><use x="32" y="88" xlink:href="#r0"/><use x="40" y="88" xlink:href="#r0"/><use x="48" y="88" xlink:href="#r0"/><use x="52" y="88" xlink:href="#r0"/><use x="64" y="88" xlink:href="#r0"/><use x="72" y="88" xlink:href="#r0"/><use x="80" y="88" xlink:href="#r0"/><use x="84" y="88" xlink:href="#r0"/><use x="88" y="88" xlink:href="#r0"/><use x="92" y="88" xlink:href="#r0"/><use x="96" y="88" xlink:href="#r0"/><use x="104" y="88" xlink:href="#r0"/><use x="120" y="88" xlink:href="#r0"/><use x="124" y="88" xlink:href="#r0"/><use x="132" y="88" xlink:href="#r0"/><use x="136" y="88" xlink:href="#r0"/><use x="148" y="88" xlink:href="#r0"/><use x="24" y="92" xlink:href="#r0"/><use x="28" y="92" xlink:href="#r0"/><use x="32" y="92" xlink:href="#r0"/><use x="36" y="92" xlink:href="#r0"/><use x="40" y="92" xlink:href="#r0"/><use x="44" y="92" xlink:href="#r0"/><use x="60" y="92" xlink:href="#r0"/><use x="100" y="92" xlink:href="#r0"/><use x="116" y="92" xlink:href="#r0"/><use x="124" y="92" xlink:href="#r0"/><use x="128" y="92" xlink:href="#r0"/><use x="140" y="92" xlink:href="#r0"/><use x="148" y="92" xlink:href="#r0"/><use x="152" y="92" xlink:href="#r0"/><use x="32" y="96" xlink:href="#r0"/><use x="36" y="96" xlink:href="#r0"/><use x="48" y="96" xlink:href="#r0"/><use x="52" y="96" xlink:href="#r0"/><use x="64" y="96" xlink:href="#r0"/><use x="68" y="96" xlink:href="#r0"/><use x="72" y="96" xlink:href="#r0"/><use x="84" y="96" xlink:href="#r0"/><use x="96" y="96" xlink:href="#r0"/><use x="112" y="96" xlink:href="#r0"/><use x="120" y="96" xlink:href="#r0"/><use x="136" y="96" xlink:href="#r0"/><use x="140" y="96" xlink:href="#r0"/><use x="148" y="96" xlink:href="#r0"/><use x="36" y="100" xlink:href="#r0"/><use x="40" y="100" xlink:href="#r0"/><use x="44" y="100" xlink:href="#r0"/><use x="52" y="100" xlink:href="#r0"/><use x="56" y="100" xlink:href="#r0"/><use x="68" y="100" xlink:href="#r0"/><use x="80" y="100" xlink:href="#r0"/><use x="96" y="100" xlink:href="#r0"/><use x="100" y="100" xlink:href="#r0"/><use x="104" y="100" xlink:href="#r0"/><use x="108" y="100" xlink:href="#r0"/><use x="116" y="100" xlink:href="#r0"/><use x="124" y="100" xlink:href="#r0"/><use x="128" y="100" xlink:href="#r0"/><use x="132" y="100" xlink:href="#r0"/><use x="136" y="100" xlink:href="#r0"/><use x="144" y="100" xlink:href="#r0"/><use x="44" y="104" xlink:href="#r0"/><use x="48" y="104" xlink:href="#r0"/><use x="52" y="104" xlink:href="#r0"/><use x="56" y="104" xlink:href="#r0"/><use x="60" y="104" xlink:href="#r0"/><use x="64" y="104" xlink:href="#r0"/><use x="68" y="104" xlink:href="#r0"/><use x="84" y="104" xlink:href="#r0"/><use x="92" y="104" xlink:href="#r0"/><use x="104" y="104" xlink:href="#r0"/><use x="112" y="104" xlink:href="#r0"/><use x="116" y="104" xlink:href="#r0"/><use x="120" y="104" xlink:href="#r0"/><use x="124" y="104" xlink:href="#r0"/><use x="132" y="104" xlink:href="#r0"/><use x="136" y="104" xlink:href="#r0"/><use x="148" y="104" xlink:href="#r0"/><use x="24" y="108" xlink:href="#r0"/><use x="28" y="108" xlink:href="#r0"/><use x="32" y="108" xlink:href="#r0"/><use x="36" y="108" xlink:href="#r0"/><use x="40" y="108" xlink:href="#r0"/><use x="44" y="108" xlink:href="#r0"/><use x="56" y="108" xlink:href="#r0"/><use x="60" y="108" xlink:href="#r0"/><use x="72" y="108" xlink:href="#r0"/><use x="76" y="108" xlink:href="#r0"/><use x="80" y="108" xlink:href="#r0"/><use x="88" y="108" xlink:href="#r0"/><use x="96" y="108" xlink:href="#r0"/><use x="100" y="108" xlink:href="#r0"/><use x="108" y="108" xlink:href="#r0"/><use x="116" y="108" xlink:href="#r0"/><use x="124" y="108" xlink:href="#r0"/><use x="128" y="108" xlink:href="#r0"/><use x="140" y="108" xlink:href="#r0"/><use x="148" y="108" xlink:href="#r0"/><use x="152" y="108" xlink:href="#r0"/><use x="24" y="112" xlink:href="#r0"/><use x="32" y="112" xlink:href="#r0"/><use x="36" y="112" xlink:href="#r0"/><use x="48" y="112" xlink:href="#r0"/><use x="60" y="112" xlink:href="#r0"/><use x="76" y="112" xlink:href="#r0"/><use x="80" y="112" xlink:href="#r0"/><use x="84" y="112" xlink:href="#r0"/><use x="88" y="112" xlink:href="#r0"/><use x="104" y="112" xlink:href="#r0"/><use x="124" y="112" xlink:href="#r0"/><use x="136" y="112" xlink:href="#r0"/><use x="140" y="112" xlink:href="#r0"/><use x="148" y="112" xlink:href="#r0"/><use x="24" y="116" xlink:href="#r0"/><use x="36" y="116" xlink:href="#r0"/><use x="44" y="116" xlink:href="#r0"/><use x="52" y="116" xlink:href="#r0"/><use x="72" y="116" xlink:href="#r0"/><use x="76" y="116" xlink:href="#r0"/><use x="84" y="116" xlink:href="#r0"/><use x="88" y="116" xlink:href="#r0"/><use x="96" y="116" xlink:href="#r0"/><use x="100" y="116" xlink:href="#r0"/><use x="104" y="116" xlink:href="#r0"/><use x="108" y="116" xlink:href="#r0"/><use x="112" y="116" xlink:href="#r0"/><use x="120" y="116" xlink:href="#r0"/><use x="132" y="116" xlink:href="#r0"/><use x="140" y="116" xlink:href="#r0"/><use x="144" y="116" xlink:href="#r0"/><use x="24" y="120" xlink:href="#r0"/><use x="32" y="120" xlink:href="#r0"/><use x="40" y="120" xlink:href="#r0"/><use x="48" y="120" xlink:href="#r0"/><use x="52" y="120" xlink:href="#r0"/><use x="60" y="120" xlink:href="#r0"/><use x="72" y="120" xlink:href="#r0"/><use x="80" y="120" xlink:href="#r0"/><use x="84" y="120" xlink:href="#r0"/><use x="88" y="120" xlink:href="#r0"/><use x="92" y="120" xlink:href="#r0"/><use x="96" y="120" xlink:href="#r0"/><use x="100" y="120" xlink:href="#r0"/><use x="112" y="120" xlink:href="#r0"/><use x="116" y="120" xlink:href="#r0"/><use x="120" y="120" xlink:href="#r0"/><use x="124" y="120" xlink:href="#r0"/><use x="128" y="120" xlink:href="#r0"/><use x="132" y="120" xlink:href="#r0"/><use x="136" y="120" xlink:href="#r0"/><use x="152" y="120" xlink:href="#r0"/><use x="56" y="124" xlink:href="#r0"/><use x="100" y="124" xlink:href="#r0"/><use x="120" y="124" xlink:href="#r0"/><use x="136" y="124" xlink:href="#r0"/><use x="144" y="124" xlink:href="#r0"/><use x="152" y="124" xlink:href="#r0"/><use x="24" y="128" xlink:href="#r0"/><use x="28" y="128" xlink:href="#r0"/><use x="32" y="128" xlink:href="#r0"/><use x="36" y="128" xlink:href="#r0"/><use x="40" y="128" xlink:href="#r0"/><use x="44" y="128" xlink:href="#r0"/><use x="48" y="128" xlink:href="#r0"/><use x="56" y="128" xlink:href="#r0"/><use x="68" y="128" xlink:href="#r0"/><use x="72" y="128" xlink:href="#r0"/><use x="84" y="128" xlink:href="#r0"/><use x="92" y="128" xlink:href="#r0"/><use x="112" y="128" xlink:href="#r0"/><use x="116" y="128" xlink:href="#r0"/><use x="120" y="128" xlink:href="#r0"/><use x="128" y="128" xlink:href="#r0"/><use x="136" y="128" xlink:href="#r0"/><use x="140" y="128" xlink:href="#r0"/><use x="148" y="128" xlink:href="#r0"/><use x="24" y="132" xlink:href="#r0"/><use x="48" y="132" xlink:href="#r0"/><use x="60" y="132" xlink:href="#r0"/><use x="68" y="132" xlink:href="#r0"/><use x="80" y="132" xlink:href="#r0"/><use x="100" y="132" xlink:href="#r0"/><use x="108" y="132" xlink:href="#r0"/><use x="112" y="132" xlink:href="#r0"/><use x="116" y="132" xlink:href="#r0"/><use x="120" y="132" xlink:href="#r0"/><use x="136" y="132" xlink:href="#r0"/><use x="140" y="132" xlink:href="#r0"/><use x="144" y="132" xlink:href="#r0"/><use x="152" y="132" xlink:href="#r0"/><use x="24" y="136" xlink:href="#r0"/><use x="32" y="136" xlink:href="#r0"/><use x="36" y="136" xlink:href="#r0"/><use x="40" y="136" xlink:href="#r0"/><use x="48" y="136" xlink:href="#r0"/><use x="56" y="136" xlink:href="#r0"/><use x="68" y="136" xlink:href="#r0"/><use x="84" y="136" xlink:href="#r0"/><use x="88" y="136" xlink:href="#r0"/><use x="92" y="136" xlink:href="#r0"/><use x="96" y="136" xlink:href="#r0"/><use x="104" y="136" xlink:href="#r0"/><use x="120" y="136" xlink:href="#r0"/><use x="124" y="136" xlink:href="#r0"/><use x="128" y="136" xlink:href="#r0"/><use x="132" y="136" xlink:href="#r0"/><use x="136" y="136" xlink:href="#r0"/><use x="148" y="136" xlink:href="#r0"/><use x="152" y="136" xlink:href="#r0"/><use x="24" y="140" xlink:href="#r0"/><use x="32" y="140" xlink:href="#r0"/><use x="36" y="140" xlink:href="#r0"/><use x="40" y="140" xlink:href="#r0"/><use x="48" y="140" xlink:href="#r0"/><use x="56" y="140" xlink:href="#r0"/><use x="60" y="140" xlink:href="#r0"/><use x="72" y="140" xlink:href="#r0"/><use x="76" y="140" xlink:href="#r0"/><use x="80" y="140" xlink:href="#r0"/><use x="100" y="140" xlink:href="#r0"/><use x="116" y="140" xlink:href="#r0"/><use x="124" y="140" xlink:href="#r0"/><use x="132" y="140" xlink:href="#r0"/><use x="136" y="140" xlink:href="#r0"/><use x="148" y="140" xlink:href="#r0"/><use x="152" y="140" xlink:href="#r0"/><use x="24" y="144" xlink:href="#r0"/><use x="32" y="144" xlink:href="#r0"/><use x="36" y="144" xlink:href="#r0"/><use x="40" y="144" xlink:href="#r0"/><use x="48" y="144" xlink:href="#r0"/><use x="56" y="144" xlink:href="#r0"/><use x="60" y="144" xlink:href="#r0"/><use x="64" y="144" xlink:href="#r0"/><use x="76" y="144" xlink:href="#r0"/><use x="80" y="144" xlink:href="#r0"/><use x="84" y="144" xlink:href="#r0"/><use x="88" y="144" xlink:href="#r0"/><use x="96" y="144" xlink:href="#r0"/><use x="112" y="144" xlink:href="#r0"/><use x="116" y="144" xlink:href="#r0"/><use x="120" y="144" xlink:href="#r0"/><use x="128" y="144" xlink:href="#r0"/><use x="144" y="144" xlink:href="#r0"/><use x="24" y="148" xlink:href="#r0"/><use x="48" y="148" xlink:href="#r0"/><use x="56" y="148" xlink:href="#r0"/><use x="72" y="148" xlink:href="#r0"/><use x="76" y="148" xlink:href="#r0"/><use x="100" y="148" xlink:href="#r0"/><use x="104" y="148" xlink:href="#r0"/><use x="108" y="148" xlink:href="#r0"/><use x="112" y="148" xlink:href="#r0"/><use x="140" y="148" xlink:href="#r0"/><use x="144" y="148" xlink:href="#r0"/><use x="24" y="152" xlink:href="#r0"/><use x="28" y="152" xlink:href="#r0"/><use x="32" y="152" xlink:href="#r0"/><use x="36" y="152" xlink:href="#r0"/><use x="40" y="152" xlink:href="#r0"/><use x="44" y="152" xlink:href="#r0"/><use x="48" y="152" xlink:href="#r0"/><use x="56" y="152" xlink:href="#r0"/><use x="60" y="152" xlink:href="#r0"/><use x="72" y="152" xlink:href="#r0"/><use x="80" y="152" xlink:href="#r0"/><use x="84" y="152" xlink:href="#r0"/><use x="88" y="152" xlink:href="#r0"/><use x="92" y="152" xlink:href="#r0"/><use x="96" y="152" xlink:href="#r0"/><use x="104" y="152" xlink:href="#r0"/><use x="112" y="152" xlink:href="#r0"/><use x="116" y="152" xlink:href="#r0"/><use x="120" y="152" xlink:href="#r0"/><use x="124" y="152" xlink:href="#r0"/><use x="148" y="152" xlink:href="#r0"/></svg>
