<svg width="32" height="32" viewBox="0 0 32 32" fill="none" xmlns="http://www.w3.org/2000/svg">
<path d="M20.7238 16.5926V9.48148C20.7238 8.17778 19.6267 7.11111 18.2857 7.11111H10.9714C9.63047 7.11111 8.53333 8.17778 8.53333 9.48148V11.8519H6.09523C4.75428 11.8519 3.65714 12.9185 3.65714 14.2222V26.0741C3.65714 27.3778 4.75428 28.4444 6.09523 28.4444H12.1905C12.8609 28.4444 13.4095 27.9111 13.4095 27.2593V23.7037H15.8476V27.2593C15.8476 27.9111 16.3962 28.4444 17.0667 28.4444H23.1619C24.5029 28.4444 25.6 27.3778 25.6 26.0741V18.963C25.6 17.6593 24.5029 16.5926 23.1619 16.5926H20.7238ZM8.53333 26.0741H6.09523V23.7037H8.53333V26.0741ZM8.53333 21.3333H6.09523V18.963H8.53333V21.3333ZM8.53333 16.5926H6.09523V14.2222H8.53333V16.5926ZM13.4095 21.3333H10.9714V18.963H13.4095V21.3333ZM13.4095 16.5926H10.9714V14.2222H13.4095V16.5926ZM13.4095 11.8519H10.9714V9.48148H13.4095V11.8519ZM18.2857 21.3333H15.8476V18.963H18.2857V21.3333ZM18.2857 16.5926H15.8476V14.2222H18.2857V16.5926ZM18.2857 11.8519H15.8476V9.48148H18.2857V11.8519ZM23.1619 26.0741H20.7238V23.7037H23.1619V26.0741ZM23.1619 21.3333H20.7238V18.963H23.1619V21.3333Z" fill="white"/>
<path d="M24.6857 1.18518C21.3212 1.18518 18.5905 3.84 18.5905 7.11111C18.5905 10.3822 21.3212 13.037 24.6857 13.037C28.0503 13.037 30.781 10.3822 30.781 7.11111C30.781 3.84 28.0503 1.18518 24.6857 1.18518ZM25.2404 10.7556C25.0514 10.9393 24.7223 10.8089 24.7223 10.5481V10.0741C24.7101 10.0741 24.6979 10.0741 24.6857 10.0741C23.9055 10.0741 23.1253 9.7837 22.528 9.20888C21.6564 8.36148 21.4248 7.12296 21.8332 6.06814C21.949 5.76592 22.3573 5.68888 22.589 5.92C22.7231 6.05037 22.7535 6.24 22.6926 6.40592C22.4122 7.14074 22.5707 7.99407 23.1802 8.58666C23.6069 9.00148 24.1676 9.19703 24.7284 9.18518V8.62814C24.7284 8.36148 25.0575 8.23111 25.2465 8.42074L26.2339 9.38074C26.3558 9.49925 26.3558 9.68296 26.2339 9.80148L25.2404 10.7556ZM26.7825 8.30814C26.6484 8.17777 26.6179 7.98814 26.6789 7.82222C26.9592 7.0874 26.8008 6.23407 26.1912 5.64148C25.7646 5.22666 25.2038 5.02518 24.6492 5.03703V5.59407C24.6492 5.86074 24.32 5.99111 24.1311 5.80148L23.1375 4.8474C23.0156 4.72888 23.0156 4.54518 23.1375 4.42666L24.125 3.46666C24.3139 3.28296 24.6431 3.41333 24.6431 3.67407V4.15407C25.4354 4.14222 26.2339 4.42074 26.8373 5.01333C27.709 5.86074 27.9406 7.09925 27.5322 8.15407C27.4164 8.46222 27.0141 8.53926 26.7825 8.30814Z" fill="#8BB3D2"/>
</svg>
