<svg width="32" height="32" viewBox="0 0 32 32" fill="none" xmlns="http://www.w3.org/2000/svg">
<path d="M22.6667 14.6667V6.66667C22.6667 5.2 21.4667 4 20 4H12C10.5333 4 9.33333 5.2 9.33333 6.66667V9.33333H6.66667C5.2 9.33333 4 10.5333 4 12V25.3333C4 26.8 5.2 28 6.66667 28H13.3333C14.0667 28 14.6667 27.4 14.6667 26.6667V22.6667H17.3333V26.6667C17.3333 27.4 17.9333 28 18.6667 28H25.3333C26.8 28 28 26.8 28 25.3333V17.3333C28 15.8667 26.8 14.6667 25.3333 14.6667H22.6667ZM9.33333 25.3333H6.66667V22.6667H9.33333V25.3333ZM9.33333 20H6.66667V17.3333H9.33333V20ZM9.33333 14.6667H6.66667V12H9.33333V14.6667ZM14.6667 20H12V17.3333H14.6667V20ZM14.6667 14.6667H12V12H14.6667V14.6667ZM14.6667 9.33333H12V6.66667H14.6667V9.33333ZM20 20H17.3333V17.3333H20V20ZM20 14.6667H17.3333V12H20V14.6667ZM20 9.33333H17.3333V6.66667H20V9.33333ZM25.3333 25.3333H22.6667V22.6667H25.3333V25.3333ZM25.3333 20H22.6667V17.3333H25.3333V20Z" fill="white"/>
</svg>
