<svg width="32" height="32" viewBox="0 0 32 32" fill="none" xmlns="http://www.w3.org/2000/svg">
<path d="M20.7238 22.5198L15.8476 17.7791V14.0102C17.4933 13.4294 18.6027 11.7702 18.2004 9.90944C17.8956 8.51092 16.7009 7.39685 15.2503 7.15981C12.9585 6.7924 10.9714 8.49907 10.9714 10.668C10.9714 12.2087 11.9954 13.5124 13.4095 14.0102V17.7791L8.53333 22.5198H4.87618C4.20571 22.5198 3.65714 23.0531 3.65714 23.705V27.2606C3.65714 27.9124 4.20571 28.4457 4.87618 28.4457H8.53333C9.2038 28.4457 9.75237 27.9124 9.75237 27.2606V24.8309L14.6286 19.8531L19.5048 24.8309V27.2606C19.5048 27.9124 20.0533 28.4457 20.7238 28.4457H24.3809C25.0514 28.4457 25.6 27.9124 25.6 27.2606V23.705C25.6 23.0531 25.0514 22.5198 24.3809 22.5198H20.7238Z" fill="white"/>
<path d="M24.6857 1.18518C21.3212 1.18518 18.5905 3.84 18.5905 7.11111C18.5905 10.3822 21.3212 13.037 24.6857 13.037C28.0503 13.037 30.781 10.3822 30.781 7.11111C30.781 3.84 28.0503 1.18518 24.6857 1.18518ZM24.6857 10.0741C24.3505 10.0741 24.0762 9.8074 24.0762 9.48148V7.11111C24.0762 6.78518 24.3505 6.51851 24.6857 6.51851C25.021 6.51851 25.2952 6.78518 25.2952 7.11111V9.48148C25.2952 9.8074 25.021 10.0741 24.6857 10.0741ZM25.2952 5.33333H24.0762V4.14814H25.2952V5.33333Z" fill="#8BB3D2"/>
</svg>
