<svg width="32" height="32" viewBox="0 0 32 32" fill="none" xmlns="http://www.w3.org/2000/svg">
<path d="M25.6 18.0385C25.6 11.5319 20.4069 7.11111 14.6286 7.11111C8.91125 7.11111 3.65716 11.437 3.65716 18.1096C2.92573 18.5126 2.43811 19.2711 2.43811 20.1482V22.5185C2.43811 23.8222 3.53525 24.8889 4.87621 24.8889C5.54668 24.8889 6.09525 24.3556 6.09525 23.7037V18.003C6.09525 13.4637 9.69144 9.49334 14.3604 9.36297C19.1878 9.22074 23.1619 12.9896 23.1619 17.6593V26.0741H14.6286C13.9581 26.0741 13.4095 26.6074 13.4095 27.2593C13.4095 27.9111 13.9581 28.4444 14.6286 28.4444H23.1619C24.5029 28.4444 25.6 27.3778 25.6 26.0741V24.6282C26.3193 24.2607 26.8191 23.5378 26.8191 22.6844V19.9585C26.8191 19.1289 26.3193 18.4059 25.6 18.0385Z" fill="white"/>
<path d="M10.9714 20.1482C11.6447 20.1482 12.1905 19.6175 12.1905 18.963C12.1905 18.3084 11.6447 17.7778 10.9714 17.7778C10.2982 17.7778 9.7524 18.3084 9.7524 18.963C9.7524 19.6175 10.2982 20.1482 10.9714 20.1482Z" fill="white"/>
<path d="M18.2857 20.1482C18.959 20.1482 19.5048 19.6175 19.5048 18.963C19.5048 18.3084 18.959 17.7778 18.2857 17.7778C17.6125 17.7778 17.0667 18.3084 17.0667 18.963C17.0667 19.6175 17.6125 20.1482 18.2857 20.1482Z" fill="white"/>
<path d="M21.9429 16.6282C21.3577 13.2504 18.3345 10.6667 14.6895 10.6667C10.9958 10.6667 7.02173 13.6415 7.33868 18.3111C10.3497 17.1141 12.6172 14.5067 13.2633 11.3304C14.8602 14.4474 18.1394 16.5926 21.9429 16.6282Z" fill="white"/>
<path d="M24.6857 1.18518C21.3212 1.18518 18.5905 3.84 18.5905 7.11111C18.5905 10.3822 21.3212 13.037 24.6857 13.037C28.0503 13.037 30.781 10.3822 30.781 7.11111C30.781 3.84 28.0503 1.18518 24.6857 1.18518ZM24.6857 10.0741C24.3505 10.0741 24.0762 9.8074 24.0762 9.48148V7.11111C24.0762 6.78518 24.3505 6.51851 24.6857 6.51851C25.021 6.51851 25.2952 6.78518 25.2952 7.11111V9.48148C25.2952 9.8074 25.021 10.0741 24.6857 10.0741ZM25.2952 5.33333H24.0762V4.14814H25.2952V5.33333Z" fill="#8BB3D2"/>
</svg>
