<svg width="32" height="32" viewBox="0 0 32 32" fill="none" xmlns="http://www.w3.org/2000/svg">
<path d="M13.3288 29.037H4.79543C3.44228 29.037 2.35733 27.9704 2.35733 26.6667L2.36952 10.0741C2.36952 8.77036 3.44228 7.7037 4.79543 7.7037H6.01447V6.51851C6.01447 5.86666 6.56304 5.33333 7.23352 5.33333C7.904 5.33333 8.45257 5.86666 8.45257 6.51851V7.7037H18.2049V6.51851C18.2049 5.86666 18.7535 5.33333 19.424 5.33333C20.0945 5.33333 20.643 5.86666 20.643 6.51851V7.7037H21.8621C23.203 7.7037 24.3002 8.77036 24.3002 10.0741V17.1852H21.8621V14.8148H4.79543V26.6667H13.3288V29.037ZM25.6777 23.0993L26.5432 22.2578C27.0187 21.7955 27.0187 21.0489 26.5432 20.5867L25.6777 19.7452C25.2023 19.283 24.4343 19.283 23.9589 19.7452L23.0933 20.5867L25.6777 23.0993ZM24.8122 23.9407L18.7048 29.8785C18.4853 30.0918 18.1684 30.2222 17.8514 30.2222H16.3764C16.035 30.2222 15.7669 29.9615 15.7669 29.6296V28.1955C15.7669 27.8755 15.9009 27.5793 16.1204 27.3541L22.2278 21.4163L24.8122 23.9407Z" fill="white"/>
<path d="M24.6857 1.18518C21.3212 1.18518 18.5905 3.84 18.5905 7.11111C18.5905 10.3822 21.3212 13.037 24.6857 13.037C28.0503 13.037 30.781 10.3822 30.781 7.11111C30.781 3.84 28.0503 1.18518 24.6857 1.18518ZM24.6857 10.0741C24.3505 10.0741 24.0762 9.8074 24.0762 9.48148V7.11111C24.0762 6.78518 24.3505 6.51851 24.6857 6.51851C25.021 6.51851 25.2952 6.78518 25.2952 7.11111V9.48148C25.2952 9.8074 25.021 10.0741 24.6857 10.0741ZM25.2952 5.33333H24.0762V4.14814H25.2952V5.33333Z" fill="#8BB3D2"/>
</svg>
