<svg width="32" height="32" viewBox="0 0 32 32" fill="none" xmlns="http://www.w3.org/2000/svg">
<path d="M14.6286 6.11703C9.50857 6.11703 4.87619 9.93333 4.87619 15.8356C4.87619 19.6044 7.86286 24.037 13.824 29.1452C14.2872 29.5363 14.9821 29.5363 15.4453 29.1452C21.3943 24.037 24.381 19.6044 24.381 15.8356C24.381 9.93333 19.7486 6.11703 14.6286 6.11703ZM14.6286 17.9689C13.2876 17.9689 12.1905 16.9022 12.1905 15.5985C12.1905 14.2948 13.2876 13.2281 14.6286 13.2281C15.9695 13.2281 17.0667 14.2948 17.0667 15.5985C17.0667 16.9022 15.9695 17.9689 14.6286 17.9689Z" fill="white"/>
<path d="M24.6857 1.18518C21.3212 1.18518 18.5905 3.84 18.5905 7.11111C18.5905 10.3822 21.3212 13.037 24.6857 13.037C28.0503 13.037 30.781 10.3822 30.781 7.11111C30.781 3.84 28.0503 1.18518 24.6857 1.18518ZM24.6857 10.0741C24.3505 10.0741 24.0762 9.8074 24.0762 9.48148V7.11111C24.0762 6.78518 24.3505 6.51851 24.6857 6.51851C25.021 6.51851 25.2952 6.78518 25.2952 7.11111V9.48148C25.2952 9.8074 25.021 10.0741 24.6857 10.0741ZM25.2952 5.33333H24.0762V4.14814H25.2952V5.33333Z" fill="#8BB3D2"/>
</svg>
