<svg width="28" height="22" viewBox="0 0 28 22" fill="none" xmlns="http://www.w3.org/2000/svg">
<path d="M27.28 7.97325L25.3733 1.30659C25.2133 0.733252 24.6933 0.333252 24.0933 0.333252H3.90667C3.30667 0.333252 2.78667 0.733252 2.62667 1.30659L0.720007 7.97325C0.480007 8.81325 1.12001 9.66658 2.00001 9.66658H4.93334L3.53334 20.1733C3.42667 20.9599 4.04001 21.6666 4.84001 21.6666C5.50667 21.6666 6.06667 21.1733 6.14667 20.5199L6.89334 14.9999H21.12L21.8533 20.5199C21.9467 21.1733 22.5067 21.6666 23.16 21.6666C23.96 21.6666 24.5733 20.9599 24.4667 20.1733L23.0667 9.66658H26C26.88 9.66658 27.52 8.81325 27.28 7.97325ZM7.24001 12.3333L7.60001 9.66658H20.4L20.76 12.3333H7.24001Z" fill="white"/>
</svg>
