<svg width="27" height="28" viewBox="0 0 27 28" fill="none" xmlns="http://www.w3.org/2000/svg">
<path d="M13.5 0.666748C6.13999 0.666748 0.166656 6.64008 0.166656 14.0001C0.166656 21.3601 6.13999 27.3334 13.5 27.3334C20.86 27.3334 26.8333 21.3601 26.8333 14.0001C26.8333 6.64008 20.86 0.666748 13.5 0.666748ZM18.3133 9.12008C19.74 9.12008 20.8867 10.2667 20.8867 11.6934C20.8867 13.1201 19.74 14.2667 18.3133 14.2667C16.8867 14.2667 15.74 13.1201 15.74 11.6934C15.7267 10.2667 16.8867 9.12008 18.3133 9.12008ZM10.3133 7.01342C12.0467 7.01342 13.46 8.42675 13.46 10.1601C13.46 11.8934 12.0467 13.3067 10.3133 13.3067C8.57999 13.3067 7.16666 11.8934 7.16666 10.1601C7.16666 8.41341 8.56666 7.01342 10.3133 7.01342ZM10.3133 19.1867V24.1867C7.11332 23.1867 4.57999 20.7201 3.45999 17.5734C4.85999 16.0801 8.35332 15.3201 10.3133 15.3201C11.02 15.3201 11.9133 15.4267 12.8467 15.6134C10.66 16.7734 10.3133 18.3067 10.3133 19.1867ZM13.5 24.6667C13.14 24.6667 12.7933 24.6534 12.4467 24.6134V19.1867C12.4467 17.2934 16.3667 16.3467 18.3133 16.3467C19.74 16.3467 22.2067 16.8667 23.4333 17.8801C21.8733 21.8401 18.02 24.6667 13.5 24.6667Z" fill="white"/>
</svg>
