<svg width="40" height="40" viewBox="0 0 40 40" fill="none" xmlns="http://www.w3.org/2000/svg">
<path fill-rule="evenodd" clip-rule="evenodd" d="M30.1779 8.76295C29.3717 8.35217 28.4846 8.17186 27.4222 8.08507C26.3809 7.99999 25.087 7.99999 23.4444 8L17.5731 8C15.914 8 14.3771 8 13.094 8.08388C11.8387 8.16593 10.6633 8.33432 9.82207 8.76295C8.50493 9.43407 7.43407 10.5049 6.76295 11.8221C6.35217 12.6283 6.17186 13.5154 6.08507 14.5778C5.99999 15.6191 5.99999 16.913 6 18.5556V21.4444C5.99999 23.087 5.99999 24.3809 6.08507 25.4222C6.17186 26.4846 6.35217 27.3717 6.76295 28.1779C7.43407 29.4951 8.50493 30.5659 9.82207 31.237C10.6633 31.6657 11.8387 31.8341 13.094 31.9161C14.3772 32 15.914 32 17.5731 32H23.4444C25.087 32 26.3809 32 27.4222 31.9149C28.4846 31.8281 29.3717 31.6478 30.1779 31.237C31.4951 30.5659 32.5659 29.4951 33.237 28.1779C33.6478 27.3717 33.8281 26.4846 33.9149 25.4222C34 24.3809 34 23.087 34 21.4444V18.5556C34 16.913 34 15.6191 33.9149 14.5778C33.8281 13.5154 33.6478 12.6283 33.237 11.8221C32.5659 10.5049 31.4951 9.43407 30.1779 8.76295ZM11.668 13.4453C11.9743 12.9858 12.5952 12.8616 13.0547 13.168L17.2265 15.9492C18.0512 16.499 18.6042 16.866 19.0617 17.104C19.4976 17.3307 19.7639 17.3944 20 17.3944C20.2361 17.3944 20.5024 17.3307 20.9383 17.104C21.3958 16.866 21.9488 16.499 22.7735 15.9492L26.9453 13.168C27.4048 12.8616 28.0257 12.9858 28.3321 13.4453C28.6384 13.9048 28.5142 14.5257 28.0547 14.8321L23.8386 17.6428C23.0697 18.1554 22.4266 18.5842 21.8613 18.8783C21.2634 19.1893 20.6722 19.3944 20 19.3944C19.3278 19.3944 18.7366 19.1893 18.1387 18.8783C17.5734 18.5842 16.9303 18.1554 16.1614 17.6428L11.9453 14.8321C11.4858 14.5257 11.3616 13.9048 11.668 13.4453Z" fill="black"/>
</svg>
