<svg width="42" height="38" viewBox="0 0 42 38" fill="none" xmlns="http://www.w3.org/2000/svg">
<path d="M41.3 8.4H31.9669L28.646 0.430664C28.5373 0.169873 28.2827 0 28 0H16.1C15.7135 0 15.4 0.313428 15.4 0.7V3.5C15.4 3.88657 15.7135 4.2 16.1 4.2H25.415L26.99 8.4H21.7C21.3135 8.4 21 8.71343 21 9.1V13.3C21 13.6866 21.3135 14 21.7 14H22.44L23.8 37.1413C23.8219 37.5115 24.1288 37.8007 24.5 37.8H38.5C38.8712 37.8007 39.1781 37.5115 39.2 37.1413L40.56 14H41.3C41.6866 14 42 13.6866 42 13.3V9.1C42 8.71343 41.6866 8.4 41.3 8.4ZM26.5559 3.25425C26.4534 2.98081 26.1919 2.79966 25.9 2.8H16.8V1.4H27.5331L30.45 8.4H28.485L26.5559 3.25425ZM38.2515 29.4H35.1918C36.4045 28.3411 37.1 26.8099 37.1 25.2C37.1 23.5901 36.4045 22.0589 35.1918 21H38.7458L38.2515 29.4ZM35.7 25.2C35.7 27.5194 33.8195 29.4 31.5 29.4C29.1806 29.4 27.3 27.5194 27.3 25.2C27.3 22.8806 29.1806 21 31.5 21C33.8188 21.0024 35.6976 22.8812 35.7 25.2ZM25.9 25.2C25.901 26.8095 26.5966 28.3404 27.8083 29.4H24.7485L24.2543 21H27.8083C26.5966 22.0596 25.901 23.5905 25.9 25.2ZM25.16 36.4L24.8312 30.8H38.1688L37.84 36.4H25.16ZM38.8285 19.6H24.1716L23.8427 14H39.1573L38.8285 19.6ZM40.6 12.6H22.4V9.8H40.6V12.6Z" fill="#157FC3"/>
<path d="M35.7001 33.6001H33.6001C33.2136 33.6001 32.9001 33.9135 32.9001 34.3001C32.9001 34.6867 33.2136 35.0001 33.6001 35.0001H35.7001C36.0867 35.0001 36.4001 34.6867 36.4001 34.3001C36.4001 33.9135 36.0867 33.6001 35.7001 33.6001Z" fill="#157FC3"/>
<path d="M30.8 33.6001H30.1C29.7135 33.6001 29.4 33.9135 29.4 34.3001C29.4 34.6867 29.7135 35.0001 30.1 35.0001H30.8C31.1866 35.0001 31.5 34.6867 31.5 34.3001C31.5 33.9135 31.1866 33.6001 30.8 33.6001Z" fill="#157FC3"/>
<path d="M2.1 37.7998H20.3C21.4597 37.7998 22.4 36.8596 22.4 35.6998V32.8998C22.3986 32.1807 22.0288 31.5125 21.4201 31.1297C21.794 30.4939 21.794 29.7058 21.4201 29.07C22.0288 28.6872 22.3986 28.019 22.4 27.2999C22.4 23.5148 19.7818 19.5999 15.4 19.5999H7.7C2.64448 19.5999 0 23.4738 0 27.2999C0.00136719 28.019 0.371191 28.6872 0.979931 29.07C0.606006 29.7058 0.606006 30.4939 0.979931 31.1297C0.371191 31.5125 0.00136719 32.1807 0 32.8998V35.6998C0 36.8596 0.940283 37.7998 2.1 37.7998ZM21 35.6998C21 36.0864 20.6866 36.3998 20.3 36.3998H2.1C1.71343 36.3998 1.4 36.0864 1.4 35.6998V32.8998C1.4 32.5133 1.71343 32.1999 2.1 32.1999H7.6084L18.0195 34.9759C18.3405 35.0621 18.6778 34.9103 18.8265 34.6126L20.0327 32.1999H20.3C20.6866 32.1999 21 32.5133 21 32.8998V35.6998ZM2.1 30.0999C2.1 29.7133 2.41343 29.3999 2.8 29.3999H19.6C19.9866 29.3999 20.3 29.7133 20.3 30.0999C20.3 30.4864 19.9866 30.7999 19.6 30.7999H2.8C2.41343 30.7999 2.1 30.4864 2.1 30.0999ZM18.4673 32.1999L17.8291 33.4768L13.0416 32.1999H18.4673ZM7.7 20.9999H15.4C19.2626 20.9999 21 24.6841 21 27.2999C21 27.6864 20.6866 27.9999 20.3 27.9999H2.1C1.71343 27.9999 1.4 27.6864 1.4 27.2999C1.4 24.7671 3.07993 20.9999 7.7 20.9999Z" fill="#157FC3"/>
<path d="M7.7 23.7999H8.4C8.78657 23.7999 9.1 23.4865 9.1 23.0999C9.1 22.7133 8.78657 22.3999 8.4 22.3999H7.7C7.31343 22.3999 7 22.7133 7 23.0999C7 23.4865 7.31343 23.7999 7.7 23.7999Z" fill="#157FC3"/>
<path d="M4.89983 26.6002H5.59983C5.9864 26.6002 6.29983 26.2868 6.29983 25.9002C6.29983 25.5136 5.9864 25.2002 5.59983 25.2002H4.89983C4.51326 25.2002 4.19983 25.5136 4.19983 25.9002C4.19983 26.2868 4.51326 26.6002 4.89983 26.6002Z" fill="#157FC3"/>
<path d="M8.3999 25.9002C8.3999 26.2868 8.71333 26.6002 9.0999 26.6002H9.7999C10.1865 26.6002 10.4999 26.2868 10.4999 25.9002C10.4999 25.5136 10.1865 25.2002 9.7999 25.2002H9.0999C8.71333 25.2002 8.3999 25.5136 8.3999 25.9002Z" fill="#157FC3"/>
<path d="M13.2997 26.6002H13.9997C14.3863 26.6002 14.6997 26.2868 14.6997 25.9002C14.6997 25.5136 14.3863 25.2002 13.9997 25.2002H13.2997C12.9132 25.2002 12.5997 25.5136 12.5997 25.9002C12.5997 26.2868 12.9132 26.6002 13.2997 26.6002Z" fill="#157FC3"/>
<path d="M17.4998 26.6002H18.1998C18.5864 26.6002 18.8998 26.2868 18.8998 25.9002C18.8998 25.5136 18.5864 25.2002 18.1998 25.2002H17.4998C17.1132 25.2002 16.7998 25.5136 16.7998 25.9002C16.7998 26.2868 17.1132 26.6002 17.4998 26.6002Z" fill="#157FC3"/>
<path d="M11.2001 23.7999H11.9001C12.2867 23.7999 12.6001 23.4865 12.6001 23.0999C12.6001 22.7133 12.2867 22.3999 11.9001 22.3999H11.2001C10.8135 22.3999 10.5001 22.7133 10.5001 23.0999C10.5001 23.4865 10.8135 23.7999 11.2001 23.7999Z" fill="#157FC3"/>
<path d="M14.7001 23.7999H15.4001C15.7867 23.7999 16.1001 23.4865 16.1001 23.0999C16.1001 22.7133 15.7867 22.3999 15.4001 22.3999H14.7001C14.3135 22.3999 14.0001 22.7133 14.0001 23.0999C14.0001 23.4865 14.3135 23.7999 14.7001 23.7999Z" fill="#157FC3"/>
</svg>
