<svg width="37" height="42" viewBox="0 0 37 42" fill="none" xmlns="http://www.w3.org/2000/svg">
<path d="M36.9738 39.8494L35.1282 28.9718C34.9293 27.7998 34.1035 26.8583 32.9728 26.515L27.995 25.0029C27.8919 23.7778 27.393 22.6221 26.5627 21.7073C25.8986 20.9756 25.0633 20.4428 24.1424 20.1488C24.3 19.9727 24.4461 19.7973 24.5802 19.6256C25.7639 18.11 26.3977 16.4401 26.559 15.3006H26.943C27.9418 15.3006 28.7544 14.4826 28.7544 13.477V12.5422C28.7544 11.8711 28.3794 11.263 27.8155 10.9474V8.69941C27.8155 8.35972 27.542 8.08434 27.2046 8.08434C26.8672 8.08434 26.5937 8.35964 26.5937 8.69941V11.223C26.3558 11.2646 26.0719 11.3365 25.7815 11.4596C25.7518 11.4705 25.7228 11.4831 25.6955 11.4983C25.6299 11.5284 25.5642 11.5602 25.4988 11.5959V6.63945C25.4988 5.2701 24.3923 4.15611 23.0321 4.15611H21.3459C20.7643 4.15611 20.1961 4.36013 19.7458 4.73074L19.5804 4.86691C19.2764 5.11711 18.8928 5.25492 18.5002 5.25492C18.1075 5.25492 17.7238 5.11711 17.4199 4.86691L17.2545 4.73074C16.8042 4.36021 16.2361 4.15611 15.6545 4.15611H13.9681C12.6079 4.15611 11.5014 5.2701 11.5014 6.63945V11.5959C11.436 11.5602 11.3703 11.5284 11.3047 11.4983C11.2773 11.4831 11.2485 11.4705 11.2187 11.4596C10.9283 11.3365 10.6444 11.2646 10.4065 11.223V4.84189C10.4065 2.85034 12.0159 1.23006 13.9941 1.23006H23.006C24.9842 1.23006 26.5935 2.85034 26.5935 4.84189V5.80871C26.5935 6.14841 26.8671 6.42379 27.2044 6.42379C27.5417 6.42379 27.8153 6.14849 27.8153 5.80871V4.84189C27.8153 2.17211 25.6578 0 23.006 0H13.9941C11.3422 0 9.18473 2.17211 9.18473 4.84189V10.9475C8.62081 11.2631 8.24583 11.8711 8.24583 12.5422V13.4771C8.24583 14.4827 9.05844 15.3007 10.0572 15.3007H10.4412C10.6025 16.4402 11.2363 18.11 12.4201 19.6257C12.554 19.7972 12.7 19.9725 12.8574 20.1484C10.7405 20.8253 9.19679 22.7414 9.00523 25.0029L4.02726 26.515C2.89655 26.8583 2.07066 27.7998 1.87185 28.9718L1.12239 33.3891C1.0656 33.7239 1.28918 34.0417 1.6217 34.0988C1.95415 34.1562 2.26988 33.931 2.32676 33.5961L3.07621 29.1788C3.19648 28.4698 3.69612 27.9003 4.38015 27.6926L8.98421 26.2941V27.5107C7.92887 27.7062 7.03088 28.4361 6.66103 29.4473C6.56285 29.7157 6.50182 29.9967 6.47966 30.2825L6.03469 36.0325C6.00112 36.4656 6.14999 36.8969 6.44291 37.2156C6.73583 37.5344 7.1513 37.7173 7.58274 37.7173H8.34442C8.68183 37.7173 8.95537 37.442 8.95537 37.1022C8.95537 36.7625 8.68183 36.4873 8.34442 36.4873H7.58274C7.49075 36.4873 7.40226 36.4484 7.33977 36.3803C7.27735 36.3124 7.24566 36.2205 7.25283 36.1282L7.69779 30.3781C7.71124 30.205 7.74815 30.0348 7.80763 29.8723C8.06495 29.1688 8.75981 28.6925 9.53689 28.687L9.63752 28.6862C9.64225 28.6862 9.64689 28.6862 9.65154 28.6862C10.4068 28.6862 11.0753 29.1173 11.3573 29.7876C11.4364 29.9755 11.4845 30.1742 11.5003 30.3781L11.9455 36.1283C11.9525 36.2205 11.9209 36.3124 11.8584 36.3804C11.796 36.4483 11.7075 36.4873 11.6155 36.4873H10.8538C10.5164 36.4873 10.2428 36.7626 10.2428 37.1022C10.2428 37.4419 10.5164 37.7173 10.8538 37.7173H11.6155C12.0469 37.7173 12.4625 37.5345 12.7553 37.2156C13.0483 36.8968 13.1972 36.4655 13.1636 36.0326L12.7185 30.2825C12.6924 29.946 12.6129 29.618 12.4823 29.3076C12.0799 28.3514 11.2194 27.6865 10.2059 27.5066V25.9229L12.306 25.285C12.4971 25.6901 12.8757 26.5657 13.6258 28.4529C14.3816 30.3572 15.3212 32.7981 16.2223 35.1709C16.2287 35.1908 16.2361 35.2103 16.2445 35.2293C16.8458 36.8134 17.4291 38.3649 17.928 39.7034C18.0175 39.9434 18.2454 40.1024 18.5 40.1024C18.7546 40.1024 18.9825 39.9434 19.072 39.7034C19.5708 38.3649 20.1541 36.8134 20.7555 35.2293C20.7639 35.2103 20.7713 35.1908 20.7777 35.1709C21.6782 32.7995 22.6172 30.3602 23.3728 28.4565C24.1238 26.5667 24.5028 25.6905 24.6939 25.285L26.794 25.9229V29.5557C25.3389 29.8403 24.2367 31.1323 24.2367 32.6792C24.2367 34.4339 25.6547 35.8616 27.3978 35.8616C29.1408 35.8616 30.5588 34.434 30.5588 32.6792C30.5588 31.1373 29.4639 29.8485 28.0158 29.5583V26.2941L32.6199 27.6927C33.304 27.9004 33.8035 28.4698 33.9239 29.1789L35.7694 40.0565C35.8 40.2369 35.7524 40.4133 35.6351 40.5531C35.518 40.6929 35.3533 40.77 35.1715 40.77H1.8285C1.64672 40.77 1.48213 40.693 1.36488 40.5531C1.24771 40.4133 1.19996 40.237 1.2306 40.0565L1.83967 36.4667C1.89646 36.1318 1.67287 35.8141 1.34035 35.7569C1.00791 35.6995 0.692174 35.9248 0.635301 36.2596L0.0262334 39.8495C-0.0646175 40.3853 0.0829439 40.9309 0.431029 41.3464C0.779277 41.7618 1.28861 42 1.8285 42H35.1715C35.7114 42 36.2208 41.7618 36.569 41.3463C36.9171 40.9308 37.0646 40.3852 36.9738 39.8494ZM26.6009 12.4761C26.9264 12.3943 27.1877 12.3958 27.1906 12.3959C27.2959 12.3973 27.3982 12.3725 27.4892 12.3245C27.5164 12.3927 27.5324 12.466 27.5324 12.5422V13.4771C27.5324 13.8044 27.268 14.0707 26.9429 14.0707H26.6009V12.4761ZM10.3991 14.0707H10.0571C9.73204 14.0707 9.46755 13.8044 9.46755 13.4771V12.5422C9.46755 12.466 9.48369 12.3927 9.51082 12.3246C9.60167 12.3726 9.70401 12.3974 9.80936 12.3959C9.81401 12.3967 10.0746 12.3953 10.3991 12.4764V14.0707ZM11.6209 14.7603V13.1444C11.806 13.2003 12.0085 13.1927 12.1954 13.1142C12.5161 12.9795 12.7232 12.6667 12.7232 12.3172V6.63945C12.7232 5.94841 13.2817 5.38617 13.9681 5.38617H15.6543C15.9548 5.38617 16.2484 5.49158 16.481 5.68304L16.6464 5.81922C17.168 6.24857 17.8262 6.4849 18.5 6.4849C19.1738 6.4849 19.832 6.24848 20.3536 5.81922L20.519 5.68304C20.7516 5.49158 21.0452 5.38617 21.3457 5.38617H23.0319C23.7183 5.38617 24.2768 5.94841 24.2768 6.63945V12.3172C24.2768 12.6667 24.4839 12.9796 24.8046 13.1143C24.9116 13.1592 25.0237 13.181 25.1349 13.181C25.2177 13.181 25.3 13.1688 25.3791 13.145V14.7603C25.3791 15.6583 24.7624 17.4021 23.6196 18.8654C23.241 19.3501 22.7544 19.8708 22.1553 20.3259C22.1363 20.3387 22.1181 20.3526 22.1008 20.3674C21.1726 21.0582 19.9792 21.5875 18.5 21.5875C17.0208 21.5875 15.8274 21.0582 14.8991 20.3673C14.8818 20.3526 14.8637 20.3387 14.8448 20.326C14.2457 19.8708 13.7591 19.3501 13.3804 18.8654C12.2376 17.4022 11.6209 15.6583 11.6209 14.7603ZM22.5023 24.6971L18.5 27.7088L14.4977 24.6971C14.8946 24.1893 15.1169 23.5374 15.1169 22.9556V21.9642C16.0581 22.4738 17.1812 22.8176 18.5 22.8176C19.8188 22.8176 20.942 22.4738 21.8831 21.9642V22.9556C21.8831 23.5374 22.1054 24.1893 22.5023 24.6971ZM13.4781 24.0106C13.1519 23.8855 12.7902 23.865 12.448 23.9585C12.433 23.962 12.4184 23.966 12.4041 23.9703L10.2935 24.6114C10.6505 22.8443 12.0757 21.4378 13.8951 21.1654V22.9556C13.8951 23.3415 13.724 23.7404 13.4781 24.0106ZM15.1362 28.9479C15.135 28.9451 15.1339 28.9422 15.1328 28.9394C15.1019 28.8606 15.0713 28.7828 15.041 28.7059C15.0355 28.692 15.0301 28.6781 15.0246 28.6643C14.995 28.5891 14.9655 28.5145 14.9365 28.4411C14.9345 28.4359 14.9325 28.4308 14.9304 28.4256C14.8399 28.1964 14.7526 27.9767 14.6687 27.7661C14.6626 27.7508 14.6565 27.7353 14.6504 27.7202C14.6263 27.6598 14.6025 27.6003 14.579 27.5416C14.5704 27.52 14.5618 27.4987 14.5532 27.4774C14.5304 27.4204 14.5078 27.3638 14.4855 27.3085C14.4788 27.2919 14.4723 27.2758 14.4657 27.2593C14.4252 27.1587 14.3856 27.0607 14.3469 26.9651C14.3365 26.9393 14.3258 26.913 14.3155 26.8875C14.3003 26.8502 14.2856 26.814 14.2708 26.7775C14.2548 26.7381 14.2388 26.699 14.2232 26.6607C14.2173 26.6463 14.2112 26.6311 14.2053 26.6168C14.2006 26.6054 14.1963 26.5948 14.1916 26.5834C14.1211 26.4108 14.054 26.2481 13.9904 26.0951C13.9899 26.0939 13.9893 26.0927 13.9888 26.0914C13.9549 26.01 13.9218 25.9304 13.8899 25.8546C13.8734 25.8153 13.8571 25.7767 13.8411 25.7388L17.2833 28.3288L15.845 28.944C15.8424 28.9451 15.8398 28.9461 15.8373 28.9473L15.2368 29.2041C15.2027 29.1174 15.1694 29.0324 15.1362 28.9479ZM16.5938 32.7138C16.4732 32.3986 16.3516 32.0815 16.2298 31.7648C16.0393 31.2694 15.8573 30.7984 15.6832 30.3497L15.9112 30.2521L16.8427 31.3423L16.5938 32.7138ZM18.5118 37.7126C18.4943 37.676 18.4734 37.6415 18.4493 37.6094C18.1733 36.8748 17.8229 35.9453 17.4351 34.9226L18.0055 31.7787H18.9945L19.5649 34.9226C19.1585 35.994 18.7936 36.9628 18.5118 37.7126ZM19.2236 30.5488H17.7764L17.0915 29.7473L18.5 29.145L19.9085 29.7473L19.2236 30.5488ZM20.7702 31.7648C20.6484 32.0815 20.5268 32.3986 20.4062 32.7138L20.1573 31.3422L21.0888 30.2521L21.3168 30.3496C21.1427 30.7983 20.9607 31.2694 20.7702 31.7648ZM23.1102 25.8546C23.0799 25.9265 23.0485 26.0019 23.0165 26.0788C23.0123 26.0888 23.0081 26.0989 23.0039 26.109C22.9722 26.1853 22.94 26.2632 22.9065 26.3443C22.9044 26.3497 22.9021 26.3553 22.8999 26.3607C22.871 26.4307 22.8414 26.5029 22.8114 26.5765C22.8058 26.5903 22.8005 26.603 22.7948 26.6168C22.7882 26.6333 22.781 26.6508 22.7742 26.6675C22.7609 26.7003 22.7473 26.7337 22.7336 26.7672C22.7168 26.8085 22.7001 26.8496 22.6829 26.8918C22.6774 26.9053 22.6718 26.9193 22.6663 26.9328C22.6237 27.0377 22.5801 27.1459 22.5354 27.2569C22.5284 27.2743 22.5215 27.2914 22.5145 27.309C22.4924 27.3639 22.4699 27.4199 22.4473 27.4763C22.4385 27.4984 22.4296 27.5203 22.4208 27.5426C22.3975 27.6008 22.3739 27.6597 22.3501 27.7194C22.3434 27.7361 22.3367 27.7531 22.33 27.7699C22.2471 27.9776 22.1612 28.1942 22.0719 28.42C22.069 28.4274 22.0661 28.4347 22.0631 28.4423C22.0343 28.5152 22.0051 28.5894 21.9756 28.6641C21.9702 28.678 21.9646 28.692 21.9591 28.706C21.9286 28.7833 21.8979 28.8614 21.8668 28.9407C21.8662 28.9422 21.8656 28.9437 21.8651 28.9451C21.8315 29.0305 21.7978 29.1165 21.7634 29.2043L21.1623 28.9472C21.1602 28.9463 21.1581 28.9454 21.156 28.9445L19.7169 28.329L23.1591 25.7389C23.1429 25.7767 23.1266 25.8152 23.1102 25.8546ZM24.5959 23.9704L24.5956 23.9703C24.5951 23.9701 24.5945 23.97 24.594 23.9698C24.2396 23.8627 23.8615 23.8804 23.522 24.0106C23.276 23.7404 23.105 23.3415 23.105 22.9556V21.1645C24.9357 21.4362 26.3567 22.8295 26.709 24.6122L24.5959 23.9704ZM29.337 32.6792C29.337 33.7558 28.467 34.6315 27.3978 34.6315C26.3285 34.6315 25.4585 33.7558 25.4585 32.6792C25.4585 31.6026 26.3285 30.7269 27.3978 30.7269C28.467 30.7269 29.337 31.6026 29.337 32.6792Z" fill="#157FC3"/>
</svg>
