<svg width="720" height="1024" viewBox="0 0 720 1024" fill="none" xmlns="http://www.w3.org/2000/svg">
<g clip-path="url(#clip0_10:1660)">
<rect width="720" height="1024" fill="url(#paint0_linear_10:1660)"/>
<path d="M902.14 501.415C842.067 641.846 683.491 702.165 559.246 691.88C525.323 689.073 457.066 683.422 403.772 633.019C301.421 536.219 317.184 333.881 415.162 214.756C427.78 199.415 515.116 96.6337 651.214 98.0138C750.857 99.02 820.796 155.314 829.3 162.319C840.044 171.178 863.739 192.228 885.093 225.63C935.27 304.11 939.672 413.662 902.14 501.415Z" fill="url(#paint1_linear_10:1660)"/>
<path d="M849.14 917.415C789.067 1057.85 630.491 1118.16 506.246 1107.88C472.323 1105.07 404.066 1099.42 350.772 1049.02C248.421 952.219 264.184 749.881 362.162 630.756C374.78 615.415 462.116 512.634 598.214 514.014C697.857 515.02 767.796 571.314 776.3 578.319C787.044 587.178 810.739 608.228 832.093 641.63C882.27 720.11 886.672 829.662 849.14 917.415Z" fill="url(#paint2_linear_10:1660)"/>
<g clip-path="url(#clip1_10:1660)">
<path d="M682 694.147H38V693.824H682V694.147Z" fill="#E5E5E4"/>
<path d="M453.419 718.043H464.611V718.365H453.419V718.043Z" fill="#E5E5E4"/>
<path d="M94.5561 272.322C92.692 272.325 90.9052 273.068 89.5871 274.386C88.269 275.704 87.5269 277.491 87.5235 279.356V629.015C87.5269 630.879 88.269 632.666 89.5871 633.984C90.9052 635.303 92.692 636.045 94.5561 636.048H343.256C345.12 636.045 346.907 635.303 348.225 633.984C349.543 632.666 350.285 630.879 350.288 629.015V279.356C350.285 277.491 349.543 275.704 348.225 274.386C346.907 273.068 345.12 272.325 343.256 272.322H94.5432H94.5561ZM343.256 636.332H94.5432C92.5927 636.332 90.722 635.557 89.3428 634.177C87.9636 632.798 87.1886 630.927 87.1886 628.976V279.317C87.1886 278.351 87.3789 277.395 87.7485 276.502C88.1181 275.61 88.6599 274.799 89.3428 274.116C90.0257 273.433 90.8364 272.891 91.7287 272.521C92.621 272.152 93.5774 271.961 94.5432 271.961H343.256C344.222 271.961 345.178 272.152 346.071 272.521C346.963 272.891 347.774 273.433 348.456 274.116C349.139 274.799 349.681 275.61 350.051 276.502C350.42 277.395 350.61 278.351 350.61 279.317V628.976C350.61 630.927 349.836 632.798 348.456 634.177C347.077 635.557 345.207 636.332 343.256 636.332Z" fill="#A0BEE3"/>
<path d="M373.15 272.322C371.286 272.325 369.5 273.068 368.182 274.386C366.863 275.704 366.121 277.491 366.118 279.356V629.015C366.121 630.879 366.863 632.666 368.182 633.984C369.5 635.303 371.286 636.045 373.15 636.048H621.863C623.726 636.045 625.512 635.302 626.828 633.984C628.144 632.665 628.883 630.878 628.883 629.015V279.356C628.883 277.492 628.144 275.705 626.828 274.387C625.512 273.068 623.726 272.325 621.863 272.322H373.15ZM621.863 636.332H373.15C371.2 636.332 369.329 635.557 367.95 634.177C366.571 632.798 365.796 630.927 365.796 628.976V279.317C365.796 278.351 365.986 277.395 366.356 276.502C366.725 275.61 367.267 274.799 367.95 274.116C368.633 273.433 369.444 272.891 370.336 272.521C371.228 272.152 372.185 271.961 373.15 271.961H621.863C623.812 271.965 625.679 272.741 627.055 274.12C628.432 275.499 629.205 277.368 629.205 279.317V628.976C629.205 630.925 628.432 632.794 627.055 634.173C625.679 635.552 623.812 636.328 621.863 636.332Z" fill="#A0BEE3"/>
<path d="M139.056 706.41H105.568V706.088H139.056V706.41Z" fill="#E5E5E4"/>
<path d="M405.441 702.919H335.76V702.597H405.441V702.919Z" fill="#E5E5E4"/>
<path d="M228.482 718.365H140.344V718.043H228.482V718.365Z" fill="#E5E5E4"/>
<path d="M628.896 709.27H555.905V708.948H628.896V709.27Z" fill="#E5E5E4"/>
<path d="M544.429 709.27H514.727V708.948H544.429V709.27Z" fill="#E5E5E4"/>
<path d="M440.861 710.764H370.6V710.442H440.861V710.764Z" fill="#E5E5E4"/>
<path d="M233.995 693.657H382.205V353.041H233.995V693.657Z" fill="#EAEAE9"/>
<path d="M101.228 693.657H380.492V353.041H101.228V693.657Z" fill="#D5E5FC"/>
<path d="M372.957 685.928V360.771H241.723V685.928H372.957Z" fill="#E2ECFA"/>
<path d="M243.719 685.928V360.771H241.723V685.928H243.719Z" fill="#EAEAE9"/>
<path d="M252.658 509.263C252.656 510.128 252.825 510.986 253.155 511.786C253.485 512.586 253.97 513.313 254.581 513.926C255.193 514.538 255.919 515.024 256.718 515.356C257.517 515.688 258.374 515.858 259.24 515.858C260.105 515.858 260.962 515.688 261.761 515.356C262.561 515.024 263.287 514.538 263.898 513.926C264.51 513.313 264.994 512.586 265.324 511.786C265.654 510.986 265.823 510.128 265.821 509.263C265.821 507.517 265.128 505.842 263.894 504.608C262.659 503.373 260.985 502.68 259.24 502.68C257.494 502.68 255.82 503.373 254.586 504.608C253.352 505.842 252.658 507.517 252.658 509.263Z" fill="#D8D9D9"/>
<path d="M250.082 507.91C250.082 509.656 250.776 511.33 252.01 512.565C253.244 513.799 254.918 514.493 256.664 514.493C258.409 514.493 260.083 513.799 261.318 512.565C262.552 511.33 263.245 509.656 263.245 507.91C263.245 506.164 262.552 504.49 261.318 503.255C260.083 502.021 258.409 501.327 256.664 501.327C254.918 501.327 253.244 502.021 252.01 503.255C250.776 504.49 250.082 506.164 250.082 507.91Z" fill="white"/>
<path d="M108.763 685.928V360.771H239.997V685.928H108.763Z" fill="#E2ECFA"/>
<path d="M221.038 509.263C221.036 510.128 221.205 510.986 221.535 511.786C221.865 512.586 222.35 513.313 222.961 513.926C223.572 514.538 224.298 515.024 225.098 515.356C225.897 515.688 226.754 515.858 227.619 515.858C228.485 515.858 229.342 515.688 230.141 515.356C230.94 515.024 231.667 514.538 232.278 513.926C232.889 513.313 233.374 512.586 233.704 511.786C234.034 510.986 234.203 510.128 234.201 509.263C234.201 507.517 233.508 505.842 232.273 504.608C231.039 503.373 229.365 502.68 227.619 502.68C225.874 502.68 224.2 503.373 222.965 504.608C221.731 505.842 221.038 507.517 221.038 509.263Z" fill="#D8D9D9"/>
<path d="M218.462 507.91C218.462 509.656 219.155 511.33 220.389 512.565C221.624 513.799 223.298 514.493 225.043 514.493C226.789 514.493 228.463 513.799 229.697 512.565C230.932 511.33 231.625 509.656 231.625 507.91C231.625 506.164 230.932 504.49 229.697 503.255C228.463 502.021 226.789 501.327 225.043 501.327C223.298 501.327 221.624 502.021 220.389 503.255C219.155 504.49 218.462 506.164 218.462 507.91Z" fill="white"/>
<path d="M396.012 520.689H460.271V353.041H396.012V520.689Z" fill="#E0E0DF"/>
<path d="M393.269 520.689H457.527V353.041H393.269V520.689Z" fill="#D5E5FC"/>
<path d="M452.607 513.308V360.423H398.189V513.308H452.607Z" fill="#E2ECFA"/>
<path d="M400.263 513.308V360.423H398.189V513.308H400.263Z" fill="#E0E0DF"/>
<path d="M395.304 478.938H455.492V469.032H395.304V478.938Z" fill="#F0EFEE"/>
<path d="M475.263 520.689H539.521V353.041H475.263V520.689Z" fill="#E0E0DF"/>
<path d="M472.52 520.689H536.778V353.041H472.52V520.689Z" fill="#D5E5FC"/>
<path d="M531.858 513.308V360.423H477.44V513.308H531.858Z" fill="#E2ECFA"/>
<path d="M479.514 513.308V360.423H477.44V513.308H479.514Z" fill="#E0E0DF"/>
<path d="M474.555 478.938H534.743V469.032H474.555V478.938Z" fill="#F0EFEE"/>
<path d="M554.501 520.689H618.772V353.041H554.501V520.689Z" fill="#E0E0DF"/>
<path d="M551.757 520.689H616.029V353.041H551.757V520.689Z" fill="#D5E5FC"/>
<path d="M611.096 513.308V360.423H556.69V513.308H611.096Z" fill="#E2ECFA"/>
<path d="M558.764 513.308V360.423H556.69V513.308H558.764Z" fill="#E0E0DF"/>
<path d="M553.805 478.938H613.994V469.032H553.805V478.938Z" fill="#F0EFEE"/>
<path d="M195.677 334.684L197.493 335.612H286.043V317.873L195.677 334.684Z" fill="#D8D9D9"/>
<path d="M282.617 334.684H195.677L199.103 317.873H286.043L282.617 334.684Z" fill="#D5E5FC"/>
<path d="M531.768 585.306H464.611V693.824H531.768V585.306Z" fill="#EAEAE9"/>
<path d="M531.768 585.306L576.229 557.751V693.824H531.768V585.306Z" fill="#D8D9D9"/>
<path d="M464.611 585.306L509.073 557.751H576.229L531.768 585.306H464.611Z" fill="#E5E5E4"/>
<path d="M478.728 581.441L510.722 561.615H562.113L530.119 581.441H478.728Z" fill="#D8D9D9"/>
<path d="M510.722 581.441V561.615H562.113L530.119 581.441H510.722Z" fill="#E0E0DF"/>
<path d="M609.717 737.405C609.717 745.469 497.919 752 360 752C222.081 752 110.27 745.469 110.27 737.405C110.27 729.34 222.068 722.822 360 722.822C497.932 722.822 609.717 729.353 609.717 737.405Z" fill="#D5E2F2"/>
<path d="M194.956 362.638C192.38 366.426 193.204 369.17 195.381 376.654C196.282 379.759 197.673 382.85 201.937 378.277C206.2 373.704 210.386 365.009 204.899 363.54C201.662 362.666 198.297 362.36 194.956 362.638Z" fill="#0B2B34"/>
<path d="M194.853 725.36H185.296L184.884 703.203H194.453L194.853 725.36Z" fill="#F9B6B6"/>
<path d="M252.31 725.36H242.74L238.477 703.203H248.047L252.31 725.36Z" fill="#F9B6B6"/>
<path d="M242.083 724.252H252.838C253.027 724.251 253.21 724.317 253.356 724.437C253.502 724.557 253.601 724.724 253.637 724.909L255.311 733.411C255.352 733.621 255.345 733.838 255.291 734.045C255.236 734.252 255.136 734.444 254.998 734.607C254.859 734.771 254.686 734.901 254.491 734.988C254.295 735.075 254.083 735.117 253.869 735.112C250.121 735.112 248.305 734.828 243.565 734.828C240.654 734.828 234.652 735.137 230.685 735.137C226.718 735.137 226.241 731.157 227.903 730.809C235.309 729.186 238.142 726.944 240.551 724.845C240.985 724.463 241.544 724.252 242.122 724.252H242.083Z" fill="#0B2B34"/>
<path d="M185.373 724.252H195.819C196.008 724.249 196.192 724.313 196.339 724.434C196.485 724.554 196.584 724.723 196.617 724.909L198.304 733.411C198.347 733.619 198.342 733.835 198.29 734.041C198.238 734.247 198.141 734.439 198.005 734.602C197.869 734.765 197.698 734.896 197.504 734.984C197.311 735.072 197.1 735.116 196.888 735.112C193.114 735.112 187.678 734.828 182.939 734.828C177.4 734.828 172.635 735.137 166.104 735.137C162.24 735.137 161.184 731.157 162.846 730.809C170.368 729.16 176.486 728.993 183.054 724.999C183.743 724.54 184.546 724.281 185.373 724.252Z" fill="#0B2B34"/>
<path d="M187.859 422.656L174.798 418.47C174.798 418.47 161.313 449.734 156.766 451.667C150.61 454.308 142.019 462.668 135.927 467.744C135.733 469.354 136.48 473.592 137.434 474.713C148.459 472.136 162.176 465.824 166.684 461.663C176.988 452.156 187.833 422.656 187.833 422.656" fill="#F9B6B6"/>
<path d="M190.911 415.481C194.582 423.854 179.847 450.443 179.847 450.443L160.321 441.425C162.727 433.32 165.973 425.488 170.007 418.057C176.138 407.404 186.88 406.309 190.911 415.481Z" fill="#3273BA"/>
<path d="M172.441 446.965L160.321 441.348C162.727 433.242 165.973 425.41 170.007 417.98C171.847 414.463 174.8 411.654 178.405 409.993C176.111 417.219 174.536 424.654 173.704 432.189C172.217 436.673 171.016 441.246 170.11 445.883L172.441 446.952V446.965ZM178.431 409.967C179.437 409.566 180.495 409.31 181.573 409.207C179.783 409.607 178.624 409.929 178.431 409.967Z" fill="#B3CFEC"/>
<path d="M172.441 446.965L170.11 445.895C171.016 441.259 172.217 436.686 173.704 432.202C173.15 436.543 172.686 441.477 172.416 446.965" fill="#8EA6C7"/>
<path d="M137.253 466.829L125.88 468.645L128.817 480.664C132.801 478.961 136.502 476.659 139.791 473.837L137.215 466.829H137.253Z" fill="#F9B6B6"/>
<path d="M116.027 473.721L120.174 480.355L128.83 480.664L125.88 468.645L116.027 473.721Z" fill="#F9B6B6"/>
<path d="M194.659 714.629L194.621 712.426L194.659 714.629Z" fill="#C3C4C4"/>
<path d="M194.659 714.629H185.09L185.051 712.426H194.621L194.659 714.629Z" fill="#D79692"/>
<path d="M250.25 714.629L249.824 712.413L250.25 714.629Z" fill="#C3C4C4"/>
<path d="M250.25 714.629H240.68L240.255 712.413H249.824L250.25 714.629Z" fill="#D79692"/>
<path d="M178.392 410.045C178.392 410.045 166.401 442.933 175.816 496.754H227.001C227.542 488.896 223.549 446.578 232.024 409.555C226.385 408.46 220.68 407.737 214.945 407.391C207.7 406.966 200.436 406.966 193.191 407.391C188.201 407.889 183.257 408.776 178.405 410.045" fill="#3273BA"/>
<path d="M227.001 496.754H175.816C173.451 483.47 172.248 470.004 172.222 456.51C172.222 427.01 178.405 410.045 178.405 410.045C183.257 408.776 188.201 407.889 193.191 407.391C193.191 407.391 187.073 414.489 198.961 414.489C211.957 414.489 214.945 407.391 214.945 407.391C220.68 407.737 226.385 408.46 232.024 409.555C231.244 409.438 230.456 409.378 229.667 409.375C223.111 409.375 218.32 413.639 218.333 420.582C218.357 422.78 218.753 424.958 219.505 427.023C219.93 428.311 220.407 429.509 220.922 430.811C222.034 439.451 223.948 447.968 226.64 456.253C226.731 452.556 226.898 448.704 227.156 444.723V444.826C226.64 452.891 226.473 460.607 226.473 467.537C226.473 479.904 227.001 489.785 227.001 494.693C227.001 495.543 227.001 496.252 227.001 496.793" fill="#B3CFEC"/>
<path d="M226.64 456.214C223.948 447.929 222.034 439.412 220.922 430.772C222.802 435.538 225.159 440.601 227.156 444.685C226.898 448.665 226.731 452.517 226.64 456.214Z" fill="#8EA6C7"/>
<path d="M212.601 387.037C211.056 394.032 210.167 402.715 214.945 407.391C214.945 407.391 211.957 414.489 198.961 414.489C187.073 414.489 193.191 407.391 193.191 407.391C201.048 405.523 200.919 395.874 199.631 390.425L212.588 387.037" fill="#F9B6B6"/>
<path d="M198.343 413.922L195.522 417.04C195.426 417.149 195.36 417.28 195.328 417.422C195.297 417.564 195.301 417.712 195.342 417.851L196.244 420.608C196.295 420.76 196.392 420.893 196.521 420.99C196.649 421.087 196.804 421.142 196.965 421.149L200.005 421.291C200.147 421.295 200.288 421.264 200.416 421.201C200.544 421.138 200.655 421.045 200.739 420.93L202.555 418.263C202.662 418.118 202.719 417.942 202.719 417.761C202.719 417.58 202.662 417.404 202.555 417.259L199.618 413.922C199.541 413.825 199.443 413.747 199.332 413.694C199.22 413.64 199.098 413.612 198.974 413.612C198.85 413.612 198.728 413.64 198.617 413.694C198.505 413.747 198.407 413.825 198.33 413.922H198.343Z" fill="#0B2B34"/>
<path d="M199 413.239C200.443 415.656 201.246 418.4 201.331 421.213C201.331 421.213 217.753 415.468 217.199 407.043C217.199 407.043 214.92 405.678 213.477 404.557C213.477 404.557 212.794 409.864 199 413.239Z" fill="white"/>
<path d="M199 413.239C197.448 415.513 196.31 418.042 195.638 420.711C195.638 420.711 188.387 415.713 190.808 407.391C192.172 406.851 193.576 406.42 195.007 406.103C195.007 406.103 193.912 411.474 199 413.278V413.239Z" fill="white"/>
<path d="M197.635 419.552C197.171 419.397 191.298 453.908 191.955 460.13C192.193 465.873 193.399 471.535 195.522 476.877C195.522 476.877 198.098 470.526 198.33 459.705C198.33 449.039 198.446 425.774 199.374 419.771L197.635 419.642V419.552Z" fill="#0B2B34"/>
<path d="M199.309 401.877C199.516 401.339 199.688 400.788 199.824 400.228C199.688 400.788 199.516 401.339 199.309 401.877ZM200.095 393.002C199.988 392.136 199.837 391.276 199.644 390.425C199.843 391.275 199.994 392.135 200.095 393.002Z" fill="#B5B8B8"/>
<path d="M199.309 401.877C199.516 401.339 199.688 400.788 199.824 400.228C200.337 397.854 200.428 395.408 200.095 393.002C199.994 392.135 199.843 391.275 199.644 390.425L212.601 387.024C212.344 388.197 212.099 389.42 211.906 390.657C209.523 395.501 207.269 398.773 202.89 400.847C201.775 401.371 200.591 401.731 199.374 401.916" fill="#D79692"/>
<path d="M188.58 382.773C188.949 383.892 189.54 384.924 190.316 385.81C191.093 386.695 192.04 387.415 193.101 387.926C195.948 389.214 197.918 386.78 197.596 383.791C197.313 381.111 195.484 377.182 192.444 377.118C191.764 377.118 191.094 377.284 190.494 377.603C189.893 377.921 189.379 378.383 188.998 378.946C188.617 379.509 188.379 380.157 188.306 380.833C188.233 381.509 188.327 382.193 188.58 382.825" fill="#F9B6B6"/>
<path d="M194.621 388.235C194.094 388.225 193.576 388.102 193.101 387.875C192.04 387.363 191.093 386.643 190.316 385.758C189.54 384.873 188.949 383.84 188.58 382.722C188.418 382.236 188.336 381.727 188.335 381.214C188.311 380.675 188.396 380.136 188.584 379.63C188.773 379.124 189.062 378.661 189.433 378.269C189.805 377.877 190.251 377.564 190.747 377.348C191.242 377.133 191.775 377.02 192.315 377.015H192.418C195.484 377.015 197.313 381.008 197.57 383.688C197.583 383.898 197.583 384.109 197.57 384.319C197.57 386.457 196.373 388.184 194.556 388.184" fill="#D79692"/>
<path d="M218.5 378.509C215.731 387.681 214.572 393.182 208.802 396.944C200.121 402.612 189.778 395.887 189.791 386.123C189.791 377.337 194.312 363.811 204.191 362.059C206.354 361.664 208.584 361.838 210.659 362.566C212.735 363.293 214.586 364.549 216.029 366.208C217.473 367.868 218.46 369.875 218.893 372.032C219.326 374.188 219.191 376.421 218.5 378.509Z" fill="#F9B6B6"/>
<path d="M213.168 367.096C210.592 370.883 211.403 373.627 213.58 381.111C214.482 384.216 215.873 387.308 220.149 382.735C224.425 378.161 228.585 369.466 223.098 367.997C219.867 367.115 216.505 366.81 213.168 367.096Z" fill="#0B2B34"/>
<path d="M214.198 369.904C208.274 369.17 193.59 367.933 194.698 360.294C195.806 352.655 205.749 354.935 205.749 354.935C205.749 354.935 200.803 357.511 211.159 359.521C221.514 361.531 226.769 367.637 222.094 370.097C220.901 370.835 219.519 371.209 218.117 371.175C216.715 371.141 215.354 370.699 214.198 369.904Z" fill="#0B2B34"/>
<path d="M220.213 389.652C218.511 391.377 216.196 392.358 213.773 392.383C210.618 392.383 209.909 389.356 211.571 386.792C213.039 384.486 216.452 381.704 219.299 382.928C222.145 384.152 222.261 387.552 220.188 389.665L220.213 389.652Z" fill="#F9B6B6"/>
<path d="M188.941 386.135C188.67 390.915 189.121 397.33 192.805 398.618C196.488 399.906 206.161 399.481 209.214 397.794C214.005 395.217 216.156 384.267 218.384 382.193C220.613 380.119 216.388 379.115 216.388 379.115C216.388 379.115 213.554 386.123 208.93 386.458C204.306 386.792 189.25 380.094 188.928 386.135H188.941Z" fill="#0B2B34"/>
<path d="M209.459 496.754C209.459 496.754 208.441 508.786 207.14 525.095C205.672 543.581 203.856 567.606 202.774 585.86V586.104C202.555 589.582 202.375 592.842 202.233 595.817C200.777 625.639 197.789 712.413 197.789 712.413H181.586C181.586 712.413 173.42 623.862 173.085 593.499C172.751 564.321 175.829 496.754 175.829 496.754H209.471" fill="#3273BA"/>
<path d="M198.974 707.454L198.845 712.748H180.169L179.525 706.797L198.974 707.454Z" fill="#0B2B34"/>
<path d="M202.761 586.091C199.258 570.826 197.609 552.263 197.609 523.768C199.438 536.972 201.731 553.062 203.946 567.374C203.495 573.815 203.083 580.127 202.748 585.847V586.091" fill="#1F68B3"/>
<path d="M193.977 496.754C193.977 496.754 202.993 565.905 208.325 593.37C214.121 623.372 236.262 712.478 236.262 712.478H253.792C253.792 712.478 239.971 625.794 236.97 596.088C233.712 563.883 227.001 496.818 227.001 496.818H193.977" fill="#3273BA"/>
<path d="M253.907 707.853L254.667 712.748H235.399L233.827 707.132L253.907 707.853Z" fill="#0B2B34"/>
<path d="M246.978 702.03L246.823 701.902C246.733 701.206 239.095 653.684 234.433 620.293H234.768C239.392 653.684 247.055 701.154 247.145 701.85L247.017 702.03H246.978ZM233.493 610.464H233.158C232.488 605.311 231.947 600.738 231.574 597.106C228.65 568.147 222.558 503.917 222.558 503.272L222.699 503.092L222.88 503.234C222.88 503.878 229.01 568.108 231.896 597.067C232.269 600.7 232.81 605.286 233.493 610.464Z" fill="#6799D1"/>
<path d="M203.946 378.071C203.766 378.831 203.225 379.359 202.735 379.243C202.246 379.128 201.988 378.445 202.169 377.685C202.349 376.925 202.89 376.397 203.379 376.512C203.869 376.628 204.126 377.311 203.946 378.071Z" fill="#0B2B34"/>
<path d="M195.484 376.229C195.303 376.989 194.762 377.517 194.273 377.414C193.784 377.311 193.539 376.603 193.719 375.843C193.9 375.083 194.44 374.554 194.93 374.67C195.419 374.786 195.664 375.469 195.484 376.229Z" fill="#0B2B34"/>
<path d="M198.086 377.195C196.63 379.314 194.897 381.229 192.934 382.889C193.358 383.371 193.885 383.752 194.475 384.004C195.066 384.256 195.705 384.372 196.347 384.345L198.047 377.195H198.086Z" fill="#F4827F"/>
<path d="M198.06 389.523C198.031 389.518 198.003 389.506 197.979 389.489C197.955 389.471 197.935 389.449 197.921 389.423C197.906 389.398 197.897 389.369 197.894 389.34C197.892 389.31 197.895 389.281 197.905 389.253C197.921 389.196 197.957 389.147 198.007 389.115C198.057 389.084 198.118 389.074 198.176 389.085C199.105 389.335 200.08 389.363 201.022 389.166C201.964 388.969 202.847 388.553 203.598 387.952H203.92V388.274C203.118 388.939 202.17 389.402 201.152 389.626C200.135 389.85 199.08 389.828 198.073 389.562L198.06 389.523Z" fill="#F9B6B6"/>
<path d="M207.14 375.868C207.073 375.851 207.01 375.818 206.957 375.774C206.904 375.729 206.861 375.674 206.831 375.611C206.621 375.088 206.287 374.624 205.859 374.259C205.43 373.893 204.92 373.637 204.371 373.511C204.253 373.492 204.148 373.427 204.078 373.331C204.008 373.234 203.979 373.114 203.997 372.996C204.02 372.876 204.087 372.769 204.185 372.698C204.283 372.626 204.405 372.594 204.526 372.609C205.219 372.753 205.866 373.062 206.414 373.511C206.961 373.96 207.391 374.534 207.668 375.186C207.712 375.299 207.711 375.424 207.666 375.537C207.62 375.649 207.534 375.74 207.424 375.791H207.14V375.868Z" fill="#0B2B34"/>
<path d="M192.405 372.377L192.225 372.274C192.182 372.232 192.148 372.182 192.125 372.127C192.102 372.072 192.09 372.012 192.09 371.952C192.09 371.892 192.102 371.833 192.125 371.778C192.148 371.722 192.182 371.672 192.225 371.63C192.696 371.078 193.293 370.647 193.966 370.374C194.638 370.1 195.366 369.992 196.089 370.059C196.147 370.068 196.202 370.089 196.252 370.12C196.302 370.151 196.345 370.192 196.379 370.24C196.412 370.288 196.436 370.342 196.448 370.4C196.46 370.457 196.461 370.516 196.45 370.574C196.428 370.691 196.363 370.796 196.267 370.867C196.172 370.939 196.053 370.972 195.935 370.96C195.362 370.92 194.788 371.015 194.26 371.239C193.732 371.463 193.264 371.809 192.895 372.249C192.838 372.313 192.765 372.36 192.683 372.385C192.601 372.41 192.514 372.412 192.431 372.39L192.405 372.377Z" fill="#0B2B34"/>
<path d="M223.665 425.297L236.957 420.969C236.957 420.969 249.206 452.156 253.701 453.973C259.858 456.433 272.403 462.99 280.183 464.562C281.071 465.85 282.269 469.921 281.896 471.351C270.729 474.249 247.995 468.13 243.526 464.111C233.312 454.952 223.627 425.297 223.627 425.297" fill="#F9B6B6"/>
<path d="M232.024 409.607C241.04 410.895 250.649 442.301 250.649 442.301L231.329 453.032C231.329 453.032 223.33 438.115 219.466 427.036C215.422 415.442 222.313 408.19 231.986 409.607" fill="#3273BA"/>
<path d="M231.367 452.981C231.367 452.981 229.513 449.515 227.156 444.685C225.159 440.601 222.802 435.538 220.922 430.772C220.407 429.484 219.93 428.195 219.505 426.985C218.753 424.919 218.357 422.741 218.333 420.544C218.333 413.6 223.111 409.336 229.667 409.336C230.456 409.339 231.244 409.4 232.024 409.516C241.04 410.805 250.649 442.211 250.649 442.211L247.158 444.156L234.523 451.19L231.367 452.942" fill="#B3CFEC"/>
<path d="M237.498 723.93C237.405 723.908 237.308 723.908 237.215 723.93C237.167 723.953 237.126 723.989 237.099 724.035C237.071 724.081 237.058 724.134 237.061 724.188C237.038 724.338 237.051 724.491 237.101 724.635C237.15 724.778 237.234 724.908 237.344 725.012C238.413 725.503 239.629 725.567 240.744 725.192C239.758 724.553 238.655 724.116 237.498 723.904V723.93ZM238.877 725.914C238.229 725.962 237.584 725.789 237.048 725.424C236.877 725.28 236.747 725.093 236.67 724.883C236.593 724.673 236.572 724.447 236.61 724.226C236.613 724.093 236.651 723.963 236.722 723.85C236.792 723.737 236.891 723.644 237.009 723.582C238.078 723.041 241.118 724.87 241.465 725.154L241.569 725.386L241.388 725.566C240.546 725.784 239.682 725.901 238.812 725.914H238.877Z" fill="#3273BA"/>
<path d="M239.495 721.714H239.405C239.108 721.714 239.07 721.895 239.057 721.946C238.928 722.577 240.1 724.162 241.079 724.909C241.035 723.825 240.667 722.78 240.023 721.907C239.874 721.784 239.688 721.716 239.495 721.714ZM241.337 725.579H241.234C240.255 725.038 238.387 723.002 238.658 721.869C238.695 721.702 238.788 721.552 238.922 721.445C239.055 721.337 239.22 721.278 239.392 721.276C239.562 721.26 239.734 721.277 239.898 721.328C240.062 721.379 240.214 721.462 240.345 721.572C241.44 722.474 241.633 725.244 241.633 725.36L241.53 725.566H241.401L241.337 725.579Z" fill="#3273BA"/>
<path d="M179.68 723.93C179.533 723.922 179.386 723.953 179.255 724.02C179.211 724.044 179.175 724.079 179.15 724.123C179.125 724.166 179.112 724.215 179.113 724.265C179.09 724.397 179.101 724.533 179.146 724.66C179.192 724.786 179.269 724.899 179.371 724.986C179.938 725.514 181.509 725.605 183.634 725.244C182.4 724.589 181.063 724.154 179.68 723.956V723.93ZM181.367 725.914C180.553 725.995 179.736 725.785 179.062 725.321C178.908 725.188 178.79 725.017 178.72 724.826C178.65 724.634 178.63 724.428 178.662 724.226C178.67 724.101 178.709 723.979 178.777 723.873C178.844 723.767 178.938 723.68 179.049 723.621C180.221 722.964 184.021 724.909 184.458 725.154L184.562 725.386L184.381 725.579C183.389 725.78 182.38 725.892 181.367 725.914Z" fill="#3273BA"/>
<path d="M182.088 721.714H181.947C181.535 721.714 181.509 721.92 181.496 721.972C181.38 722.616 182.9 724.252 184.072 724.96C183.994 723.875 183.575 722.843 182.874 722.011C182.664 721.817 182.387 721.711 182.101 721.714H182.088ZM184.33 725.579H184.24C183.093 725.064 180.852 723.002 181.058 721.907C181.058 721.663 181.29 721.341 181.921 721.276C182.151 721.245 182.385 721.263 182.607 721.33C182.829 721.396 183.034 721.51 183.209 721.663C184.407 722.667 184.6 725.244 184.613 725.36L184.51 725.566H184.381L184.33 725.579Z" fill="#3273BA"/>
<path d="M281.084 471.557L290.19 471.995L285.348 462.063C285.348 462.063 277.362 461.947 276.061 468.079L281.084 471.557Z" fill="#F9B6B6"/>
<path d="M297.571 467.19L292.741 458.417L285.36 462.063L290.19 471.995L297.571 467.19Z" fill="#F9B6B6"/>
<path d="M307.076 393.53C306.162 386.857 288.349 381.704 280.028 389.317C268.835 399.623 270.613 431.661 270.626 449.065C287.215 444.981 312.434 445.96 316.839 448.369C317.805 440.369 317.573 395.488 307.102 393.53" fill="#0B2B34"/>
<path d="M272.712 455.699C272.545 458.726 272.21 461.496 271.836 464.381C271.463 467.267 270.948 470.062 270.394 472.884C269.286 478.57 267.762 484.167 265.834 489.63C265.345 491.009 264.765 492.374 264.224 493.74C263.683 495.105 263.078 496.419 262.331 497.823C260.884 500.53 259.157 503.077 257.179 505.424C253.456 509.922 249.191 513.942 244.479 517.391L240.95 513.527C244.321 509.349 247.451 504.984 250.327 500.451C251.665 498.323 252.833 496.092 253.817 493.778C254.281 492.67 254.745 491.369 255.208 490.184C255.672 488.999 256.046 487.698 256.496 486.436C258.019 481.318 259.249 476.118 260.18 470.861C260.618 468.207 261.047 465.545 261.468 462.874C261.829 460.298 262.125 457.464 262.357 454.952L272.815 455.609L272.712 455.699Z" fill="#FAAB76"/>
<path d="M266.221 443.216C262.588 444.131 260.554 468.079 260.554 468.079L270.188 473.875C270.188 473.875 276.009 456.188 275.121 448.549C274.477 442.997 268.938 442.52 266.221 443.216Z" fill="#FAAB76"/>
<path d="M240.216 513.617L231.934 519.839L242.096 522.183C242.096 522.183 246.489 517.275 245.033 513.269L240.216 513.617Z" fill="#FAAB76"/>
<path d="M229.732 528.173L238.348 529.668L242.135 522.183L231.973 519.839L229.732 528.173Z" fill="#FAAB76"/>
<path d="M285.566 724.664H277.298L272.197 686.997H286.275L285.566 724.664Z" fill="#FAAB76"/>
<path d="M285.901 706.513H274.837L273.987 700.175L286.03 699.789L285.901 706.513Z" fill="#DB8F5D"/>
<path d="M349.593 711.086L341.607 713.148L325.404 678.83L339.147 674.939L349.593 711.086Z" fill="#FAAB76"/>
<path d="M333.751 696.504L331.136 690.965L342.805 687.602L344.673 694.043L333.751 696.504Z" fill="#DB8F5D"/>
<path d="M339.688 711.743L350.288 707.235C350.47 707.155 350.674 707.144 350.864 707.204C351.053 707.263 351.215 707.388 351.319 707.557L356.084 715.441C356.199 715.642 356.269 715.866 356.29 716.097C356.311 716.328 356.283 716.561 356.208 716.78C356.132 716.999 356.011 717.2 355.852 717.369C355.693 717.538 355.5 717.671 355.286 717.759C351.564 719.267 349.696 719.808 344.982 721.792C342.11 723.002 338.052 725.089 334.085 726.764C330.118 728.439 328.251 724.626 329.745 723.569C336.468 718.829 336.7 716.149 338.31 712.993C338.575 712.426 339.031 711.97 339.598 711.705L339.688 711.743Z" fill="#0B2B34"/>
<path d="M276.19 723.479H287.782C287.979 723.474 288.171 723.543 288.321 723.671C288.471 723.8 288.568 723.979 288.593 724.175L289.881 733.295C289.907 733.525 289.883 733.757 289.813 733.977C289.742 734.197 289.625 734.399 289.471 734.57C289.316 734.742 289.127 734.879 288.916 734.972C288.705 735.066 288.476 735.113 288.246 735.112C284.227 735.112 282.282 734.815 277.22 734.815C274.103 734.815 267.663 735.137 263.348 735.137C259.034 735.137 258.828 730.873 260.618 730.487C268.655 728.761 271.811 726.378 274.515 724.046C274.995 723.641 275.601 723.418 276.228 723.415L276.19 723.479Z" fill="#0B2B34"/>
<path d="M265.577 443.19C265.577 443.19 260.695 444.916 270.484 505.024H312.125C311.43 488.072 311.404 477.624 319.505 442.83C313.674 441.628 307.764 440.848 301.821 440.498C295.526 440.053 289.208 440.053 282.913 440.498C274.786 441.245 265.577 443.074 265.577 443.074" fill="#3273BA"/>
<path d="M296.257 464.446L296.141 464.368C293.565 459.911 287.022 456.42 286.958 456.382V456.163H287.176C287.176 456.163 293.694 459.654 296.386 464.111C299.103 461.715 307.875 450.868 306.818 441.541L306.96 441.361L307.115 441.503C308.209 451.126 299 462.333 296.437 464.472H296.334L296.257 464.446Z" fill="white"/>
<path d="M274.644 462.694H274.541C273.59 461.601 273.093 460.186 273.15 458.739C272.802 453.689 274.876 445.329 278.16 441.709H278.392V441.941C275.159 445.496 273.124 453.741 273.472 458.687C273.44 459.988 273.844 461.262 274.618 462.307C276.757 459.409 282.733 455.866 282.99 455.75H283.222L283.158 455.969C283.158 455.969 276.718 459.718 274.773 462.591L274.67 462.655L274.644 462.694Z" fill="white"/>
<path d="M299.94 419.268C298.756 425.361 297.558 436.504 301.821 440.562C301.821 440.562 304.178 454.874 284.755 454.874C268.732 454.874 282.913 440.562 282.913 440.562C289.701 438.952 289.521 433.915 288.336 429.187L299.928 419.268" fill="#FAAB76"/>
<path d="M288.928 432.537C288.928 432.459 288.928 432.369 288.928 432.292C288.934 432.373 288.934 432.455 288.928 432.537ZM288.349 429.175L289.366 428.299L288.349 429.175Z" fill="#001E27"/>
<path d="M288.928 432.537C288.934 432.455 288.934 432.373 288.928 432.292C288.824 431.24 288.639 430.198 288.374 429.175L289.392 428.299L295.239 423.313C295.487 424.39 295.535 425.504 295.381 426.598C295.11 429.316 291.517 432.163 288.941 432.537" fill="#DB8F5D"/>
<path d="M306.368 408.112C303.972 418.006 303.173 422.283 297.223 426.482C288.207 432.859 276.615 427.77 276.01 417.362C275.443 407.983 279.448 393.375 289.933 391.134C292.245 390.626 294.65 390.718 296.916 391.402C299.183 392.085 301.238 393.337 302.885 395.038C304.532 396.74 305.716 398.834 306.326 401.122C306.935 403.411 306.95 405.817 306.368 408.112Z" fill="#FAAB76"/>
<path d="M298.614 396.557C299.76 406.219 300.237 415.88 307.076 413.587C313.915 411.294 307.759 396.557 307.759 396.557H298.614Z" fill="#0B2B34"/>
<path d="M276.383 399.687C286.21 396.619 296.795 397.047 306.342 400.898C305.054 396.171 304.268 392.383 298.459 390.593C292.65 388.802 279.281 390.902 276.383 399.687Z" fill="#0B2B34"/>
<path d="M270.484 505.089C270.484 505.089 262.395 584.095 263.065 615.372C263.761 647.9 271.141 700.266 271.141 700.266L287.885 699.725C287.885 699.725 287.344 649.793 288.58 617.846C289.868 583.064 300.971 505.089 300.971 505.089H270.484Z" fill="#0B2B34"/>
<path d="M289.649 702.636H269.492L268.011 697.444L290.59 696.813L289.649 702.636Z" fill="#3273BA"/>
<path d="M291.04 585.937C291.221 584.108 291.414 582.24 291.607 580.372C291.414 582.24 291.221 584.108 291.04 585.937Z" fill="#B5B8B8"/>
<path d="M290.01 596.835C286.906 584.881 280.466 555.612 285.103 534.55C286.906 548.437 289.199 565.248 291.607 580.372C291.414 582.24 291.221 584.108 291.04 585.937C290.667 589.673 290.319 593.318 290.01 596.835Z" fill="#001E27"/>
<path d="M281.432 505.089C281.432 505.089 290.873 587.225 297.996 613.595C306.458 644.898 329.255 691.493 329.255 691.493L344.84 686.997C344.84 686.997 331.664 632.209 325.134 615.72C311.339 580.526 323.15 528.122 312.125 505.102H281.432" fill="#0B2B34"/>
<path d="M347.7 689.007L329.114 694.159L325.765 689.393L346.386 682.527L347.7 689.007Z" fill="#3273BA"/>
<path d="M289.649 408.318C289.508 409.13 288.954 409.723 288.361 409.607C287.769 409.491 287.511 408.782 287.666 407.971C287.82 407.159 288.349 406.566 288.89 406.682C289.43 406.798 289.727 407.52 289.585 408.331L289.649 408.318Z" fill="#0B2B34"/>
<path d="M280.453 406.682C280.299 407.494 279.758 408.074 279.165 407.971C278.573 407.868 278.328 407.133 278.47 406.322C278.611 405.51 279.165 404.93 279.758 405.033C280.35 405.137 280.608 405.858 280.466 406.682H280.453Z" fill="#0B2B34"/>
<path d="M279.977 405.124L278.122 404.209C278.122 404.209 278.843 405.909 279.977 405.124Z" fill="#0B2B34"/>
<path d="M283.055 408.421C281.992 410.153 280.691 411.727 279.191 413.098C279.553 413.469 279.992 413.758 280.477 413.942C280.962 414.127 281.481 414.204 281.999 414.167L283.016 408.421H283.055Z" fill="#F68949"/>
<path d="M286.339 418.006C285.877 418.005 285.416 417.962 284.961 417.877C284.898 417.864 284.843 417.828 284.806 417.775C284.77 417.722 284.756 417.657 284.768 417.594C284.772 417.563 284.783 417.533 284.8 417.507C284.816 417.481 284.837 417.458 284.862 417.44C284.888 417.422 284.916 417.409 284.946 417.402C284.977 417.395 285.008 417.395 285.038 417.4C286.048 417.605 287.092 417.567 288.084 417.289C289.076 417.011 289.988 416.502 290.744 415.803H291.092V416.151C289.811 417.376 288.099 418.047 286.326 418.019L286.339 418.006Z" fill="#0B2B34"/>
<path d="M306.78 415.571C306.408 416.471 305.861 417.289 305.172 417.977C304.482 418.664 303.663 419.208 302.761 419.577C300.34 420.544 298.897 418.457 299.271 416.022C299.67 413.832 301.396 410.689 303.933 410.753C304.489 410.777 305.03 410.939 305.507 411.224C305.984 411.51 306.381 411.911 306.664 412.389C306.947 412.868 307.106 413.41 307.126 413.966C307.146 414.521 307.027 415.073 306.78 415.571Z" fill="#FAAB76"/>
<path d="M293.217 402.856C293.087 402.856 292.963 402.805 292.869 402.715C292.465 402.256 291.957 401.901 291.389 401.677C290.82 401.453 290.206 401.367 289.598 401.426C289.535 401.44 289.471 401.44 289.408 401.427C289.345 401.415 289.285 401.39 289.233 401.354C289.18 401.318 289.135 401.271 289.1 401.217C289.065 401.163 289.042 401.103 289.031 401.04C289.009 400.914 289.036 400.784 289.109 400.678C289.181 400.572 289.292 400.498 289.418 400.473C290.185 400.381 290.964 400.475 291.688 400.746C292.412 401.017 293.06 401.458 293.578 402.032C293.667 402.123 293.716 402.246 293.716 402.373C293.716 402.501 293.667 402.623 293.578 402.715C293.487 402.8 293.367 402.846 293.243 402.843L293.217 402.856Z" fill="#0B2B34"/>
<path d="M278.148 401.607C278.023 401.609 277.903 401.563 277.813 401.478C277.724 401.387 277.674 401.264 277.674 401.137C277.674 401.009 277.724 400.887 277.813 400.795C278.333 400.225 278.982 399.787 279.705 399.518C280.429 399.249 281.207 399.157 281.973 399.249C282.099 399.274 282.21 399.348 282.282 399.454C282.354 399.56 282.382 399.69 282.359 399.816C282.349 399.879 282.325 399.94 282.291 399.994C282.256 400.047 282.211 400.094 282.158 400.13C282.105 400.166 282.046 400.191 281.983 400.203C281.92 400.216 281.855 400.216 281.793 400.203C281.182 400.141 280.566 400.226 279.995 400.45C279.424 400.674 278.914 401.031 278.508 401.491C278.415 401.581 278.29 401.632 278.16 401.633L278.148 401.607Z" fill="#0B2B34"/>
<path d="M324 453.857C326.366 459.63 328.396 465.536 330.08 471.544C331.889 477.631 333.14 483.87 333.815 490.184C333.905 490.983 333.944 491.82 333.982 492.657V493.946V494.255C333.989 494.384 333.989 494.513 333.982 494.641C334.016 495.027 334.016 495.415 333.982 495.801C333.634 498.02 332.75 500.12 331.406 501.92C329.425 504.641 327.125 507.115 324.554 509.288C319.801 513.364 314.683 516.995 309.266 520.135L306.252 515.897C310.605 511.903 315.023 507.781 318.861 503.491C320.716 501.517 322.364 499.359 323.781 497.05C324.222 496.382 324.512 495.626 324.632 494.835V494.41L324.528 493.392C324.451 492.709 324.387 492.026 324.258 491.331C323.302 485.633 321.942 480.011 320.188 474.507C318.423 468.916 316.44 463.235 314.379 457.837L324.078 453.87" fill="#FAAB76"/>
<path d="M319.467 442.894C323.55 444.569 328.663 466.932 328.663 466.932L319.969 474.056C319.969 474.056 311.803 457.386 311.43 449.696C311.159 443.912 315.847 441.425 319.467 442.894Z" fill="#FAAB76"/>
<path d="M338.735 713.315C337.267 713.109 335.283 713.006 334.871 713.521C334.839 713.576 334.823 713.638 334.823 713.702C334.823 713.765 334.839 713.827 334.871 713.882C334.9 714.036 334.967 714.18 335.066 714.302C335.165 714.423 335.293 714.518 335.438 714.577C336.108 714.809 337.37 714.346 338.864 713.289L338.735 713.315ZM335.013 714.977C334.828 714.879 334.666 714.742 334.539 714.575C334.412 714.408 334.324 714.215 334.279 714.011C334.232 713.87 334.223 713.719 334.255 713.574C334.287 713.429 334.357 713.295 334.459 713.186C335.335 712.22 338.993 712.851 339.405 712.929L339.598 713.122L339.508 713.367C338.413 714.178 336.378 715.466 335.154 715.041L335.013 714.977Z" fill="#3273BA"/>
<path d="M336.945 710.301H336.803C336.699 710.249 336.584 710.223 336.468 710.223C336.352 710.223 336.238 710.249 336.133 710.301C335.863 710.455 335.85 710.61 335.876 710.726C336.017 711.421 337.743 712.503 338.941 712.838C338.527 711.812 337.836 710.92 336.945 710.262V710.301ZM337.705 712.877C336.636 712.362 335.554 711.589 335.399 710.842C335.359 710.651 335.386 710.452 335.475 710.278C335.564 710.105 335.71 709.967 335.889 709.888C336.049 709.795 336.227 709.738 336.412 709.72C336.596 709.702 336.783 709.725 336.958 709.785C338.362 710.262 339.534 712.967 339.534 713.083V713.328L339.315 713.431C338.745 713.327 338.194 713.14 337.679 712.877H337.705Z" fill="#3273BA"/>
<path d="M270.523 723.144C270.363 723.135 270.204 723.166 270.059 723.234C270.014 723.261 269.977 723.299 269.95 723.344C269.923 723.389 269.907 723.44 269.904 723.492C269.884 723.636 269.899 723.783 269.948 723.92C269.997 724.057 270.08 724.18 270.188 724.278C270.806 724.832 272.493 724.935 274.76 724.561C273.44 723.848 272.006 723.369 270.523 723.144ZM272.339 725.27C271.462 725.348 270.585 725.126 269.853 724.638C269.684 724.495 269.555 724.311 269.479 724.103C269.402 723.896 269.38 723.672 269.415 723.453C269.422 723.319 269.463 723.19 269.536 723.077C269.608 722.964 269.708 722.872 269.827 722.809C271.115 722.114 275.172 724.213 275.636 724.445L275.765 724.703L275.572 724.896C274.508 725.124 273.426 725.249 272.339 725.27Z" fill="#3273BA"/>
<path d="M273.086 720.748H272.931C272.493 720.748 272.468 720.967 272.455 721.019C272.339 721.727 273.975 723.466 275.224 724.213C275.131 723.053 274.681 721.951 273.936 721.057C273.704 720.853 273.407 720.739 273.099 720.735L273.086 720.748ZM275.52 724.909H275.43C274.206 724.355 271.785 722.152 271.978 721.044C271.978 720.774 272.21 720.426 272.893 720.362C273.361 720.329 273.824 720.482 274.181 720.787C275.469 721.856 275.701 724.651 275.713 724.729L275.61 724.948H275.469L275.52 724.909Z" fill="#3273BA"/>
<path d="M312.743 502.654L313.812 506.377C313.954 506.66 313.619 506.957 313.13 506.957H270.278C269.891 506.957 269.582 506.776 269.557 506.544L269.183 502.809C269.183 502.551 269.492 502.332 269.892 502.332H312.074C312.204 502.32 312.335 502.343 312.453 502.4C312.571 502.457 312.671 502.545 312.743 502.654Z" fill="#3273BA"/>
<path d="M313.13 506.957H270.278C269.891 506.957 269.582 506.776 269.557 506.544L269.183 502.809C269.183 502.564 269.505 502.358 269.892 502.358H312.074C312.204 502.346 312.335 502.369 312.453 502.426C312.571 502.483 312.671 502.57 312.743 502.68L313.812 506.403C313.825 506.445 313.825 506.489 313.812 506.532C313.812 506.776 313.516 506.982 313.104 506.982" fill="#0C4363"/>
<path d="M307.076 507.369H308.21C308.441 507.369 308.609 507.253 308.596 507.111L308.068 502.268C308.068 502.126 307.849 502.01 307.63 502.01H306.496C306.277 502.01 306.097 502.126 306.11 502.268L306.651 507.111C306.651 507.253 306.857 507.369 307.076 507.369Z" fill="#3273BA"/>
<path d="M273.447 507.369H274.58C274.799 507.369 274.966 507.253 274.953 507.111L274.425 502.268C274.425 502.126 274.219 502.01 273.987 502.01H272.854C272.635 502.01 272.468 502.126 272.481 502.268L273.008 507.111C273.008 507.253 273.215 507.369 273.447 507.369Z" fill="#3273BA"/>
<path d="M290.268 507.369H291.388C291.62 507.369 291.787 507.253 291.775 507.111L291.246 502.268C291.246 502.126 291.028 502.01 290.809 502.01H289.675C289.456 502.01 289.276 502.126 289.302 502.268L289.83 507.111C289.83 507.253 290.036 507.369 290.268 507.369Z" fill="#3273BA"/>
<path d="M307.372 514.982L296.347 515.923L303.714 523.304C303.714 523.304 310.039 521.462 310.927 517.288L307.372 514.982Z" fill="#FAAB76"/>
<path d="M290.036 521.797L296.54 527.645L305.286 522.711L296.347 515.923L290.036 521.797Z" fill="#FAAB76"/>
<path d="M289.16 406.747L287.305 405.845C287.305 405.845 288.039 407.546 289.16 406.747Z" fill="#0B2B34"/>
<path d="M435.554 408.087C435.554 408.924 435.94 409.645 436.494 409.71C437.048 409.774 437.525 409.13 437.563 408.293C437.602 407.455 437.164 406.721 436.61 406.669C436.056 406.618 435.593 407.249 435.554 408.087Z" fill="#0B2B34"/>
<path d="M436.366 406.695L438.426 406.309C438.426 406.309 437.319 407.777 436.366 406.695Z" fill="#0B2B34"/>
<path d="M436.237 408.975C436.923 410.97 437.867 412.867 439.045 414.618C438.587 414.878 438.078 415.035 437.553 415.08C437.028 415.124 436.5 415.055 436.005 414.875L436.237 408.975Z" fill="#BB2B2B"/>
<path d="M436.906 402.612H436.675C436.102 402.339 435.472 402.207 434.838 402.227C434.204 402.248 433.584 402.419 433.029 402.728C432.915 402.793 432.781 402.814 432.652 402.785C432.523 402.757 432.41 402.681 432.334 402.573C432.297 402.52 432.272 402.46 432.258 402.397C432.245 402.334 432.244 402.268 432.256 402.205C432.268 402.141 432.293 402.081 432.328 402.027C432.364 401.973 432.409 401.926 432.463 401.89C433.153 401.499 433.927 401.278 434.719 401.244C435.512 401.211 436.301 401.366 437.022 401.697C437.145 401.746 437.243 401.841 437.296 401.961C437.349 402.082 437.352 402.218 437.306 402.341C437.277 402.425 437.223 402.499 437.152 402.551C437.081 402.604 436.995 402.634 436.906 402.637V402.612Z" fill="#0B2B34"/>
<path d="M407.308 403.011C407.553 413.317 407.424 417.722 412.46 423.519C420.047 432.24 432.798 430.45 435.644 420.428C438.22 411.41 437.396 395.952 427.375 390.915C417.355 385.878 406.999 392.667 407.244 403.011H407.308Z" fill="#CC6057"/>
<path d="M392.355 454.089C390.68 458.713 389.044 463.686 387.525 468.529C386.005 473.373 384.601 478.333 383.39 483.266L382.991 484.877C382.978 484.984 382.978 485.092 382.991 485.199C382.97 485.344 382.97 485.492 382.991 485.637C383.011 486.511 383.154 487.379 383.416 488.213C384.114 490.401 385.024 492.515 386.134 494.525C388.568 498.94 391.26 503.207 394.197 507.305L390.023 511.285C385.78 507.739 381.959 503.714 378.637 499.292C376.836 496.904 375.327 494.309 374.142 491.563C373.438 489.958 372.961 488.262 372.725 486.526C372.653 486.022 372.614 485.514 372.61 485.006C372.596 484.454 372.626 483.903 372.7 483.357C372.7 482.687 372.816 482.442 372.867 482.068L373.035 481.064C373.916 475.722 375.072 470.429 376.499 465.206C377.925 459.96 379.645 454.799 381.651 449.747L392.483 453.998" fill="#CC6057"/>
<path d="M385.593 438.978C379.153 442.16 375.469 459.886 375.469 459.886L391.917 467.975C391.917 467.975 401.911 454.836 398.885 444.543C397.365 439.39 391.917 435.86 385.593 438.978Z" fill="#0B2B34"/>
<path d="M393.192 505.81L399.735 515.356L391.376 515.085C391.376 515.085 387.203 510.886 389.65 507.356L393.192 505.862" fill="#CC6057"/>
<path d="M398.756 519.452L393.655 522.222L391.389 515.085L399.748 515.369L398.756 519.452Z" fill="#CC6057"/>
<path d="M408.596 416.151C410.116 422.334 409.627 432.897 405.454 436.93C405.454 436.93 410.013 443.074 421.618 443.216C434.369 443.358 427.414 437.02 427.414 437.02C420.369 435.294 420.304 430.192 421.283 425.426L408.596 416.176V416.151Z" fill="#CC6057"/>
<path d="M402.581 389.601C396.502 389.897 392.033 392.46 397.082 407.636C400.946 419.294 387.615 435.976 400.224 431.48C404.622 433.072 409.359 433.49 413.967 432.691C413.967 432.691 439.508 441.155 435.503 423.816C431.497 406.476 438.89 394.045 433.429 387.024C427.968 380.003 404.011 380.583 402.517 389.601H402.581Z" fill="#0B2B34"/>
<path d="M401.757 438.836C401.123 438.808 400.503 438.639 399.942 438.343C399.381 438.047 398.892 437.63 398.511 437.123C397.378 435.551 398.511 434.804 399.451 433.258C400.675 431.261 397.223 428.569 401.087 427.307C404.951 426.044 421.283 432.962 427.066 431.171C431.123 429.883 431.896 433.22 431.02 435.474C429.578 439.184 433.596 442.984 430.196 443.796C427.272 444.491 407.708 439.248 401.757 438.849V438.836Z" fill="#3273BA"/>
<path d="M425.598 723.969L436.069 724.729L438.401 700.716L427.929 699.956L425.598 723.969Z" fill="#CC6057"/>
<path d="M371.103 710.648L381.097 714.513L392.007 693.386L382.012 689.522L371.103 710.648Z" fill="#CC6057"/>
<path d="M383.339 712.065L373.228 705.393C373.064 705.275 372.862 705.22 372.661 705.239C372.46 705.258 372.272 705.349 372.133 705.496L366.118 712.336C365.973 712.524 365.87 712.741 365.814 712.972C365.759 713.203 365.753 713.443 365.797 713.676C365.84 713.91 365.933 714.132 366.068 714.327C366.203 714.522 366.378 714.686 366.582 714.809C370.137 717.077 371.965 718.004 376.409 720.941C379.14 722.745 382.952 725.643 386.713 728.142C390.474 730.642 392.973 727.215 391.608 725.849C385.477 719.769 385.644 717.038 384.485 713.573C384.275 712.956 383.868 712.426 383.326 712.065H383.339Z" fill="#0B2B34"/>
<path d="M436.675 723.247H424.915C424.715 723.242 424.519 723.312 424.367 723.443C424.215 723.574 424.116 723.757 424.091 723.956L422.803 733.257C422.777 733.492 422.802 733.731 422.876 733.956C422.949 734.181 423.069 734.389 423.229 734.564C423.388 734.739 423.583 734.879 423.801 734.973C424.018 735.068 424.253 735.115 424.49 735.112C428.586 735.112 430.557 734.802 435.722 734.802C438.903 734.802 445.485 735.137 449.89 735.137C454.295 735.137 454.475 730.796 452.646 730.397C444.441 728.632 441.196 726.21 438.478 723.956C437.988 723.542 437.368 723.314 436.726 723.312L436.675 723.247Z" fill="#0B2B34"/>
<path d="M437.1 714.075L437.28 712.336L437.113 714.062L437.1 714.075ZM426.718 712.336L426.873 710.764L426.718 712.336ZM426.899 710.442L427.015 709.154L426.886 710.442" fill="#C3C4C4"/>
<path d="M426.873 710.765L426.899 710.442L426.873 710.765Z" fill="#B1B3B4"/>
<path d="M437.113 714.075L426.718 712.336L426.873 710.764L426.899 710.442L427.028 709.18L437.447 710.52L437.28 712.349L437.113 714.075Z" fill="#A04B46"/>
<path d="M377.349 698.539L378.65 696.014V696.027L377.349 698.539Z" fill="#C3C4C4"/>
<path d="M387.486 702.133L377.349 698.539L378.65 696.027L388.825 699.531L387.486 702.133Z" fill="#A04B46"/>
<path d="M397.687 501.598L440.41 502.1C447.533 441.155 442.496 440.15 442.496 440.15C439.118 439.06 435.677 438.174 432.192 437.496L431.587 437.393C428.766 436.904 428.174 436.865 424.439 436.479C418.102 436.144 412.215 436.002 405.041 436.247L403.676 436.311C402.388 436.388 401.1 436.479 399.812 436.582C398.988 436.582 398.163 436.736 397.378 436.826L394.699 437.161C390.165 437.754 386.971 438.45 386.971 438.45C396.966 473.85 397.455 484.452 397.571 501.572" fill="#0B2B34"/>
<path d="M443.952 462.874C444.042 460.929 444.119 459.151 444.158 457.528C444.158 459.151 444.042 460.929 443.952 462.874Z" fill="#C3C4C4"/>
<path d="M442.986 476.916C439.791 471.522 438.047 465.393 437.924 459.125C437.847 453.393 440.977 451.757 444.209 451.602C444.209 453.303 444.209 455.274 444.209 457.528C444.209 459.151 444.093 460.929 444.003 462.874C443.81 466.829 443.501 471.466 443.037 476.916" fill="#001E27"/>
<path d="M429.127 501.971C429.127 501.971 419.905 566.523 415.384 606.703C410.567 649.214 391.054 700.227 391.054 700.227L376.615 695.241C376.615 695.241 386.146 648.029 389.315 608.158C395.755 527.22 384.949 520.251 397.738 501.546L429.178 501.92" fill="#3273BA"/>
<path d="M391.002 700.278L388.825 699.531L378.65 696.014L376.564 695.293C376.564 695.293 385.824 649.433 389.122 609.936C396.85 612.267 404.713 614.126 412.666 615.501L414.122 615.759C413.079 622.483 411.739 629.324 410.258 636.048C410.258 636.151 410.258 636.254 410.258 636.37C405.764 655.818 400.174 674.996 393.514 693.812L393.398 694.134C392.007 697.998 391.157 700.278 391.157 700.278H391.002ZM415.371 607.759L413.98 607.605C409.06 607.076 404.178 606.316 399.31 605.582C396.103 605.08 392.87 604.487 389.753 603.817C391.26 583.476 391.659 568.031 391.659 555.973C391.659 542.653 391.182 533.455 391.182 526.344C391.182 516.451 392.123 510.667 396.605 503.453H401.564V503.594C401.564 503.736 401.731 503.852 401.963 503.852H403.135C403.354 503.852 403.547 503.736 403.56 503.594V503.44L409.099 503.517C410.155 507.807 412.963 519.465 416.118 534.061C414.637 546.569 416.891 561.409 419.699 572.282C420.227 568.172 420.768 564.05 421.309 559.966C419.196 575.979 417.071 592.751 415.487 606.626L415.371 607.63" fill="#184780"/>
<path d="M419.544 572.398C416.736 561.525 414.482 546.634 415.964 534.177C417.677 542.176 419.493 551.052 421.115 560.082C420.575 564.166 420.034 568.288 419.505 572.398" fill="#1C3965"/>
<path d="M392.535 701.283L374.516 695.061L375.881 689.844L396.747 695.306L392.535 701.283Z" fill="#0B2B34"/>
<path d="M384.073 713.818C385.464 715.106 386.649 715.891 387.383 715.776C387.533 715.749 387.673 715.682 387.789 715.582C387.905 715.483 387.991 715.353 388.04 715.209C388.074 715.155 388.092 715.092 388.092 715.028C388.092 714.965 388.074 714.902 388.04 714.848C387.653 714.243 385.618 713.921 384.086 713.818H384.073ZM387.834 716.162C387.72 716.216 387.598 716.251 387.473 716.265C386.185 716.471 384.279 714.758 383.274 713.689V713.418L383.506 713.276C383.931 713.276 387.756 713.418 388.491 714.565C388.564 714.692 388.603 714.836 388.603 714.983C388.603 715.13 388.564 715.275 388.491 715.402C388.365 715.717 388.133 715.977 387.834 716.136V716.162Z" fill="#3273BA"/>
<path d="M439.856 502.216C439.856 502.216 455.389 579.509 453.805 611.108C452.156 644.009 439.47 710.764 439.47 710.764L424.323 708.819C424.323 708.819 427.929 643.803 427.594 611.327C427.221 575.927 408.57 501.83 408.57 501.83L439.856 502.203" fill="#3273BA"/>
<path d="M439.405 710.764L437.447 710.52L427.028 709.231L424.258 708.871C424.258 708.871 427.427 651.726 427.543 617.82C436.043 618.902 444.57 619.624 453.11 620.049C452.672 625.034 452.079 630.457 451.384 636.1V636.422C448.898 656.35 445.15 678.933 442.522 693.863C442.522 693.979 442.522 694.082 442.522 694.185C440.989 702.932 439.843 709.051 439.573 710.494C439.573 710.687 439.573 710.79 439.573 710.816L439.405 710.764ZM453.947 610.336C445.162 610.061 436.396 609.584 427.646 608.906C427.221 595.56 424.542 577.538 421.322 560.082C419.66 551.065 417.844 542.176 416.17 534.177C413.027 519.581 410.206 507.923 409.15 503.633L430.904 503.878V504.097C430.904 504.239 431.085 504.342 431.304 504.354H432.476C432.695 504.354 432.888 504.239 432.901 504.097V503.878L440.345 503.968C442.522 515.06 454.05 575.322 454.063 606.149C454.063 607.605 454.063 608.996 453.985 610.31" fill="#184780"/>
<path d="M447.133 443.783C450.843 449.497 454.215 455.425 457.231 461.534C458.764 464.575 460.219 467.692 461.507 470.925C462.882 474.204 464.014 477.58 464.895 481.025L465.23 482.313V482.468V482.725L465.32 483.254C465.384 483.601 465.41 483.936 465.449 484.271C465.545 485.514 465.489 486.765 465.281 487.994C464.9 490.061 464.242 492.068 463.323 493.959C461.716 497.241 459.741 500.331 457.437 503.169C453.146 508.561 448.283 513.472 442.934 517.816L438.942 513.642C443.065 508.746 446.86 503.582 450.302 498.184C453.509 493.031 456.458 486.951 454.681 484.014C453.714 481.099 452.57 478.247 451.255 475.473C449.967 472.626 448.499 469.766 446.992 466.932C445.485 464.098 443.875 461.303 442.265 458.494C440.655 455.686 438.967 452.891 437.344 450.224L447.133 443.912V443.783Z" fill="#CC6057"/>
<path d="M442.316 513.179L448.524 519.543L442.084 523.613C442.084 523.613 435.4 518.216 439.057 513.449L442.38 513.179H442.316Z" fill="#CC6057"/>
<path d="M448.215 524.528L442.896 530.029L442.02 523.613L448.524 519.542L448.215 524.528Z" fill="#CC6057"/>
<path d="M442.11 440.021C449.838 443.268 456.407 452.465 458.854 457.979L445.755 473.901C445.755 473.901 433.854 455.866 433.854 450.082C433.854 444.015 439.212 438.797 442.174 440.021H442.11Z" fill="#0B2B34"/>
<path d="M441.762 711.628L421.064 708.858L421.167 703.757L443.707 704.774L441.762 711.628Z" fill="#0B2B34"/>
<path d="M383.931 713.302C385.219 713.225 387.099 712.516 387.357 711.847C387.357 711.731 387.357 711.589 387.164 711.37C387.071 711.285 386.961 711.222 386.84 711.186C386.719 711.151 386.592 711.143 386.468 711.164C385.567 711.28 384.498 712.452 383.892 713.302H383.931ZM386.636 713.057C385.641 713.543 384.548 713.794 383.442 713.792L383.184 713.624V713.379C383.261 713.276 384.845 710.803 386.327 710.649C386.522 710.614 386.722 710.626 386.912 710.682C387.102 710.737 387.276 710.836 387.422 710.971C387.592 711.077 387.72 711.239 387.783 711.43C387.846 711.62 387.842 711.827 387.769 712.014C387.511 712.486 387.09 712.848 386.584 713.032L386.636 713.057Z" fill="#3273BA"/>
<path d="M438.13 724.342C440.461 724.729 442.174 724.625 442.806 724.059C442.913 723.958 442.994 723.833 443.044 723.694C443.093 723.555 443.108 723.406 443.089 723.26C443.088 723.207 443.074 723.155 443.047 723.11C443.019 723.065 442.981 723.028 442.934 723.002C442.226 722.603 439.843 723.518 438.13 724.291V724.342ZM440.616 725.076C439.507 725.053 438.403 724.923 437.319 724.69L437.113 724.484L437.241 724.239C437.705 723.981 441.878 721.856 443.153 722.564C443.275 722.627 443.379 722.721 443.453 722.836C443.528 722.951 443.571 723.084 443.578 723.221C443.611 723.444 443.587 723.67 443.511 723.882C443.435 724.093 443.307 724.282 443.14 724.432C442.385 724.945 441.472 725.173 440.564 725.076H440.616Z" fill="#3273BA"/>
<path d="M439.856 720.465C438.336 720.465 437.821 722.938 437.679 724.007C438.967 723.234 440.616 721.431 440.474 720.735C440.474 720.735 440.474 720.516 439.998 720.465H439.856ZM437.383 724.703H437.228L437.125 724.484C437.125 724.291 437.486 720.014 439.83 720.014H440.023C440.706 720.078 440.912 720.426 440.964 720.697C441.195 721.882 438.735 724.149 437.486 724.716H437.383V724.703Z" fill="#3273BA"/>
<path d="M396.927 499.111L395.175 502.873C395.047 503.169 395.407 503.466 395.909 503.478L440.719 503.994C441.105 503.994 441.414 503.826 441.427 503.582L441.633 499.807C441.633 499.537 441.299 499.318 440.874 499.305L397.61 498.802C397.478 498.788 397.346 498.809 397.226 498.863C397.106 498.918 397.003 499.003 396.927 499.111Z" fill="#3273BA"/>
<path d="M402.968 503.968H401.808C401.577 503.968 401.396 503.839 401.409 503.697L401.705 498.789C401.705 498.648 401.911 498.532 402.143 498.532H403.303C403.534 498.532 403.715 498.661 403.715 498.802L403.406 503.71C403.406 503.852 403.2 503.968 402.968 503.968Z" fill="#3273BA"/>
<path d="M402.981 503.968H401.808C401.577 503.968 401.409 503.852 401.409 503.71L401.705 498.802C401.705 498.661 401.911 498.545 402.143 498.545H403.303C403.534 498.545 403.715 498.661 403.715 498.802V498.88L403.418 503.556V503.71C403.418 503.852 403.212 503.968 402.993 503.968" fill="#184780"/>
<path d="M432.244 504.38H431.085C430.853 504.38 430.673 504.251 430.685 504.11L430.995 499.202C430.995 499.06 431.201 498.944 431.432 498.944H432.579C432.811 498.944 433.004 499.073 432.991 499.215L432.682 504.123C432.682 504.264 432.476 504.38 432.244 504.38Z" fill="#3273BA"/>
<path d="M432.257 504.38H431.085C430.866 504.38 430.685 504.264 430.685 504.123L430.995 499.215C430.995 499.073 431.188 498.957 431.42 498.957H432.579C432.811 498.957 432.991 499.073 432.991 499.215L432.695 503.904V504.123C432.695 504.264 432.489 504.38 432.27 504.38" fill="#184780"/>
<path d="M494.48 722.242L484.859 720.864L485.49 698.243L495.098 699.609L494.48 722.242Z" fill="#F9B6B6"/>
<path d="M562.113 725.218H552.414L549.993 702.739H559.704L562.113 725.218Z" fill="#F9B6B6"/>
<path d="M551.603 724.097H563.504C563.697 724.093 563.884 724.157 564.035 724.277C564.185 724.397 564.289 724.566 564.328 724.754L566.248 733.385C566.295 733.596 566.293 733.814 566.243 734.023C566.193 734.232 566.097 734.428 565.96 734.594C565.823 734.761 565.651 734.894 565.455 734.983C565.259 735.073 565.046 735.117 564.831 735.112C560.967 735.112 558.236 734.828 553.445 734.828C550.495 734.828 541.595 735.137 537.525 735.137C533.455 735.137 532.914 731.105 534.589 730.745C542.059 729.109 547.7 726.88 550.045 724.69C550.477 724.304 551.037 724.093 551.616 724.097H551.603Z" fill="#0B2B34"/>
<path d="M485.091 719.756L495.588 721.263C495.778 721.292 495.952 721.384 496.083 721.524C496.214 721.664 496.294 721.845 496.309 722.036L496.979 730.848C496.997 731.061 496.966 731.275 496.889 731.475C496.813 731.675 496.692 731.855 496.535 732.001C496.379 732.147 496.192 732.256 495.988 732.32C495.783 732.383 495.567 732.4 495.356 732.368C491.582 731.762 486.134 730.758 481.381 730.075C475.817 729.276 470.961 728.89 464.444 727.949C460.503 727.395 459.974 723.247 461.675 723.118C469.403 722.552 475.598 723.247 482.669 720.181C483.421 719.817 484.26 719.67 485.091 719.756Z" fill="#0B2B34"/>
<path d="M515.938 427.642C515.436 434.366 514.65 440.923 513.658 447.532C513.182 450.842 512.602 454.127 511.984 457.425C511.675 459.074 511.353 460.736 510.992 462.372L510.438 464.858L510.155 466.146C510.065 466.558 509.91 467.099 509.782 467.563C508.786 471.064 507.493 474.473 505.918 477.753C504.449 480.858 502.878 483.859 501.229 486.77C497.949 492.619 494.35 498.283 490.449 503.736L484.009 500.181L491.221 482.068C492.394 479.067 493.488 476.065 494.519 473.051C495.505 470.28 496.297 467.443 496.889 464.562C496.889 464.227 497.005 463.982 497.056 463.583L497.224 462.397L497.533 460.027L498.125 455.248L499.207 445.625L501.255 426.302L515.912 427.59L515.938 427.642Z" fill="#F9B6B6"/>
<path d="M508.12 417.619C499.104 419.925 494.905 451.847 494.905 451.847L517.2 455.158C517.2 455.158 519.326 446.553 522.739 434.804C524.89 427.423 519.326 414.759 508.12 417.619Z" fill="#3273BA"/>
<path d="M485.722 498.351L477.839 505.05L487.976 509.958C489.021 508.932 489.838 507.697 490.375 506.335C490.912 504.972 491.157 503.512 491.093 502.049L485.722 498.351Z" fill="#F9B6B6"/>
<path d="M473.499 511.208L482.412 514.634L487.976 509.958L477.852 505.05L473.499 511.208Z" fill="#F9B6B6"/>
<path d="M494.789 711.28H494.776L494.841 709.025H494.854L494.789 711.28Z" fill="#C3C4C4"/>
<path d="M494.776 711.28L485.168 709.914L485.232 707.647L494.841 709.025L494.776 711.28Z" fill="#D79692"/>
<path d="M560.954 714.333H560.941L560.709 712.091L560.954 714.333Z" fill="#C3C4C4"/>
<path d="M560.941 714.333H551.242L550.998 712.091H560.709L560.941 714.333Z" fill="#D79692"/>
<path d="M562.074 419.912C559.443 430.445 557.596 441.157 556.549 451.963C555.789 459.512 555.377 466.7 555.171 473.218C554.668 488.497 555.171 500.116 554.862 504.135L503.007 501.559C501.474 425.245 507.734 417.748 507.734 417.748C511.815 416.906 515.945 416.312 520.098 415.97C520.974 415.893 521.863 415.854 522.777 415.816C530.142 415.751 537.505 416.112 544.828 416.898C546.219 417.04 547.623 417.207 548.988 417.4C555.943 418.392 562.074 419.977 562.074 419.977" fill="#3273BA"/>
<path d="M518.424 415.854C519.635 421.626 531.896 461.573 555.905 474.996C556.006 475.051 556.092 475.131 556.155 475.228C556.218 475.324 556.256 475.435 556.265 475.55C556.343 476.761 556.368 478.32 556.368 479.221C556.372 479.322 556.353 479.421 556.313 479.513C556.273 479.605 556.214 479.687 556.139 479.753C556.064 479.82 555.975 479.869 555.879 479.897C555.783 479.925 555.682 479.932 555.583 479.917C552.762 479.544 542.149 476.143 527.015 451.834C519.558 439.867 514.393 421.033 513.555 417.052C513.513 416.865 513.546 416.668 513.647 416.504C513.748 416.34 513.909 416.222 514.096 416.176L517.497 415.275C517.595 415.248 517.698 415.242 517.798 415.256C517.899 415.27 517.996 415.305 518.083 415.358C518.169 415.411 518.245 415.481 518.303 415.565C518.362 415.648 518.403 415.742 518.424 415.842V415.854Z" fill="#0B2B34"/>
<path d="M520.794 437.561C522.211 440.743 515.384 454.475 524.104 468.478C532.824 482.481 540.397 470.951 549.297 476.078C538.993 464.819 520.794 437.548 520.794 437.548V437.561Z" fill="#0B2B34"/>
<path d="M540.848 473.012H540.706C524.787 465.669 522.03 443.087 522.005 442.855C521.997 442.772 522.023 442.689 522.076 442.624C522.129 442.559 522.205 442.517 522.288 442.507C522.331 442.5 522.374 442.502 522.416 442.512C522.458 442.523 522.497 442.542 522.531 442.569C522.565 442.596 522.593 442.629 522.613 442.668C522.634 442.706 522.646 442.748 522.649 442.791C522.649 443.01 525.392 465.232 540.977 472.42C541.016 472.436 541.051 472.461 541.08 472.492C541.11 472.522 541.132 472.559 541.147 472.599C541.161 472.639 541.167 472.681 541.165 472.723C541.162 472.766 541.151 472.807 541.131 472.845C541.107 472.899 541.067 472.945 541.016 472.977C540.966 473.009 540.908 473.026 540.848 473.025V473.012Z" fill="white"/>
<path d="M556.15 456.459C556.278 454.977 556.42 453.483 556.562 451.976C556.562 451.577 556.652 451.164 556.69 450.765C556.69 451.177 556.613 451.577 556.562 451.989C556.42 453.496 556.278 454.99 556.162 456.472" fill="#BABCBC"/>
<path d="M558.751 435.706V435.603L558.944 434.495C558.867 434.894 558.803 435.294 558.726 435.693" fill="#C3C4C4"/>
<path d="M556.678 450.752L556.794 449.747L556.678 450.752ZM557.051 447.39C557.515 443.525 558.069 439.583 558.738 435.603V435.706C558.069 439.648 557.45 443.564 557.051 447.39Z" fill="#ADB0B0"/>
<path d="M556.137 456.446C551.73 449.839 549.348 442.089 549.284 434.147L558.944 434.495L558.751 435.603C558.082 439.583 557.463 443.525 557.064 447.39C556.974 448.15 556.884 448.91 556.806 449.67L556.69 450.675C556.69 451.074 556.613 451.486 556.562 451.886C556.42 453.393 556.278 454.887 556.15 456.369" fill="#1F68B3"/>
<path d="M543.862 391.92C542.123 398.94 540.088 411.874 544.815 416.846C542.52 419.017 539.786 420.67 536.797 421.692C533.809 422.715 530.635 423.083 527.492 422.772C521.386 422.334 521.296 418.057 522.777 415.764C530.776 414.257 530.866 408.383 529.759 402.805L543.927 391.92" fill="#F9B6B6"/>
<path d="M530.248 406.747V406.502C530.242 406.584 530.242 406.665 530.248 406.747ZM529.771 402.792L531.729 401.285L529.771 402.792Z" fill="#C3C4C4"/>
<path d="M530.261 406.747C530.255 406.665 530.255 406.584 530.261 406.502C530.196 405.255 530.037 404.015 529.784 402.792L531.742 401.285L538.182 396.351C538.413 397.629 538.413 398.938 538.182 400.216C537.705 403.372 533.391 406.476 530.351 406.773" fill="#D79692"/>
<path d="M543.605 379.269C544.249 388.879 545.124 394.47 540.938 399.997C534.653 408.293 522.314 405.459 518.798 396.235C515.642 387.926 515.114 373.601 523.95 368.59C525.894 367.474 528.092 366.875 530.334 366.849C532.576 366.823 534.788 367.371 536.758 368.442C538.728 369.512 540.392 371.069 541.59 372.964C542.788 374.86 543.482 377.03 543.605 379.269Z" fill="#F9B6B6"/>
<path d="M527.788 394.908C528.915 394.791 529.996 394.403 530.94 393.777C531.885 393.151 532.663 392.306 533.21 391.314C533.225 391.285 533.234 391.252 533.237 391.219C533.239 391.186 533.235 391.153 533.224 391.122C533.213 391.09 533.196 391.062 533.174 391.037C533.152 391.013 533.125 390.993 533.094 390.979C533.036 390.956 532.971 390.954 532.911 390.976C532.852 390.997 532.803 391.04 532.772 391.095C532.249 392.005 531.519 392.779 530.642 393.356C529.766 393.933 528.766 394.297 527.723 394.419C527.691 394.423 527.66 394.434 527.632 394.451C527.604 394.468 527.58 394.49 527.561 394.517C527.541 394.543 527.528 394.573 527.52 394.605C527.513 394.637 527.512 394.67 527.517 394.702C527.527 394.765 527.561 394.821 527.611 394.86C527.661 394.898 527.725 394.916 527.788 394.908Z" fill="#0B2B34"/>
<path d="M534.898 372.699C535.297 376.925 538.762 381.202 538.272 383.92C538.112 385.126 537.708 386.287 537.087 387.333L543.308 388.776C543.308 388.776 561.134 369.724 547.031 366.078C540.591 353.479 513.542 349.756 507.888 360.848C501.963 372.622 518.192 375.392 518.192 375.392C518.192 375.392 524.632 370.909 534.833 372.699H534.898Z" fill="#0B2B34"/>
<path d="M549.336 389.214C548.831 390.306 548.117 391.288 547.233 392.103C546.349 392.919 545.313 393.553 544.184 393.968C541.157 395.05 539.419 392.409 540.063 389.433C540.642 386.754 542.922 382.992 546.039 383.16C546.721 383.214 547.378 383.438 547.952 383.811C548.525 384.184 548.996 384.695 549.322 385.296C549.649 385.898 549.82 386.571 549.82 387.255C549.82 387.939 549.649 388.613 549.323 389.214H549.336Z" fill="#F9B6B6"/>
<path d="M481.883 707.183L498.151 709.502C498.151 709.502 507.605 650.244 512.473 615.875C513.761 606.754 515.912 593.898 518.682 580.179C522.185 562.904 526.629 544.199 530.274 529.552C534.138 514.093 537.087 503.208 537.087 503.208L502.968 501.508C502.968 501.508 486.224 581.686 484.305 611.263C482.27 642 481.858 707.17 481.858 707.17" fill="#0B2B34"/>
<path d="M518.682 580.166C517.02 565.995 517.922 541.7 523.164 528.277C523.679 535.375 524.272 543.426 524.916 551.774C522.739 561.074 520.575 570.826 518.682 580.114" fill="#001E27"/>
<path d="M521.399 502.422C521.399 502.422 526.77 585.718 530.866 613.878C535.348 644.705 546.747 712.091 546.747 712.091H564.534C564.534 712.091 562.95 648.57 558.352 618.297C553.2 584.082 554.823 504.02 554.823 504.02L521.335 502.371" fill="#0B2B34"/>
<path d="M544.622 712.478H565.565V706.217L542.162 705.805L544.622 712.478Z" fill="#3273BA"/>
<path d="M480.814 707.402L499.181 710.03L500.959 703.589L480.016 700.562L480.814 707.402Z" fill="#3273BA"/>
<path d="M529.488 383.842C529.578 384.615 529.256 385.298 528.741 385.375C528.226 385.453 527.749 384.86 527.646 384.087C527.543 383.314 527.878 382.619 528.38 382.554C528.882 382.49 529.385 383.069 529.488 383.842Z" fill="#0B2B34"/>
<path d="M520.704 384.95C520.807 385.723 520.472 386.406 519.97 386.47C519.467 386.535 518.965 385.955 518.862 385.182C518.759 384.409 519.094 383.726 519.609 383.662C520.124 383.598 520.601 384.164 520.704 384.95Z" fill="#0B2B34"/>
<path d="M523.576 384.963C522.958 387.459 521.995 389.856 520.717 392.087C522.262 393.195 524.581 392.087 524.581 392.087L523.55 384.95L523.576 384.963Z" fill="#F4827F"/>
<path d="M531.845 380.609C531.763 380.636 531.674 380.64 531.59 380.619C531.506 380.599 531.429 380.555 531.369 380.493C530.977 380.069 530.49 379.745 529.947 379.548C529.405 379.351 528.824 379.286 528.251 379.359C528.132 379.379 528.01 379.353 527.91 379.286C527.81 379.219 527.738 379.116 527.71 378.999C527.695 378.939 527.693 378.877 527.703 378.817C527.714 378.757 527.737 378.699 527.771 378.648C527.805 378.597 527.849 378.554 527.901 378.521C527.952 378.488 528.011 378.467 528.071 378.458C528.794 378.351 529.531 378.422 530.22 378.664C530.909 378.907 531.529 379.313 532.025 379.849C532.069 379.892 532.103 379.943 532.126 380C532.15 380.056 532.162 380.116 532.162 380.177C532.162 380.239 532.15 380.299 532.126 380.355C532.103 380.412 532.069 380.463 532.025 380.506L531.845 380.609Z" fill="#0B2B34"/>
<path d="M516.556 382.413H516.26C516.146 382.369 516.053 382.283 516 382.173C515.947 382.063 515.939 381.936 515.977 381.82C516.194 381.122 516.575 380.487 517.088 379.967C517.602 379.447 518.232 379.058 518.926 378.831C518.985 378.816 519.046 378.812 519.105 378.821C519.165 378.83 519.222 378.85 519.274 378.881C519.326 378.913 519.371 378.954 519.406 379.003C519.441 379.052 519.467 379.107 519.48 379.166C519.508 379.282 519.49 379.405 519.43 379.508C519.37 379.611 519.273 379.687 519.158 379.72C518.61 379.906 518.115 380.221 517.714 380.638C517.313 381.055 517.018 381.562 516.853 382.116C516.827 382.184 516.787 382.245 516.736 382.296C516.685 382.347 516.624 382.387 516.556 382.413Z" fill="#0B2B34"/>
<path d="M546.953 723.788C546.856 723.767 546.755 723.767 546.657 723.788C546.609 723.814 546.57 723.853 546.544 723.902C546.519 723.95 546.509 724.005 546.515 724.059C546.494 724.213 546.51 724.37 546.564 724.516C546.618 724.663 546.708 724.793 546.825 724.896C547.908 725.386 549.137 725.446 550.263 725.064C549.254 724.424 548.13 723.987 546.953 723.775V723.788ZM548.396 725.798C547.734 725.848 547.075 725.671 546.528 725.295C546.354 725.149 546.22 724.962 546.136 724.75C546.053 724.539 546.024 724.31 546.052 724.085C546.054 723.951 546.09 723.82 546.158 723.705C546.226 723.59 546.322 723.494 546.438 723.428C547.52 722.874 550.65 724.806 550.998 725.025L551.113 725.257L550.933 725.45C550.09 725.66 549.226 725.777 548.357 725.798H548.396Z" fill="#3273BA"/>
<path d="M548.924 721.508H548.821C548.525 721.508 548.499 721.676 548.486 721.74C548.357 722.384 549.594 723.981 550.598 724.741C550.525 723.637 550.127 722.579 549.452 721.701C549.305 721.574 549.118 721.501 548.924 721.495V721.508ZM550.882 725.45H550.766C549.761 724.909 547.829 722.771 548.035 721.688C548.066 721.52 548.155 721.368 548.287 721.26C548.419 721.151 548.586 721.093 548.757 721.096C548.93 721.074 549.107 721.088 549.275 721.137C549.443 721.185 549.6 721.268 549.735 721.379C550.869 722.307 551.101 725.115 551.113 725.244L551.011 725.45H550.882Z" fill="#3273BA"/>
<path d="M479.024 718.635H478.96C478.912 718.652 478.87 718.681 478.838 718.719C478.807 718.758 478.786 718.805 478.779 718.854C478.743 718.987 478.739 719.127 478.768 719.261C478.797 719.396 478.858 719.522 478.947 719.627C479.462 720.246 481.033 720.555 483.21 720.516C481.768 719.55 479.758 718.442 479.024 718.622V718.635ZM483.957 720.954C482.36 721.044 479.552 721.031 478.638 719.936C478.503 719.779 478.408 719.592 478.36 719.39C478.313 719.188 478.316 718.978 478.367 718.777C478.39 718.653 478.445 718.536 478.526 718.439C478.607 718.342 478.712 718.268 478.831 718.223C480.119 717.759 483.674 720.246 484.073 720.542L484.163 720.787L483.996 720.954H483.957Z" fill="#3273BA"/>
<path d="M481.677 716.729C481.51 716.729 481.484 716.858 481.471 716.896C481.265 717.54 482.592 719.395 483.674 720.271C483.727 719.162 483.434 718.064 482.837 717.128C482.608 716.874 482.289 716.721 481.948 716.703H481.677V716.729ZM483.957 720.954H483.79C482.695 720.271 480.698 717.862 481.033 716.806C481.111 716.548 481.342 716.265 481.973 716.291C482.202 716.296 482.426 716.35 482.632 716.447C482.839 716.545 483.022 716.685 483.171 716.858C484.253 718.043 484.137 720.722 484.137 720.722L484.009 720.915L483.957 720.954Z" fill="#3273BA"/>
<path d="M563.427 425.194C564.715 426.701 565.681 428.041 566.724 429.497C567.767 430.952 568.772 432.382 569.764 433.838C571.734 436.762 573.628 439.764 575.366 442.855C579.045 449.134 582.009 455.806 584.202 462.745L584.318 463.093L584.447 463.608L584.704 464.626C584.807 465.232 584.924 465.914 584.975 466.455C585.097 467.537 585.144 468.626 585.117 469.714C585.072 471.659 584.909 473.6 584.627 475.524C584.102 479.087 583.362 482.614 582.412 486.088C580.59 492.823 578.274 499.415 575.482 505.81L568.527 503.659C569.648 497.102 570.717 490.429 571.528 483.949C571.94 480.716 572.224 477.508 572.34 474.416C572.402 472.965 572.372 471.51 572.25 470.062C572.25 469.392 572.108 468.774 572.005 468.259C572.005 468.001 571.889 467.808 571.837 467.589L571.747 467.383V467.28L571.644 467.035C570.474 464.162 569.158 461.35 567.703 458.61C566.183 455.828 564.577 453.062 562.886 450.314C561.16 447.596 559.382 444.878 557.541 442.198C556.626 440.91 555.699 439.519 554.746 438.205L551.951 434.34L563.465 425.181L563.427 425.194Z" fill="#F9B6B6"/>
<path d="M562.074 419.912C571.219 421.561 579.643 443.654 579.643 443.654L560.928 459.512C560.928 459.512 554.488 448.317 549.336 437.509C543.669 425.722 551.023 417.916 562.087 419.912H562.074Z" fill="#3273BA"/>
<path d="M569.506 501.714L563.066 509.211L575.096 512.663C575.096 512.663 579.127 505.076 575.341 502.487L569.558 501.778L569.506 501.714Z" fill="#F9B6B6"/>
<path d="M562.718 517.314L572.713 519.658L575.044 512.599L563.118 509.211L562.718 517.314Z" fill="#F9B6B6"/>
<path d="M360.309 589.183C360.39 590.582 360.101 591.977 359.472 593.228C358.856 594.452 358.071 595.584 357.141 596.59C355.279 598.467 353.189 600.103 350.92 601.46C346.47 604.067 341.771 606.225 336.893 607.901C327.242 611.224 317.334 613.749 307.269 615.45C287.301 618.884 267.071 620.565 246.811 620.474C226.524 620.568 206.268 618.887 186.275 615.45C176.21 613.749 166.302 611.224 156.651 607.901C151.774 606.223 147.075 604.065 142.624 601.46C140.355 600.103 138.265 598.467 136.403 596.59C135.473 595.584 134.688 594.452 134.072 593.228C133.442 591.977 133.154 590.582 133.235 589.183C133.236 589.099 133.255 589.016 133.289 588.94C133.323 588.863 133.372 588.793 133.433 588.736C133.494 588.678 133.566 588.633 133.645 588.604C133.724 588.575 133.808 588.561 133.892 588.565C134.042 588.566 134.187 588.622 134.301 588.721C134.414 588.82 134.488 588.957 134.51 589.106V589.183C134.953 591.429 136.263 593.409 138.155 594.697C140.061 596.119 142.133 597.304 144.324 598.226C148.814 600.13 153.465 601.626 158.222 602.696C162.987 603.869 167.83 604.809 172.699 605.582C177.568 606.355 182.449 607.076 187.369 607.605C207.07 609.694 226.87 610.709 246.682 610.645C266.472 610.707 286.25 609.692 305.93 607.605C310.85 607.076 315.731 606.316 320.6 605.582C325.469 604.848 330.312 603.869 335.077 602.696C339.835 601.63 344.487 600.134 348.975 598.226C351.168 597.307 353.24 596.121 355.144 594.697C357.036 593.409 358.346 591.429 358.789 589.183V589.106C358.802 589.022 358.831 588.942 358.875 588.869C358.918 588.796 358.976 588.733 359.044 588.683C359.112 588.633 359.19 588.596 359.272 588.576C359.354 588.556 359.44 588.552 359.523 588.565C359.673 588.586 359.809 588.661 359.908 588.774C360.008 588.887 360.063 589.032 360.064 589.183" fill="#3273BA"/>
<path d="M246.862 620.525H243.719H241.71C239.405 620.525 237.086 620.448 234.768 620.371H234.433C223.356 620.023 212.279 619.224 201.267 617.794C196.295 617.159 191.336 616.403 186.39 615.527C182.179 614.78 177.993 613.93 173.82 612.951C168.069 611.597 162.394 609.941 156.818 607.991C151.941 606.313 147.243 604.155 142.792 601.55C141.067 600.495 139.434 599.297 137.91 597.969V594.439L138.335 594.787C140.241 596.209 142.313 597.394 144.505 598.317C148.994 600.22 153.645 601.716 158.402 602.787C163.168 603.959 168.011 604.899 172.879 605.672C177.748 606.445 182.629 607.167 187.55 607.695C207.251 609.784 227.051 610.799 246.862 610.735C266.652 610.797 286.431 609.782 306.11 607.695C311.03 607.167 315.912 606.407 320.78 605.672C325.649 604.938 330.492 603.959 335.258 602.787C340.016 601.72 344.667 600.224 349.155 598.317C351.348 597.397 353.42 596.211 355.325 594.787C355.698 594.503 356.059 594.194 356.406 593.872V597.376C354.703 598.947 352.848 600.345 350.868 601.55C346.418 604.158 341.72 606.315 336.842 607.991C332.548 609.511 328.178 610.842 323.73 611.984C318.282 613.401 312.795 614.561 307.269 615.54C304.487 616.042 301.705 616.493 298.91 616.918C295.475 617.434 292.006 617.889 288.503 618.284C280.08 619.237 271.618 619.855 263.155 620.203C257.707 620.435 252.259 620.538 246.811 620.564" fill="#8AB3DF"/>
<path d="M586.585 589.183C586.666 590.582 586.377 591.977 585.748 593.228C585.132 594.452 584.347 595.584 583.416 596.59C581.555 598.467 579.465 600.103 577.195 601.46C572.746 604.067 568.047 606.225 563.169 607.901C553.518 611.224 543.61 613.748 533.545 615.45C513.552 618.888 493.296 620.569 473.009 620.474C452.748 620.565 432.518 618.884 412.55 615.45C402.486 613.748 392.578 611.224 382.926 607.901C378.049 606.225 373.35 604.067 368.9 601.46C366.631 600.103 364.541 598.467 362.679 596.59C361.748 595.584 360.964 594.452 360.348 593.228C359.718 591.977 359.43 590.582 359.511 589.183C359.512 589.099 359.531 589.016 359.565 588.94C359.599 588.863 359.648 588.793 359.709 588.736C359.77 588.678 359.842 588.633 359.921 588.604C360 588.575 360.083 588.561 360.167 588.565C360.317 588.569 360.461 588.625 360.574 588.724C360.687 588.823 360.762 588.958 360.786 589.106V589.183C361.229 591.429 362.538 593.409 364.431 594.697C366.335 596.121 368.407 597.307 370.6 598.226C375.089 600.132 379.74 601.628 384.498 602.696C389.263 603.869 394.093 604.809 398.975 605.582C403.856 606.355 408.725 607.076 413.645 607.605C433.325 609.692 453.103 610.707 472.893 610.645C492.705 610.709 512.505 609.694 532.206 607.605C537.126 607.076 542.007 606.316 546.876 605.582C551.745 604.848 556.587 603.869 561.353 602.696C566.11 601.626 570.761 600.13 575.251 598.226C577.444 597.307 579.516 596.121 581.42 594.697C583.312 593.409 584.622 591.429 585.065 589.183V589.106C585.091 588.939 585.18 588.789 585.315 588.688C585.45 588.587 585.619 588.543 585.786 588.565C585.938 588.583 586.077 588.656 586.179 588.77C586.281 588.884 586.338 589.031 586.34 589.183" fill="#3273BA"/>
<path d="M473.125 620.525C466.453 620.525 459.781 620.345 453.11 619.997C444.57 619.572 436.043 618.851 427.543 617.769C423.06 617.202 418.527 616.48 414.122 615.759L412.666 615.501C404.712 614.126 396.85 612.267 389.122 609.936C387.104 609.318 385.095 608.657 383.094 607.952C379.631 606.71 376.242 605.269 372.944 603.637C371.656 602.967 370.368 602.246 369.08 601.46C367.1 600.258 365.248 598.855 363.555 597.273V593.821C363.893 594.146 364.25 594.451 364.624 594.735C366.528 596.16 368.6 597.345 370.793 598.265C375.282 600.17 379.933 601.667 384.691 602.735C389.457 603.907 394.287 604.848 399.168 605.621C404.05 606.394 408.918 607.115 413.838 607.643C433.518 609.731 453.297 610.746 473.086 610.683C492.898 610.748 512.698 609.733 532.399 607.643C537.319 607.115 542.2 606.355 547.069 605.621C551.938 604.886 556.781 603.907 561.546 602.735C566.303 601.665 570.955 600.169 575.444 598.265C577.637 597.345 579.709 596.16 581.613 594.735L582.038 594.387V597.917C580.514 599.245 578.881 600.443 577.157 601.498C572.707 604.106 568.008 606.264 563.13 607.939C561.198 608.622 559.267 609.228 557.296 609.872C549.507 612.232 541.579 614.108 533.558 615.488L531.124 615.914C524.787 616.996 518.433 617.854 512.061 618.49C502.659 619.482 493.218 620.062 483.79 620.306C480.218 620.409 476.65 620.465 473.086 620.474" fill="#8AB3DF"/>
<path d="M137.923 546.878H130.839V736.464H137.923V546.878Z" fill="#3273BA"/>
<path d="M137.949 733.81H130.736C130.487 733.81 130.241 733.86 130.011 733.955C129.782 734.05 129.573 734.189 129.397 734.365C129.221 734.541 129.082 734.75 128.987 734.979C128.892 735.209 128.843 735.456 128.843 735.704V736.464H139.791V735.704C139.791 735.456 139.742 735.209 139.647 734.979C139.551 734.75 139.412 734.541 139.236 734.365C139.06 734.189 138.852 734.05 138.622 733.955C138.392 733.86 138.146 733.81 137.897 733.81H137.949Z" fill="#3273BA"/>
<path d="M138.451 587.058H130.298V591.309H138.451V587.058Z" fill="#3273BA"/>
<path d="M137.923 592.288H130.839V591.309H137.923V592.288Z" fill="#0A61AE"/>
<path d="M140.293 544.366C140.293 545.938 139.669 547.445 138.558 548.556C137.446 549.668 135.939 550.292 134.368 550.292C132.797 550.292 131.29 549.668 130.179 548.556C129.068 547.445 128.443 545.938 128.443 544.366C128.447 542.797 129.072 541.293 130.183 540.184C131.294 539.076 132.799 538.453 134.368 538.453C135.937 538.453 137.442 539.076 138.553 540.184C139.664 541.293 140.29 542.797 140.293 544.366Z" fill="#3273BA"/>
<path d="M589.174 546.878H582.09V736.464H589.174V546.878Z" fill="#3273BA"/>
<path d="M589.264 733.81H582.103C581.854 733.81 581.608 733.86 581.378 733.955C581.148 734.05 580.94 734.189 580.764 734.365C580.588 734.541 580.449 734.75 580.353 734.979C580.258 735.209 580.209 735.456 580.209 735.704V736.464H591.157V735.704C591.157 735.456 591.108 735.209 591.013 734.979C590.918 734.75 590.779 734.541 590.603 734.365C590.427 734.189 590.218 734.05 589.989 733.955C589.759 733.86 589.513 733.81 589.264 733.81Z" fill="#3273BA"/>
<path d="M589.702 587.058H581.549V591.309H589.702V587.058Z" fill="#3273BA"/>
<path d="M589.174 592.288H582.09V591.309H589.174V592.288Z" fill="#0A61AE"/>
<path d="M591.544 544.366C591.544 545.938 590.92 547.445 589.808 548.556C588.697 549.668 587.19 550.292 585.619 550.292C584.048 550.292 582.541 549.668 581.43 548.556C580.318 547.445 579.694 545.938 579.694 544.366C579.698 542.797 580.323 541.293 581.434 540.184C582.545 539.076 584.05 538.453 585.619 538.453C587.188 538.453 588.693 539.076 589.804 540.184C590.915 541.293 591.54 542.797 591.544 544.366Z" fill="#3273BA"/>
<path d="M363.542 546.878H356.458V736.464H363.542V546.878Z" fill="#3273BA"/>
<path d="M363.568 733.81H356.419C356.171 733.81 355.925 733.859 355.695 733.955C355.465 734.05 355.256 734.189 355.081 734.365C354.905 734.541 354.765 734.75 354.67 734.979C354.575 735.209 354.526 735.455 354.526 735.704V736.464H365.474V735.704C365.474 735.454 365.425 735.207 365.329 734.976C365.233 734.746 365.092 734.537 364.915 734.361C364.738 734.184 364.527 734.045 364.296 733.951C364.065 733.856 363.818 733.809 363.568 733.81Z" fill="#3273BA"/>
<path d="M364.083 587.058H355.917V591.309H364.083V587.058Z" fill="#3273BA"/>
<path d="M363.542 592.288H356.458V591.309H363.542V592.288Z" fill="#0A61AE"/>
<path d="M365.912 544.366C365.912 545.936 365.289 547.441 364.181 548.552C363.073 549.663 361.569 550.289 360 550.292C358.429 550.292 356.922 549.668 355.811 548.556C354.699 547.445 354.075 545.938 354.075 544.366C354.074 543.587 354.226 542.815 354.523 542.095C354.82 541.374 355.256 540.719 355.806 540.168C356.356 539.616 357.01 539.179 357.73 538.88C358.449 538.581 359.221 538.428 360 538.428C361.567 538.431 363.069 539.055 364.177 540.163C365.285 541.271 365.908 542.773 365.912 544.341V544.366Z" fill="#3273BA"/>
</g>
</g>
<defs>
<linearGradient id="paint0_linear_10:1660" x1="473.5" y1="512" x2="-1.4178e-05" y2="512" gradientUnits="userSpaceOnUse">
<stop offset="0.609728" stop-color="#EFF6FF"/>
<stop offset="1" stop-color="#EFF6FF" stop-opacity="0"/>
</linearGradient>
<linearGradient id="paint1_linear_10:1660" x1="962.708" y1="770.721" x2="524.978" y2="299.273" gradientUnits="userSpaceOnUse">
<stop stop-color="#DAE3FE" stop-opacity="0.01"/>
<stop offset="1" stop-color="#E9EFFD" stop-opacity="0.58"/>
</linearGradient>
<linearGradient id="paint2_linear_10:1660" x1="909.708" y1="1186.72" x2="471.978" y2="715.273" gradientUnits="userSpaceOnUse">
<stop stop-color="#DAE3FE" stop-opacity="0.01"/>
<stop offset="1" stop-color="#E9EFFD" stop-opacity="0.58"/>
</linearGradient>
<clipPath id="clip0_10:1660">
<rect width="720" height="1024" fill="white"/>
</clipPath>
<clipPath id="clip1_10:1660">
<rect width="644" height="480" fill="white" transform="translate(38 272)"/>
</clipPath>
</defs>
</svg>
