<svg width="720" height="1024" viewBox="0 0 720 1024" fill="none" xmlns="http://www.w3.org/2000/svg">
<g clip-path="url(#clip0_31:849)">
<rect width="720" height="1024" fill="url(#paint0_linear_31:849)"/>
<path d="M902.14 501.415C842.067 641.846 683.491 702.165 559.246 691.88C525.323 689.073 457.066 683.422 403.772 633.019C301.421 536.219 317.184 333.881 415.162 214.756C427.78 199.415 515.116 96.6337 651.214 98.0138C750.857 99.02 820.796 155.314 829.3 162.319C840.044 171.178 863.739 192.228 885.093 225.63C935.27 304.11 939.672 413.662 902.14 501.415Z" fill="url(#paint1_linear_31:849)"/>
<path d="M576.758 308.562C530.259 417.366 407.517 464.101 311.347 456.132C285.09 453.957 232.257 449.579 191.005 410.527C111.783 335.528 123.984 178.758 199.822 86.4615C209.588 74.5752 277.189 -5.05862 382.534 -3.98933C459.66 -3.20971 513.795 40.406 520.377 45.8335C528.693 52.6978 547.034 69.007 563.562 94.8867C602.401 155.692 605.809 240.571 576.758 308.562Z" fill="url(#paint2_linear_31:849)"/>
<g clip-path="url(#clip1_31:849)">
<path d="M720 725.854H110V726.16H720V725.854Z" fill="#EBEBEB"/>
<path d="M310.8 744.684H270.393V744.989H310.8V744.684Z" fill="#EBEBEB"/>
<path d="M425.785 741.375H415.183V741.68H425.785V741.375Z" fill="#EBEBEB"/>
<path d="M197.413 736.222H174.001V736.527H197.413V736.222Z" fill="#EBEBEB"/>
<path d="M617.252 734.17H585.434V734.475H617.252V734.17Z" fill="#EBEBEB"/>
<path d="M574.564 734.17H545.967V734.475H574.564V734.17Z" fill="#EBEBEB"/>
<path d="M658.89 748.824H544.601V749.129H658.89V748.824Z" fill="#EBEBEB"/>
<path d="M399.164 671.393H163.582C161.735 671.393 159.963 670.658 158.657 669.35C157.35 668.043 156.616 666.269 156.616 664.42V332.924C156.616 331.074 157.35 329.301 158.657 327.993C159.963 326.686 161.735 325.951 163.582 325.951H399.164C401.01 325.954 402.779 326.69 404.082 327.998C405.386 329.305 406.119 331.077 406.119 332.924V664.371C406.119 666.218 405.386 667.99 404.082 669.297C402.779 670.605 401.01 671.341 399.164 671.344V671.393ZM163.582 326.256C161.817 326.26 160.124 326.963 158.876 328.213C157.627 329.462 156.925 331.156 156.921 332.924V664.371C156.925 666.139 157.627 667.833 158.876 669.082C160.124 670.332 161.817 671.035 163.582 671.039H399.164C400.929 671.035 402.62 670.331 403.867 669.081C405.113 667.831 405.814 666.137 405.814 664.371V332.924C405.814 331.158 405.113 329.463 403.867 328.213C402.62 326.963 400.929 326.26 399.164 326.256H163.582Z" fill="#EBEBEB"/>
<path d="M663.038 671.393H427.469C425.621 671.393 423.849 670.658 422.543 669.35C421.236 668.043 420.502 666.269 420.502 664.42V332.924C420.502 331.074 421.236 329.301 422.543 327.993C423.849 326.686 425.621 325.951 427.469 325.951H663.038C664.886 325.951 666.658 326.686 667.964 327.993C669.27 329.301 670.004 331.074 670.004 332.924V664.371C670.004 666.22 669.27 667.994 667.964 669.302C666.658 670.609 664.886 671.344 663.038 671.344V671.393ZM427.469 326.256C425.703 326.26 424.01 326.963 422.762 328.213C421.513 329.462 420.81 331.156 420.807 332.924V664.371C420.81 666.139 421.513 667.833 422.762 669.082C424.01 670.332 425.703 671.035 427.469 671.039H663.038C664.804 671.035 666.496 670.332 667.745 669.082C668.993 667.833 669.696 666.139 669.699 664.371V332.924C669.696 331.156 668.993 329.462 667.745 328.213C666.496 326.963 664.804 326.26 663.038 326.256H427.469Z" fill="#EBEBEB"/>
<path d="M553.263 465.403H589.228L584.983 378.813H553.263V465.403Z" fill="#F4F4F4"/>
<path d="M625.035 478.725L632.794 502.94H625.035L577.492 478.725H625.035Z" fill="#F4F4F4"/>
<path d="M632.794 478.725V502.94L585.251 478.725H632.794Z" fill="#B3C8E8"/>
<path d="M417.757 478.725L425.516 502.94H417.757L370.214 478.725H417.757Z" fill="#F4F4F4"/>
<path d="M425.516 478.725V502.94L377.973 478.725H425.516Z" fill="#E6E6E6"/>
<path d="M646.666 465.537H615.983V479.726H646.666V465.537Z" fill="#ABC1E0"/>
<path d="M615.983 465.537H358.929V479.726H615.983V465.537Z" fill="#BFD4F2"/>
<path d="M447.464 465.403H577.626L587.166 360.472H457.005L447.464 465.403Z" fill="#E6E6E6"/>
<path d="M443.463 465.403H573.624L583.177 360.472H453.003L443.463 465.403Z" fill="#D5E5FC"/>
<path d="M567.146 453.79L575.881 372.085H459.493L450.758 453.79H567.146Z" fill="#E2EAF7"/>
<path d="M645.08 571.676H614.787V719.077H645.08V571.676Z" fill="#ABC1E0"/>
<path d="M637.077 719.077H428.481V725.854H637.077V719.077Z" fill="#EFEFEF"/>
<path d="M614.787 571.676H420.49V719.077H614.787V571.676Z" fill="#D7E3F7"/>
<path d="M598.415 624.954H436.85V660.024H598.415V624.954Z" fill="#E2EAF7"/>
<path d="M598.415 670.843H436.85V705.914H598.415V670.843Z" fill="#E2EAF7"/>
<path d="M479.074 627.359H556.203C556.85 627.359 557.471 627.102 557.928 626.644C558.386 626.186 558.643 625.565 558.643 624.917C558.643 624.269 558.386 623.648 557.928 623.19C557.471 622.732 556.85 622.475 556.203 622.475H479.074C478.427 622.475 477.807 622.732 477.349 623.19C476.892 623.648 476.634 624.269 476.634 624.917C476.634 625.565 476.892 626.186 477.349 626.644C477.807 627.102 478.427 627.359 479.074 627.359Z" fill="#F4F4F4"/>
<path d="M479.074 673.249H556.203C556.85 673.249 557.471 672.991 557.928 672.533C558.386 672.075 558.643 671.454 558.643 670.807C558.643 670.159 558.386 669.538 557.928 669.08C557.471 668.622 556.85 668.364 556.203 668.364H479.074C478.427 668.364 477.807 668.622 477.349 669.08C476.892 669.538 476.634 670.159 476.634 670.807C476.634 671.454 476.892 672.075 477.349 672.533C477.807 672.991 478.427 673.249 479.074 673.249Z" fill="#F4F4F4"/>
<path d="M598.415 579.052H436.85V614.122H598.415V579.052Z" fill="#E2EAF7"/>
<path d="M479.074 581.457H556.203C556.85 581.457 557.471 581.2 557.928 580.742C558.386 580.284 558.643 579.663 558.643 579.015C558.643 578.368 558.386 577.746 557.928 577.288C557.471 576.83 556.85 576.573 556.203 576.573H479.074C478.427 576.573 477.807 576.83 477.349 577.288C476.892 577.746 476.634 578.368 476.634 579.015C476.634 579.663 476.892 580.284 477.349 580.742C477.807 581.2 478.427 581.457 479.074 581.457Z" fill="#F4F4F4"/>
<path d="M364.297 371.89H200.524V706.5H364.297V371.89Z" fill="#E6E6E6"/>
<path d="M363.418 371.89H194.326V706.5H363.418V371.89Z" fill="#D5E5FC"/>
<path d="M364.297 706.5H200.524V712.263H364.297V706.5Z" fill="#E6E6E6"/>
<path d="M353.097 706.5H184.005V712.263H353.097V706.5Z" fill="#BFD4F2"/>
<path d="M354.744 380.572H203.001V697.818H354.744V380.572Z" fill="#E2ECFA"/>
<path d="M266.929 697.818L280.824 380.572H304.858L290.963 697.818H266.929Z" fill="#F2F7FF"/>
<path d="M350.743 476.014C350.918 476.011 351.086 475.939 351.209 475.813C351.332 475.688 351.401 475.519 351.401 475.342V386.201C351.401 386.025 351.332 385.856 351.209 385.73C351.086 385.605 350.918 385.533 350.743 385.529C350.654 385.529 350.567 385.547 350.486 385.581C350.404 385.614 350.33 385.664 350.268 385.726C350.206 385.788 350.156 385.862 350.123 385.944C350.089 386.025 350.071 386.113 350.071 386.201V475.342C350.071 475.431 350.089 475.518 350.123 475.599C350.156 475.681 350.206 475.755 350.268 475.817C350.33 475.88 350.404 475.929 350.486 475.963C350.567 475.997 350.654 476.014 350.743 476.014Z" fill="#EFEFEF"/>
<path d="M296.123 697.818L310.019 380.572H319.389L305.505 697.818H296.123Z" fill="#F2F7FF"/>
<path d="M204.099 380.572H203.001V697.818H204.099V380.572Z" fill="#E6E6E6"/>
<g opacity="0.5">
<g opacity="0.5">
<path opacity="0.5" d="M192.277 391.904H358.075L358.868 383.954H193.082L192.277 391.904Z" fill="#E0E0E0"/>
</g>
</g>
<g opacity="0.5">
<g opacity="0.5">
<path opacity="0.5" d="M192.277 404.982H358.075L358.868 397.032H193.082L192.277 404.982Z" fill="#E0E0E0"/>
</g>
</g>
<g opacity="0.5">
<g opacity="0.5">
<path opacity="0.5" d="M192.277 418.072H358.075L358.868 410.11H193.082L192.277 418.072Z" fill="#E0E0E0"/>
</g>
</g>
<g opacity="0.5">
<g opacity="0.5">
<path opacity="0.5" d="M192.277 431.15H358.075L358.868 423.189H193.082L192.277 431.15Z" fill="#E0E0E0"/>
</g>
</g>
<g opacity="0.5">
<g opacity="0.5">
<path opacity="0.5" d="M192.277 444.228H358.075L358.868 436.267H193.082L192.277 444.228Z" fill="#E0E0E0"/>
</g>
</g>
<g opacity="0.5">
<g opacity="0.5">
<path opacity="0.5" d="M192.277 457.307H358.075L358.868 449.357H193.082L192.277 457.307Z" fill="#E0E0E0"/>
</g>
</g>
<path d="M651.521 767.177C651.521 774.809 545.626 781 414.976 781C284.326 781 178.43 774.809 178.43 767.177C178.43 759.545 284.338 753.342 414.976 753.342C545.613 753.342 651.521 759.533 651.521 767.177Z" fill="#D5E2F2"/>
<path d="M549.041 409.402C549.406 409.077 549.669 408.653 549.798 408.181C549.985 407.507 549.898 406.787 549.555 406.178C549.211 405.569 548.641 405.121 547.968 404.933C547.295 404.749 546.577 404.84 545.971 405.186C545.365 405.532 544.92 406.104 544.735 406.777C544.629 407.138 544.608 407.518 544.674 407.888C544.32 407.91 543.969 407.963 543.625 408.047C543.299 407.316 542.809 406.67 542.193 406.16C541.578 405.649 540.852 405.288 540.074 405.104C539.869 405.063 539.661 405.035 539.452 405.018C539.52 404.726 539.553 404.427 539.55 404.127C540.404 403.798 541.165 403.264 541.765 402.572C542.365 401.88 542.785 401.051 542.99 400.158C543.184 399.333 543.186 398.475 542.995 397.649C542.805 396.823 542.427 396.053 541.892 395.396C542.659 395.043 543.335 394.519 543.87 393.866C544.405 393.212 544.784 392.445 544.979 391.623C545.145 390.91 545.17 390.171 545.051 389.449C544.931 388.727 544.671 388.035 544.285 387.413C543.899 386.792 543.394 386.253 542.799 385.827C542.204 385.401 541.531 385.096 540.819 384.931C540.358 384.831 539.887 384.789 539.416 384.809C539.367 383.283 538.818 381.816 537.851 380.635C536.885 379.454 535.557 378.625 534.072 378.276C533.787 378.215 533.497 378.179 533.206 378.166C532.986 377.231 532.51 376.375 531.831 375.695C531.152 375.016 530.298 374.539 529.363 374.32C528.703 374.166 528.018 374.145 527.35 374.258C526.413 372.995 525.061 372.104 523.531 371.743C522.643 371.535 521.722 371.512 520.824 371.674C519.926 371.835 519.07 372.179 518.31 372.683C517.415 372.265 516.443 372.036 515.455 372.012C514.054 371.99 512.678 372.385 511.502 373.147C510.373 372.431 509.069 372.039 507.732 372.012C505.949 371.975 504.213 372.592 502.852 373.746C502.153 373.583 501.428 373.559 500.72 373.677C500.011 373.794 499.333 374.05 498.724 374.43C498.114 374.81 497.585 375.306 497.168 375.891C496.75 376.475 496.451 377.136 496.289 377.836C496.145 378.469 496.116 379.123 496.203 379.766C495.295 379.643 494.373 379.866 493.621 380.39C492.869 380.915 492.34 381.703 492.141 382.599C491.999 383.216 492.02 383.86 492.202 384.467C490.501 385.135 489.038 386.294 487.998 387.796C486.957 389.299 486.387 391.077 486.358 392.905C486.333 394.247 486.608 395.578 487.163 396.8C486.834 397.188 486.6 397.648 486.48 398.143C486.323 398.823 486.386 399.535 486.66 400.176C486.935 400.817 487.405 401.354 488.005 401.709C487.515 402.42 487.159 403.214 486.956 404.054C486.636 405.426 486.743 406.862 487.262 408.172C487.781 409.481 488.687 410.601 489.859 411.38C489.667 412.018 489.636 412.694 489.771 413.346C489.905 413.999 490.2 414.607 490.628 415.117C491.273 415.884 492.184 416.377 493.178 416.497C493.077 417.218 493.128 417.952 493.328 418.653C493.528 419.353 493.871 420.004 494.337 420.563C495.087 421.441 496.109 422.042 497.24 422.273C497.312 423.01 497.606 423.708 498.082 424.275C498.565 424.846 499.211 425.254 499.933 425.446C500.655 425.638 501.418 425.605 502.12 425.35V425.423C502.749 426.158 503.633 426.627 504.593 426.733C505.554 426.84 506.519 426.577 507.293 425.997C508.526 426.943 510.046 427.439 511.6 427.401C513.153 427.363 514.647 426.795 515.833 425.79C516.679 425.074 517.338 424.163 517.752 423.135C518.167 422.108 518.325 420.994 518.212 419.892C518.273 419.977 518.322 420.063 518.383 420.136C518.82 420.662 519.357 421.095 519.963 421.412C520.569 421.728 521.232 421.921 521.913 421.979C522.594 422.037 523.28 421.959 523.93 421.749C524.581 421.54 525.183 421.203 525.703 420.759L531.803 416.411C532.602 416.595 533.44 416.515 534.19 416.183C534.94 415.85 535.562 415.284 535.963 414.567C536.498 414.937 537.098 415.203 537.732 415.349C538.241 415.46 538.763 415.493 539.281 415.447C539.281 415.642 539.379 415.825 539.44 416.008C539.057 416.461 538.775 416.99 538.61 417.559C538.322 418.613 538.464 419.739 539.003 420.689C539.543 421.639 540.437 422.336 541.49 422.627C542.023 422.775 542.58 422.815 543.128 422.743C543.677 422.671 544.205 422.49 544.682 422.21C545.159 421.929 545.574 421.556 545.904 421.111C546.234 420.667 546.471 420.161 546.601 419.623C547.624 419.369 548.561 418.847 549.315 418.111C550.07 417.375 550.615 416.451 550.896 415.435C551.202 414.352 551.198 413.205 550.883 412.125C550.568 411.045 549.955 410.076 549.115 409.329" fill="#1A2E35"/>
<path d="M525.434 531.16C525.434 531.16 517.907 585.463 511.221 621.107C504.158 658.559 477.769 743.011 476.634 745.539L486.602 749.947C486.602 749.947 531.486 678.683 532.535 634.637C550.03 607.772 559.936 577.245 563.035 559.856C566.927 537.876 558.155 518.265 558.155 518.265L525.434 531.16Z" fill="#1A2E35"/>
<g opacity="0.2">
<g opacity="0.2">
<path opacity="0.2" d="M553.616 555.448C553.616 555.545 553.543 555.655 553.494 555.765C549.7 563.715 547.711 577.88 547.711 591.178C547.698 595.769 547.963 600.356 548.505 604.915C553.672 593.365 557.847 581.396 560.985 569.136L553.616 555.448Z" fill="black"/>
</g>
</g>
<path d="M470.425 756.248C470.425 756.248 473.182 754.258 476.598 745.551C476.598 745.551 482.759 746.04 486.565 749.959C483.845 755.833 480.697 761.084 480.697 761.084L470.425 756.248Z" fill="#903C38"/>
<path d="M482.905 757.713L471.218 753.036C470.973 752.951 470.706 752.951 470.461 753.036C468.778 753.562 460.701 754.148 451.051 751.437L449.428 753.146C458.314 759.114 468.005 763.781 478.208 767.006C478.584 767.16 478.99 767.228 479.396 767.207C479.801 767.185 480.197 767.074 480.555 766.882C480.913 766.689 481.224 766.42 481.466 766.093C481.707 765.766 481.874 765.39 481.954 764.991C482.317 763.04 482.848 761.124 483.54 759.264C483.641 758.978 483.632 758.664 483.515 758.384C483.397 758.104 483.18 757.878 482.905 757.75" fill="#007CFF"/>
<path d="M469.619 485.429L467.765 482.865C466.743 481.456 465.394 480.318 463.833 479.55C462.273 478.782 460.549 478.406 458.81 478.456C458.035 478.476 457.285 478.732 456.659 479.19C456.033 479.649 455.562 480.287 455.309 481.021L453.784 485.368C453.465 486.277 453.5 487.274 453.882 488.159C454.264 489.043 454.965 489.752 455.846 490.142L457.907 491.046C457.907 491.046 464.715 495.039 470.534 494.441L470.961 492.89C471.304 491.628 471.36 490.305 471.126 489.018C470.892 487.731 470.373 486.513 469.607 485.453" fill="#903C38"/>
<path d="M520.981 469.029L521.055 470.006V470.8V472.339C521.055 473.352 521.055 474.353 521.055 475.342C520.981 477.321 520.798 479.287 520.53 481.253C519.998 485.208 519.078 489.102 517.785 492.878C515.164 500.779 510.54 507.864 504.365 513.441L503.767 513.966L503.474 514.223L503.328 514.345L502.962 514.65C501.846 515.549 500.565 516.221 499.192 516.628C497.173 517.221 495.038 517.297 492.982 516.848C490.522 516.271 488.173 515.293 486.028 513.954C482.726 511.894 479.64 509.505 476.817 506.823C474.121 504.295 471.62 501.706 469.253 499.02C466.887 496.333 464.642 493.61 462.507 490.631C462.168 490.166 461.924 489.639 461.79 489.079C461.656 488.52 461.634 487.939 461.726 487.371C461.818 486.803 462.022 486.26 462.326 485.771C462.629 485.282 463.026 484.859 463.495 484.525C464.238 483.98 465.135 483.685 466.057 483.685C466.978 483.685 467.876 483.98 468.619 484.525L468.716 484.599C474.097 488.653 479.538 492.853 484.967 496.407C487.479 498.125 490.127 499.637 492.885 500.925C493.726 501.354 494.641 501.619 495.581 501.706C495.678 501.706 495.459 501.523 494.495 501.706C493.949 501.863 493.436 502.12 492.982 502.464L492.897 502.537L492.982 502.439L493.153 502.256L493.507 501.877C495.364 499.866 496.962 497.631 498.265 495.222C499.592 492.728 500.663 490.106 501.461 487.395C502.276 484.597 502.868 481.739 503.23 478.847C503.413 477.382 503.535 475.904 503.621 474.427C503.621 473.694 503.682 472.961 503.694 472.241V469.664C503.679 468.528 503.889 467.4 504.31 466.345C504.732 465.289 505.357 464.328 506.15 463.514C506.944 462.701 507.889 462.052 508.933 461.605C509.977 461.158 511.099 460.922 512.234 460.909C514.433 460.887 516.559 461.702 518.181 463.189C519.802 464.676 520.799 466.725 520.969 468.919" fill="#903C38"/>
<path d="M571.929 515.7C571.929 515.7 584.263 523.821 588.814 545.679C592.4 562.945 590.033 589.431 586.63 625.466C606.638 661.465 589.496 748.469 589.496 748.469H578.626C578.736 745.698 568.012 661.208 560.656 623.818C553.641 588.21 535.134 520.438 535.134 520.438L571.929 515.7Z" fill="#1A2E35"/>
<path d="M576.857 760.314C576.857 760.314 578.675 757.445 578.614 748.103C578.614 748.103 585.129 746.455 589.496 748.494C589.155 754.941 588.63 761.193 588.63 761.193L576.857 760.314Z" fill="#903C38"/>
<path d="M589.46 756.834H576.882C576.622 756.837 576.37 756.922 576.162 757.078C570.381 760.787 563.986 763.434 557.276 764.894L556.654 767.177H588.545C588.951 767.177 589.351 767.087 589.719 766.914C590.086 766.742 590.411 766.49 590.671 766.178C590.93 765.866 591.118 765.5 591.221 765.108C591.324 764.715 591.339 764.304 591.266 763.904C590.878 761.957 590.662 759.979 590.619 757.994C590.619 757.681 590.499 757.379 590.283 757.152C590.068 756.924 589.773 756.789 589.46 756.773" fill="#007CFF"/>
<path d="M504.878 474.939C506.098 479.616 500.925 492.096 511.441 496.48C514.528 505.785 517.944 516.824 525.434 531.16L571.929 515.7C563.986 499.716 563.986 491.278 563.938 459.529C563.935 457.794 563.569 456.078 562.862 454.494C562.155 452.909 561.124 451.491 559.834 450.33C558.545 449.17 557.027 448.294 555.378 447.758C553.729 447.222 551.986 447.039 550.261 447.22C548.309 447.428 546.248 447.696 544.161 448.038C536.803 449.044 529.525 450.574 522.384 452.617C520.079 453.326 517.712 454.144 515.467 454.95C511.542 456.375 508.287 459.211 506.337 462.906C504.386 466.601 503.879 470.891 504.914 474.939" fill="#007CFF"/>
<g opacity="0.3">
<g opacity="0.3">
<path opacity="0.3" d="M522.348 452.593C522.348 452.593 511.953 462.875 523.909 478.42C527.472 465.354 544.125 448.014 544.125 448.014L522.348 452.593Z" fill="white"/>
</g>
</g>
<path d="M536.841 423.958C536.939 431.285 538.269 444.387 544.161 448.038C544.161 448.038 530.607 457.868 523.007 470.495C516.907 461.788 522.384 452.618 522.384 452.618C529.802 449.113 528.387 443.349 525.874 438.196L536.841 423.958Z" fill="#903C38"/>
<g opacity="0.2">
<g opacity="0.2">
<path opacity="0.2" d="M553.751 460.225L563.95 465.915L564.096 480.019C559.485 474.976 554.434 465.72 553.775 460.347C553.77 460.302 553.77 460.257 553.775 460.213" fill="black"/>
</g>
</g>
<g opacity="0.2">
<g opacity="0.2">
<path opacity="0.2" d="M532.34 429.758L525.849 438.184C526.447 439.36 526.94 440.586 527.325 441.847C530.229 440.785 533.633 436.645 533.291 433.458C533.202 432.158 532.879 430.884 532.34 429.697" fill="black"/>
</g>
</g>
<path d="M541.49 409.536C541.148 421.516 541.258 426.632 535.536 432.921C526.996 442.433 512.6 439.381 509.416 427.536C506.561 416.875 507.586 399.084 518.895 393.955C530.205 388.826 541.819 397.557 541.49 409.536Z" fill="#903C38"/>
<path d="M532.559 396.422C523.594 400.063 514.016 401.953 504.341 401.99C504.341 401.99 528.875 375.419 532.559 396.422Z" fill="#1A2E35"/>
<path d="M533.316 390.866C527.216 396.605 525.288 412.98 540.88 416.289C548.114 412.528 558.326 386.164 533.316 390.866Z" fill="#1A2E35"/>
<path d="M524.641 413.224C524.641 414.189 524.178 414.995 523.544 415.019C522.909 415.044 522.323 414.274 522.323 413.298C522.323 412.321 522.787 411.515 523.421 411.49C524.056 411.466 524.641 412.247 524.641 413.224Z" fill="#1A2E35"/>
<path d="M512.673 413.774C512.673 414.751 512.21 415.557 511.575 415.581C510.941 415.605 510.355 414.824 510.355 413.847C510.355 412.87 510.819 412.076 511.453 412.052C512.088 412.028 512.673 412.809 512.673 413.774Z" fill="#1A2E35"/>
<path d="M511.746 412.101L509.391 411.502C509.391 411.502 510.611 413.285 511.746 412.101Z" fill="#1A2E35"/>
<path d="M516.101 414.738C515.307 416.985 514.212 419.113 512.844 421.064C513.351 421.403 513.926 421.627 514.529 421.72C515.132 421.813 515.748 421.772 516.333 421.601L516.101 414.738Z" fill="#740606"/>
<path d="M521.982 425.545C521.448 425.658 520.905 425.723 520.359 425.741C520.321 425.742 520.283 425.736 520.248 425.723C520.213 425.71 520.18 425.689 520.153 425.663C520.125 425.637 520.104 425.605 520.089 425.57C520.074 425.535 520.066 425.498 520.066 425.46C520.065 425.422 520.071 425.384 520.084 425.349C520.098 425.313 520.118 425.281 520.144 425.253C520.17 425.226 520.202 425.204 520.237 425.189C520.272 425.174 520.309 425.167 520.347 425.167C521.556 425.155 522.745 424.858 523.817 424.3C524.89 423.742 525.816 422.939 526.52 421.955C526.54 421.922 526.567 421.894 526.598 421.871C526.629 421.848 526.664 421.832 526.701 421.823C526.739 421.814 526.777 421.812 526.815 421.818C526.853 421.824 526.89 421.838 526.923 421.858C526.986 421.898 527.031 421.961 527.049 422.034C527.067 422.106 527.057 422.183 527.02 422.248C525.833 423.962 524.026 425.145 521.982 425.545Z" fill="#1A2E35"/>
<path d="M544.161 416.619C543.932 417.685 543.48 418.689 542.834 419.567C542.189 420.445 541.364 421.176 540.416 421.711C537.976 422.932 536.085 420.404 536.207 417.352C536.317 414.604 537.732 410.635 540.452 410.66C543.173 410.684 544.82 413.81 544.112 416.619" fill="#903C38"/>
<path d="M526.581 406.459C526.504 406.456 526.429 406.437 526.36 406.403C526.29 406.37 526.229 406.322 526.178 406.264C525.719 405.712 525.136 405.275 524.477 404.989C523.818 404.702 523.101 404.575 522.384 404.615C522.234 404.633 522.083 404.592 521.963 404.501C521.842 404.41 521.762 404.276 521.738 404.127C521.72 403.977 521.761 403.826 521.852 403.705C521.943 403.585 522.077 403.504 522.226 403.48C523.13 403.409 524.039 403.556 524.875 403.909C525.711 404.262 526.451 404.809 527.032 405.507C527.138 405.614 527.197 405.759 527.197 405.91C527.197 406.061 527.138 406.205 527.032 406.313C526.921 406.411 526.778 406.463 526.63 406.459" fill="#1A2E35"/>
<path d="M508.537 408.462C508.391 408.493 508.238 408.467 508.11 408.389C507.986 408.306 507.898 408.179 507.864 408.034C507.83 407.889 507.853 407.736 507.927 407.607C508.384 406.819 509.024 406.154 509.793 405.667C510.562 405.18 511.437 404.886 512.344 404.811C512.495 404.811 512.64 404.869 512.749 404.974C512.859 405.078 512.923 405.221 512.929 405.373C512.929 405.524 512.871 405.669 512.767 405.779C512.662 405.888 512.519 405.952 512.368 405.959C511.654 406.031 510.967 406.273 510.365 406.664C509.763 407.054 509.262 407.583 508.903 408.206C508.819 408.335 508.688 408.427 508.537 408.462Z" fill="#1A2E35"/>
<path d="M523.702 411.539L521.347 410.941C521.347 410.941 522.567 412.736 523.702 411.539Z" fill="#1A2E35"/>
<path d="M577.321 513.722L568.647 515.224L577.187 526.727C577.187 526.727 583.763 522.355 585.788 516.86L584.568 515.786C583.584 514.909 582.413 514.267 581.145 513.91C579.877 513.552 578.545 513.488 577.248 513.722" fill="#903C38"/>
<path d="M567.049 524.639L570.281 527.924C570.958 528.612 571.869 529.019 572.832 529.064C573.796 529.11 574.741 528.79 575.479 528.168L577.199 526.727L568.659 515.224L566.304 520.353C565.983 521.06 565.884 521.848 566.019 522.613C566.154 523.378 566.517 524.084 567.061 524.639" fill="#903C38"/>
<path d="M559.265 449.003C560.4 449.381 561.205 449.675 562.156 450.016C563.108 450.358 563.95 450.713 564.828 451.079C566.609 451.787 568.342 452.556 570.062 453.375C573.515 454.974 576.882 456.769 580.176 458.711C586.941 462.66 593.17 467.466 598.708 473.01C599.403 473.731 600.086 474.475 600.769 475.22L601.758 476.441L602.014 476.722L602.453 477.272C602.876 477.804 603.251 478.372 603.575 478.969C604.144 480.032 604.555 481.171 604.795 482.352C604.979 483.289 605.069 484.242 605.064 485.197C605.041 486.661 604.84 488.116 604.466 489.532C603.873 491.723 603.055 493.847 602.026 495.869C601.123 497.657 600.13 499.397 599.049 501.084C597.009 504.275 594.763 507.33 592.327 510.23C589.964 513.111 587.439 515.855 584.763 518.448C583.938 519.239 582.833 519.671 581.69 519.65C580.548 519.63 579.46 519.158 578.663 518.338C578.028 517.678 577.617 516.833 577.49 515.925C577.363 515.017 577.526 514.092 577.955 513.282L578.016 513.16C581.274 507.055 584.678 500.803 587.252 494.758C587.886 493.256 588.472 491.754 588.923 490.326C589.356 489.086 589.662 487.805 589.838 486.503C589.911 486.182 589.911 485.848 589.838 485.526C589.838 485.526 589.838 485.527 589.838 485.71C589.878 486.017 589.973 486.315 590.119 486.589C590.218 486.801 590.341 487.002 590.485 487.187L590.595 487.322L590.485 487.224L590.278 487.029L589.46 486.21C588.887 485.685 588.325 485.16 587.728 484.647C582.8 480.457 577.433 476.813 571.721 473.779C568.83 472.18 565.829 470.714 562.815 469.31C561.303 468.602 559.765 467.942 558.253 467.283L555.959 466.343L553.824 465.5L553.482 465.366C552.424 464.948 551.458 464.326 550.64 463.535C549.822 462.743 549.168 461.799 548.715 460.754C548.262 459.71 548.019 458.587 547.999 457.448C547.98 456.31 548.185 455.179 548.602 454.119C549.418 452.063 550.986 450.395 552.988 449.456C554.99 448.517 557.274 448.376 559.375 449.064" fill="#903C38"/>
<path d="M505.67 397.167C504.341 397.692 505.463 403.272 507.708 403.455C510.392 402.393 535.695 396.69 549.188 399.462C551.055 397.741 548.358 391.989 545.015 391.574C531.635 390.286 518.14 392.203 505.646 397.167" fill="#007CFF"/>
<path d="M437.912 738.701H281.434C280.021 738.709 278.62 738.429 277.318 737.877C276.016 737.326 274.84 736.514 273.861 735.493C272.883 734.471 272.123 733.261 271.627 731.935C271.132 730.61 270.911 729.197 270.979 727.784L284.058 410.916C284.197 407.979 285.452 405.207 287.565 403.164C289.678 401.122 292.491 399.963 295.428 399.926H451.893C453.314 399.918 454.721 400.2 456.029 400.756C457.337 401.312 458.517 402.129 459.498 403.159C460.478 404.188 461.238 405.407 461.73 406.741C462.223 408.075 462.437 409.496 462.36 410.916L449.27 727.784C449.121 730.709 447.863 733.467 445.752 735.495C443.642 737.524 440.838 738.67 437.912 738.701Z" fill="#007CFF"/>
<g opacity="0.3">
<g opacity="0.3">
<path opacity="0.3" d="M437.912 738.701H281.434C280.021 738.709 278.62 738.429 277.318 737.877C276.016 737.326 274.84 736.514 273.861 735.493C272.883 734.471 272.123 733.261 271.627 731.935C271.132 730.61 270.911 729.197 270.979 727.784L284.058 410.916C284.197 407.979 285.452 405.207 287.565 403.164C289.678 401.122 292.491 399.963 295.428 399.926H451.893C453.314 399.918 454.721 400.2 456.029 400.756C457.337 401.312 458.517 402.129 459.498 403.159C460.478 404.188 461.238 405.407 461.73 406.741C462.223 408.075 462.437 409.496 462.36 410.916L449.27 727.784C449.121 730.709 447.863 733.467 445.752 735.495C443.642 737.524 440.838 738.67 437.912 738.701Z" fill="black"/>
</g>
</g>
<path d="M257.529 702.298L256.461 727.809L257.68 727.86L258.748 702.349L257.529 702.298Z" fill="#007CFF"/>
<path d="M264.171 741.094C261.912 739.819 260.037 737.959 258.742 735.709L259.804 735.098C260.992 737.142 262.707 738.829 264.769 739.983L264.171 741.094Z" fill="#007CFF"/>
<path d="M428.03 738.7H271.565C270.15 738.709 268.749 738.428 267.446 737.877C266.144 737.326 264.967 736.515 263.987 735.493C263.008 734.472 262.247 733.262 261.75 731.936C261.253 730.611 261.031 729.198 261.097 727.784L274.188 410.916C274.322 407.977 275.574 405.201 277.689 403.157C279.803 401.114 282.619 399.958 285.558 399.926H442.023C443.444 399.919 444.85 400.203 446.157 400.759C447.464 401.316 448.644 402.134 449.624 403.163C450.604 404.192 451.364 405.41 451.857 406.743C452.35 408.077 452.566 409.497 452.491 410.916L439.4 727.784C439.245 730.709 437.984 733.465 435.872 735.493C433.76 737.52 430.956 738.667 428.03 738.7Z" fill="#007CFF"/>
<path d="M271.76 734.024C270.951 734.029 270.149 733.87 269.404 733.556C268.658 733.241 267.984 732.777 267.424 732.194C266.863 731.61 266.427 730.917 266.143 730.159C265.859 729.401 265.732 728.593 265.77 727.784L278.86 410.916C278.947 409.243 279.668 407.666 280.876 406.507C282.085 405.347 283.689 404.693 285.363 404.676H441.828C442.637 404.669 443.439 404.827 444.185 405.141C444.931 405.455 445.604 405.919 446.164 406.503C446.724 407.088 447.159 407.781 447.441 408.54C447.723 409.299 447.848 410.108 447.806 410.916L434.715 727.784C434.634 729.457 433.917 731.035 432.71 732.196C431.503 733.356 429.898 734.01 428.225 734.024H271.76Z" fill="white"/>
<g opacity="0.2">
<g opacity="0.2">
<path opacity="0.2" d="M424.602 700.895H278.201C277.661 700.901 277.126 700.795 276.628 700.586C276.13 700.377 275.68 700.067 275.306 699.677C274.933 699.287 274.643 698.824 274.455 698.317C274.266 697.811 274.184 697.271 274.212 696.731L285.399 425.826C285.455 424.712 285.935 423.661 286.741 422.889C287.546 422.117 288.615 421.682 289.73 421.674H436.13C436.669 421.669 437.203 421.773 437.7 421.982C438.196 422.191 438.644 422.5 439.017 422.889C439.39 423.278 439.679 423.739 439.866 424.244C440.054 424.75 440.136 425.288 440.108 425.826L428.92 696.731C428.867 697.848 428.389 698.902 427.583 699.676C426.778 700.451 425.706 700.887 424.589 700.895" fill="#007CFF"/>
</g>
</g>
<g opacity="0.2">
<g opacity="0.2">
<path opacity="0.2" d="M350.242 728.651C348.71 728.661 347.192 728.359 345.781 727.762C344.369 727.166 343.094 726.289 342.032 725.183C340.972 724.074 340.15 722.76 339.615 721.322C339.08 719.883 338.844 718.351 338.921 716.818C339.079 713.673 340.428 710.706 342.695 708.521C344.961 706.336 347.974 705.098 351.121 705.059C352.651 705.048 354.168 705.349 355.578 705.946C356.987 706.542 358.261 707.42 359.319 708.527C360.383 709.634 361.209 710.947 361.746 712.386C362.283 713.824 362.52 715.358 362.442 716.892C362.284 720.037 360.935 723.004 358.668 725.189C356.402 727.373 353.389 728.611 350.242 728.651ZM351.157 706.671C348.404 706.698 345.766 707.776 343.78 709.685C341.794 711.593 340.61 714.188 340.47 716.94C340.407 718.263 340.614 719.585 341.078 720.826C341.541 722.067 342.252 723.2 343.166 724.157C344.083 725.107 345.183 725.86 346.4 726.372C347.616 726.885 348.923 727.145 350.242 727.137C352.995 727.112 355.634 726.034 357.619 724.125C359.603 722.216 360.784 719.619 360.917 716.867C360.982 715.545 360.777 714.223 360.316 712.983C359.854 711.742 359.146 710.608 358.233 709.65C357.316 708.701 356.216 707.947 355 707.435C353.784 706.923 352.477 706.663 351.157 706.671Z" fill="#007CFF"/>
</g>
</g>
<path d="M387.452 498.495H206.221C204.584 498.502 202.962 498.175 201.455 497.535C199.947 496.895 198.585 495.954 197.452 494.771C196.319 493.588 195.438 492.186 194.863 490.652C194.288 489.117 194.031 487.481 194.107 485.844L195.193 459.737C195.366 456.349 196.823 453.155 199.266 450.805C201.71 448.455 204.956 447.125 208.344 447.086H389.526C391.165 447.076 392.788 447.4 394.297 448.039C395.806 448.678 397.17 449.618 398.303 450.802C399.437 451.986 400.318 453.389 400.892 454.925C401.466 456.461 401.72 458.098 401.641 459.737L400.567 485.844C400.388 489.231 398.928 492.424 396.483 494.773C394.038 497.123 390.792 498.453 387.404 498.495" fill="#007CFF"/>
<g opacity="0.3">
<g opacity="0.3">
<path opacity="0.3" d="M387.452 498.495H206.221C204.584 498.502 202.962 498.175 201.455 497.535C199.947 496.895 198.585 495.954 197.452 494.771C196.319 493.588 195.438 492.186 194.863 490.652C194.288 489.117 194.031 487.481 194.107 485.844L195.193 459.737C195.366 456.349 196.823 453.155 199.266 450.805C201.71 448.455 204.956 447.125 208.344 447.086H389.526C391.165 447.076 392.788 447.4 394.297 448.039C395.806 448.678 397.17 449.618 398.303 450.802C399.437 451.986 400.318 453.389 400.892 454.925C401.466 456.461 401.72 458.098 401.641 459.737L400.567 485.844C400.388 489.231 398.928 492.424 396.483 494.773C394.038 497.123 390.792 498.453 387.404 498.495" fill="black"/>
</g>
</g>
<path d="M376.021 498.495H194.839C193.201 498.503 191.578 498.178 190.07 497.538C188.561 496.899 187.199 495.959 186.066 494.775C184.932 493.591 184.051 492.189 183.477 490.654C182.902 489.118 182.646 487.482 182.724 485.844L183.798 459.737C183.974 456.348 185.433 453.154 187.879 450.804C190.324 448.454 193.572 447.125 196.961 447.086H378.144C379.782 447.077 381.404 447.403 382.913 448.042C384.421 448.682 385.783 449.622 386.917 450.806C388.05 451.989 388.931 453.392 389.505 454.927C390.08 456.463 390.336 458.099 390.258 459.737L389.173 485.844C388.996 489.23 387.538 492.423 385.096 494.772C382.653 497.122 379.408 498.453 376.021 498.495Z" fill="#007CFF"/>
<path d="M326.038 491.559L358.929 525.909L360.344 491.559H326.038Z" fill="#007CFF"/>
<g opacity="0.2">
<g opacity="0.2">
<path opacity="0.2" d="M234.66 454.315H221.423C220.943 454.315 220.482 454.125 220.141 453.786C219.801 453.448 219.608 452.988 219.605 452.508C219.608 452.027 219.801 451.568 220.141 451.229C220.482 450.89 220.943 450.7 221.423 450.7H234.66C235.139 450.7 235.598 450.891 235.936 451.23C236.275 451.569 236.465 452.028 236.465 452.508C236.465 452.987 236.275 453.447 235.936 453.786C235.598 454.125 235.139 454.315 234.66 454.315Z" fill="white"/>
</g>
</g>
<g opacity="0.2">
<g opacity="0.2">
<path opacity="0.2" d="M188.678 474.573H188.605C188.125 474.551 187.673 474.339 187.348 473.985C187.023 473.63 186.852 473.161 186.872 472.68L187.409 459.639C187.53 457.236 188.564 454.97 190.299 453.304C192.033 451.638 194.338 450.698 196.742 450.676H211.589C212.068 450.676 212.528 450.866 212.866 451.205C213.205 451.544 213.395 452.004 213.395 452.483C213.392 452.961 213.201 453.419 212.863 453.758C212.525 454.096 212.067 454.287 211.589 454.29H196.742C195.268 454.304 193.855 454.88 192.792 455.902C191.728 456.923 191.095 458.312 191.02 459.785L190.484 472.839C190.465 473.306 190.266 473.747 189.929 474.07C189.593 474.393 189.144 474.574 188.678 474.573Z" fill="white"/>
</g>
</g>
<path d="M370.214 525.909H358.929L360.063 498.495H371.348L370.214 525.909Z" fill="#007CFF"/>
<g opacity="0.3">
<g opacity="0.3">
<path opacity="0.3" d="M370.214 525.909H358.929L360.063 498.495H371.348L370.214 525.909Z" fill="black"/>
</g>
</g>
<g opacity="0.6">
<g opacity="0.6">
<path opacity="0.6" d="M413.06 610.276C411.743 642.147 384.866 667.986 353.024 667.986C345.546 668.045 338.134 666.575 331.244 663.664C324.354 660.754 318.13 656.466 312.955 651.062C307.78 645.658 303.763 639.253 301.15 632.239C298.536 625.226 297.382 617.752 297.758 610.276C299.076 578.405 325.952 552.566 357.794 552.566C365.272 552.507 372.684 553.977 379.574 556.887C386.464 559.798 392.688 564.086 397.863 569.49C403.038 574.894 407.055 581.299 409.669 588.312C412.282 595.326 413.436 602.8 413.06 610.276Z" fill="#007CFF"/>
</g>
</g>
<path d="M382.06 624.844L382.731 608.713C383.341 593.913 372.373 581.311 357.623 580.786C350.134 580.582 342.863 583.322 337.367 588.419C331.871 593.515 328.589 600.564 328.221 608.053L327.526 624.844C327.487 625.646 327.142 626.402 326.562 626.956L322.268 631.084C321.687 631.638 321.342 632.394 321.304 633.196C321.284 633.585 321.344 633.973 321.479 634.338C321.614 634.702 321.822 635.035 322.091 635.317C322.359 635.598 322.682 635.821 323.04 635.973C323.397 636.125 323.782 636.202 324.171 636.2H384.451C385.255 636.192 386.025 635.876 386.603 635.317C387.182 634.759 387.525 634 387.562 633.196C387.582 632.809 387.524 632.423 387.389 632.059C387.255 631.696 387.048 631.364 386.781 631.084L382.828 626.956C382.56 626.676 382.351 626.345 382.215 625.982C382.079 625.619 382.018 625.231 382.036 624.844" fill="white"/>
<path d="M361.637 571.664C361.574 572.917 361.033 574.097 360.124 574.961C359.216 575.825 358.01 576.306 356.757 576.304C356.155 576.31 355.559 576.193 355.005 575.959C354.451 575.725 353.95 575.38 353.534 574.946C353.118 574.511 352.795 573.995 352.586 573.431C352.376 572.867 352.285 572.265 352.316 571.664C352.379 570.411 352.921 569.231 353.829 568.367C354.737 567.503 355.943 567.022 357.196 567.024C357.798 567.018 358.394 567.136 358.948 567.369C359.503 567.603 360.003 567.948 360.419 568.383C360.835 568.817 361.158 569.333 361.368 569.897C361.577 570.462 361.669 571.063 361.637 571.664Z" fill="white"/>
<path d="M348.022 640.498C347.628 640.493 347.238 640.581 346.884 640.755C346.53 640.929 346.221 641.183 345.984 641.498C345.746 641.813 345.586 642.18 345.517 642.568C345.447 642.957 345.469 643.356 345.582 643.734C346.164 645.435 347.268 646.909 348.735 647.946C350.203 648.983 351.96 649.53 353.756 649.51C355.602 649.495 357.403 648.94 358.937 647.914C360.472 646.888 361.673 645.435 362.394 643.734C362.549 643.381 362.613 642.995 362.58 642.611C362.547 642.226 362.419 641.856 362.207 641.534C361.994 641.213 361.705 640.949 361.365 640.768C361.024 640.587 360.644 640.494 360.259 640.498H348.022Z" fill="white"/>
<path d="M205.77 483H210.075V475.781H213.217L217.075 483H221.828L217.503 475.085C219.82 474.091 221.102 472.072 221.102 469.288C221.102 465.241 218.428 462.636 213.804 462.636H205.77V483ZM210.075 472.321V466.156H212.979C215.464 466.156 216.668 467.26 216.668 469.288C216.668 471.307 215.464 472.321 212.999 472.321H210.075ZM224.145 483H237.906V479.45H228.45V474.588H237.161V471.038H228.45V466.186H237.866V462.636H224.145V483ZM254.792 469.219H259.167C258.61 465.192 255.061 462.358 250.457 462.358C245.078 462.358 240.931 466.236 240.931 472.838C240.931 479.281 244.809 483.278 250.547 483.278C255.687 483.278 259.356 480.027 259.356 474.668V472.102H250.835V475.344H255.21C255.15 477.869 253.43 479.47 250.566 479.47C247.335 479.47 245.297 477.054 245.297 472.798C245.297 468.562 247.414 466.166 250.527 466.166C252.744 466.166 254.245 467.31 254.792 469.219ZM266.896 462.636H262.59V483H266.896V462.636ZM281.485 468.493H285.611C285.551 464.864 282.569 462.358 278.034 462.358C273.57 462.358 270.299 464.824 270.319 468.523C270.309 471.526 272.426 473.246 275.867 474.071L278.084 474.628C280.301 475.165 281.534 475.801 281.544 477.173C281.534 478.665 280.123 479.679 277.935 479.679C275.698 479.679 274.087 478.645 273.948 476.607H269.782C269.891 481.011 273.043 483.288 277.985 483.288C282.956 483.288 285.88 480.912 285.89 477.183C285.88 473.793 283.324 471.993 279.784 471.197L277.955 470.76C276.185 470.352 274.703 469.696 274.733 468.234C274.733 466.922 275.897 465.957 278.005 465.957C280.063 465.957 281.326 466.892 281.485 468.493ZM288.01 466.186H294.244V483H298.5V466.186H304.734V462.636H288.01V466.186ZM307.489 483H311.794V475.781H314.936L318.794 483H323.547L319.222 475.085C321.538 474.091 322.821 472.072 322.821 469.288C322.821 465.241 320.146 462.636 315.523 462.636H307.489V483ZM311.794 472.321V466.156H314.697C317.183 466.156 318.386 467.26 318.386 469.288C318.386 471.307 317.183 472.321 314.717 472.321H311.794ZM329.374 483L330.885 478.357H338.233L339.744 483H344.358L337.338 462.636H331.79L324.76 483H329.374ZM331.979 474.996L334.484 467.29H334.643L337.149 474.996H331.979ZM357.391 468.493H361.517C361.458 464.864 358.475 462.358 353.941 462.358C349.476 462.358 346.205 464.824 346.225 468.523C346.215 471.526 348.333 473.246 351.773 474.071L353.99 474.628C356.208 475.165 357.441 475.801 357.451 477.173C357.441 478.665 356.029 479.679 353.841 479.679C351.604 479.679 349.993 478.645 349.854 476.607H345.688C345.797 481.011 348.949 483.288 353.891 483.288C358.863 483.288 361.786 480.912 361.796 477.183C361.786 473.793 359.23 471.993 355.691 471.197L353.861 470.76C352.091 470.352 350.61 469.696 350.64 468.234C350.64 466.922 351.803 465.957 353.911 465.957C355.969 465.957 357.232 466.892 357.391 468.493ZM368.997 462.636H364.692V483H368.997V462.636Z" fill="white"/>
</g>
</g>
<defs>
<linearGradient id="paint0_linear_31:849" x1="473.5" y1="512" x2="-1.4178e-05" y2="512" gradientUnits="userSpaceOnUse">
<stop offset="0.609728" stop-color="#EFF6FF"/>
<stop offset="1" stop-color="#EFF6FF" stop-opacity="0"/>
</linearGradient>
<linearGradient id="paint1_linear_31:849" x1="962.708" y1="770.721" x2="524.978" y2="299.273" gradientUnits="userSpaceOnUse">
<stop stop-color="#DAE3FE" stop-opacity="0.01"/>
<stop offset="1" stop-color="#E9EFFD" stop-opacity="0.58"/>
</linearGradient>
<linearGradient id="paint2_linear_31:849" x1="623.639" y1="517.217" x2="284.466" y2="152.276" gradientUnits="userSpaceOnUse">
<stop stop-color="#DAE3FE" stop-opacity="0.01"/>
<stop offset="1" stop-color="#E9EFFD" stop-opacity="0.58"/>
</linearGradient>
<clipPath id="clip0_31:849">
<rect width="720" height="1024" fill="white"/>
</clipPath>
<clipPath id="clip1_31:849">
<rect width="610" height="455" fill="white" transform="translate(110 326)"/>
</clipPath>
</defs>
</svg>
