<svg width="720" height="1024" viewBox="0 0 720 1024" fill="none" xmlns="http://www.w3.org/2000/svg">
<g clip-path="url(#clip0_31:1105)">
<rect width="720" height="1024" fill="url(#paint0_linear_31:1105)"/>
<path d="M837.14 680.415C777.067 820.846 618.491 881.165 494.246 870.88C460.323 868.073 392.066 862.422 338.772 812.019C236.421 715.219 252.184 512.881 350.162 393.756C362.78 378.415 450.116 275.634 586.214 277.014C685.857 278.02 755.796 334.314 764.3 341.319C775.044 350.178 798.739 371.228 820.093 404.63C870.27 483.11 874.672 592.662 837.14 680.415Z" fill="url(#paint1_linear_31:1105)"/>
<path d="M818.758 307.562C772.259 416.366 649.517 463.101 553.347 455.132C527.09 452.957 474.257 448.579 433.005 409.527C353.783 334.528 365.984 177.758 441.822 85.4615C451.588 73.5752 519.189 -6.05862 624.534 -4.98933C701.66 -4.20971 755.795 39.406 762.377 44.8335C770.693 51.6978 789.034 68.007 805.562 93.8867C844.401 154.692 847.809 239.571 818.758 307.562Z" fill="url(#paint2_linear_31:1105)"/>
<path d="M720 651.87H83V651.552H720V651.87Z" fill="#E5E5E4"/>
<path d="M452.728 660.533H485.164V660.215H452.728V660.533Z" fill="#E5E5E4"/>
<path d="M586.37 667.415H663.231V667.097H586.37V667.415Z" fill="#E5E5E4"/>
<path d="M366.414 660.685H445.822V660.367H366.414V660.685Z" fill="#E5E5E4"/>
<path d="M298.306 670.201H314.919V669.883H298.306V670.201Z" fill="#E5E5E4"/>
<path d="M331.061 670.201H406.698V669.883H331.061V670.201Z" fill="#E5E5E4"/>
<path d="M149.834 664.832H198.819V664.514H149.834V664.832Z" fill="#E5E5E4"/>
<path d="M138.941 235.318C137.098 235.321 135.33 236.054 134.027 237.356C132.723 238.658 131.989 240.423 131.985 242.264V587.552C131.989 589.393 132.723 591.158 134.027 592.46C135.33 593.761 137.098 594.494 138.941 594.498H384.951C386.795 594.494 388.562 593.761 389.865 592.46C391.169 591.158 391.904 589.393 391.907 587.552V242.264C391.904 240.423 391.169 238.658 389.865 237.356C388.562 236.054 386.795 235.321 384.951 235.318H138.941ZM384.951 594.816H138.941C137.012 594.816 135.162 594.05 133.798 592.688C132.433 591.326 131.667 589.478 131.667 587.552V242.264C131.67 240.338 132.438 238.493 133.801 237.131C135.165 235.77 137.013 235.003 138.941 235H384.951C386.879 235.003 388.728 235.77 390.091 237.131C391.455 238.493 392.222 240.338 392.225 242.264V587.552C392.225 589.478 391.458 591.326 390.094 592.688C388.73 594.05 386.88 594.816 384.951 594.816Z" fill="#A0BEE3"/>
<path d="M414.508 235.318C412.664 235.321 410.896 236.054 409.593 237.356C408.289 238.658 407.555 240.423 407.552 242.264V587.552C407.555 589.393 408.289 591.158 409.593 592.46C410.896 593.761 412.664 594.494 414.508 594.498H660.517C662.36 594.494 664.126 593.761 665.428 592.459C666.729 591.157 667.461 589.392 667.461 587.552V242.264C667.461 240.424 666.729 238.659 665.428 237.357C664.126 236.055 662.36 235.321 660.517 235.318H414.508ZM660.517 594.816H414.508C412.578 594.816 410.728 594.05 409.364 592.688C407.999 591.326 407.233 589.478 407.233 587.552V242.264C407.236 240.338 408.004 238.493 409.367 237.131C410.731 235.77 412.579 235.003 414.508 235H660.517C662.443 235.007 664.288 235.775 665.649 237.136C667.01 238.497 667.776 240.34 667.779 242.264V587.552C667.779 589.476 667.014 591.322 665.653 592.684C664.291 594.045 662.444 594.812 660.517 594.816Z" fill="#A0BEE3"/>
<path d="M332.653 541.209H248.059L242.925 482.056H327.519L332.653 541.209Z" fill="#E0E0DF"/>
<path d="M337.036 541.209H252.442L247.308 482.056H331.901L337.036 541.209Z" fill="#EAEAE9"/>
<path d="M264.01 528.513L261.182 494.764H320.333L323.162 528.513H264.01Z" fill="white"/>
<path d="M351.674 651.539H341.749V541.209H351.674V651.539Z" fill="#BFD4F2"/>
<path d="M354.808 651.539H347.916V541.209H354.808V651.539Z" fill="#D6E4FC"/>
<path d="M258.736 553.396H354.808V541.209H258.736V553.396Z" fill="#EAEAE9"/>
<path d="M262.124 651.539H252.2V553.396H262.124V651.539Z" fill="#BFD4F2"/>
<path d="M265.258 651.539H258.366V553.396H265.258V651.539Z" fill="#D6E4FC"/>
<path d="M191.481 651.539H181.557V553.396H191.481V651.539Z" fill="#BFD4F2"/>
<path d="M194.615 651.539H187.723V553.396H194.615V651.539Z" fill="#D6E4FC"/>
<path d="M288.866 651.539H278.928V553.396H288.866V651.539Z" fill="#BFD4F2"/>
<path d="M291.987 651.539H285.095V553.396H291.987V651.539Z" fill="#D6E4FC"/>
<path d="M258.736 553.396H181.557V541.209H258.736V553.396Z" fill="#BFD4F2"/>
<path d="M546.532 432.075H247.996V266.116H546.532V432.075Z" fill="#D8D9D9"/>
<path d="M562.929 432.075H249.499V266.116H562.929V432.075Z" fill="#D6E4FC"/>
<path d="M557.807 426.961V271.23H254.62V426.961H557.807Z" fill="#E2EAF7"/>
<path d="M377.37 426.961L434.624 271.23H340.157L282.916 426.961H377.37Z" fill="#F1F5FC"/>
<path d="M468.309 426.961L525.549 271.23H454.295L397.041 426.961H468.309Z" fill="#F1F5FC"/>
<path d="M641.152 651.552H615.774V493.047H641.152V651.552Z" fill="#E0E0DF"/>
<path d="M634.476 651.552H641.152V639.339H627.482L634.476 651.552Z" fill="#F8F7F6"/>
<path d="M407.169 651.552H381.791V493.047H407.169V651.552Z" fill="#BFD4F2"/>
<path d="M641.152 648.257H401.347V493.047H641.152V648.257Z" fill="#D7E3F7"/>
<path d="M407.157 541.858H635.33V500.591H407.157V541.883V541.858ZM636.604 543.155H405.883V499.318H636.604V543.155Z" fill="#A0BEE3"/>
<path d="M434.803 506.061C439.109 514.495 444.994 519.303 450.982 519.303H595.989C602.002 519.303 607.863 514.495 612.182 506.061H434.803ZM595.989 520.575H450.982C444.243 520.575 437.771 515.156 433.146 505.704L432.701 504.789H614.22L613.774 505.704C609.213 515.156 602.729 520.575 595.938 520.575" fill="#A0BEE3"/>
<path d="M408.023 651.552H401.347V639.339H415.017L408.023 651.552Z" fill="#F8F7F6"/>
<path d="M407.157 591.305H635.33V550.012H407.157V591.305ZM636.604 592.577H405.883V548.74H636.604V592.577Z" fill="#A0BEE3"/>
<path d="M434.803 555.495C439.109 563.929 444.994 568.75 450.982 568.75H595.989C602.002 568.75 607.863 563.929 612.182 555.495H434.803ZM595.989 570.022H450.982C444.243 570.022 437.771 564.603 433.146 555.139L432.701 554.223H614.22L613.774 555.139C609.213 564.603 602.729 570.022 595.938 570.022H595.989Z" fill="#A0BEE3"/>
<path d="M407.157 640.739H635.33V599.459H407.157V640.739ZM636.604 642.011H405.883V598.187H636.604V642.011Z" fill="#A0BEE3"/>
<path d="M434.803 604.903C439.109 613.338 444.994 618.159 450.982 618.159H595.989C602.002 618.159 607.863 613.338 612.182 604.903H434.803ZM595.989 619.431H450.982C444.243 619.431 437.771 613.999 433.146 604.547L432.701 603.631H614.22L613.774 604.547C609.213 613.999 602.729 619.431 595.938 619.431H595.989Z" fill="#A0BEE3"/>
<path d="M237.129 514.011V517.09H235.167L233.536 541.209H209.534L207.916 517.09H205.941V514.011H237.129Z" fill="#BFD4F2"/>
<path d="M229.217 454.133C227.242 439.771 207.814 435.662 183.174 435.128C159.72 434.632 152.203 426.35 152.203 426.35C152.203 426.35 152.28 459.909 186.079 472.057C218.172 483.595 231.192 468.534 229.217 454.133Z" fill="#EBF2FE"/>
<path d="M217.242 486.725C217.662 480.809 227.115 469.946 249.843 474.881C266.29 478.456 272.393 469.946 272.393 469.946C272.393 469.946 270.877 493.963 246.149 501.189C222.669 508.045 216.528 497.118 217.242 486.725Z" fill="#E0E0DF"/>
<path d="M222.439 523.081C222.566 523.08 222.691 523.051 222.806 522.996C222.92 522.941 223.022 522.862 223.102 522.763C224.758 520.817 223.408 516.161 221.535 509.712C219.14 501.443 216.158 491.152 218.681 483.672C220.084 479.734 221.718 475.881 223.573 472.134C227.14 464.59 230.223 458.14 227.662 451.284C227.577 451.068 227.411 450.895 227.199 450.8C226.987 450.705 226.747 450.696 226.529 450.775C226.42 450.814 226.32 450.875 226.235 450.954C226.15 451.033 226.082 451.128 226.034 451.233C225.987 451.339 225.961 451.453 225.958 451.569C225.956 451.684 225.977 451.8 226.019 451.907C228.325 458.013 225.535 463.903 221.993 471.383C220.106 475.191 218.447 479.108 217.025 483.112C214.324 491.101 217.394 501.697 219.853 510.208C221.305 515.22 222.808 520.385 221.764 521.657C221.684 521.745 221.622 521.85 221.584 521.963C221.546 522.076 221.531 522.196 221.54 522.315C221.55 522.434 221.583 522.55 221.639 522.655C221.695 522.761 221.773 522.854 221.866 522.929C222.025 523.066 222.229 523.143 222.439 523.145" fill="#E0E0DF"/>
<path d="M648.503 694.6C648.503 702.55 537.92 709 401.5 709C265.08 709 154.484 702.55 154.484 694.6C154.484 686.649 265.067 680.199 401.5 680.199C537.933 680.199 648.503 686.649 648.503 694.6Z" fill="#D5E2F2"/>
<path d="M401.449 624.392H220.541L210.642 333.881H391.55L401.449 624.392Z" fill="#3273BA"/>
<path d="M410.482 615.373H229.574L219.662 324.862H400.57L410.482 615.373Z" fill="#3273BA"/>
<path d="M410.469 615.373H229.561L219.968 333.944L219.662 324.938H400.57L410.469 615.436V615.373ZM311.225 357.44C304.609 357.395 298.052 358.692 291.953 361.252C285.854 363.812 280.339 367.583 275.743 372.335C271.148 377.087 267.566 382.722 265.216 388.897C262.866 395.073 261.797 401.661 262.073 408.261C262.623 421.859 268.396 434.724 278.193 444.184C287.991 453.645 301.06 458.975 314.689 459.069C321.305 459.116 327.861 457.821 333.96 455.262C340.059 452.703 345.574 448.934 350.17 444.183C354.766 439.432 358.348 433.798 360.698 427.623C363.048 421.448 364.117 414.861 363.84 408.261C363.291 394.662 357.518 381.796 347.721 372.333C337.924 362.87 324.855 357.537 311.225 357.44Z" fill="#007CFF"/>
<path d="M363.841 408.197C364.117 414.797 363.048 421.384 360.698 427.559C358.348 433.734 354.766 439.368 350.17 444.119C345.574 448.87 340.059 452.639 333.96 455.198C327.861 457.757 321.305 459.053 314.69 459.005C301.061 458.912 287.991 453.582 278.194 444.121C268.396 434.66 262.624 421.796 262.074 408.197C261.798 401.597 262.867 395.009 265.217 388.834C267.566 382.658 271.148 377.024 275.744 372.271C280.34 367.519 285.855 363.749 291.954 361.189C298.053 358.628 304.609 357.331 311.225 357.377C324.855 357.474 337.925 362.807 347.722 372.269C357.519 381.732 363.291 394.598 363.841 408.197Z" fill="#3273BA"/>
<path d="M354.948 408.185C355.219 415.108 353.706 421.985 350.553 428.157C347.164 434.812 341.984 440.393 335.595 444.274C329.207 448.154 321.862 450.181 314.384 450.126C306.727 450.082 299.217 448.029 292.605 444.173C285.993 440.317 280.512 434.794 276.711 428.157C273.176 422.074 271.198 415.214 270.953 408.185C270.72 402.733 271.599 397.291 273.537 392.189C275.475 387.087 278.431 382.432 282.226 378.506C286.02 374.58 290.575 371.465 295.612 369.35C300.65 367.236 306.066 366.166 311.53 366.205C322.785 366.285 333.576 370.691 341.662 378.509C349.748 386.327 354.506 396.955 354.948 408.185Z" fill="white"/>
<path d="M314.384 450.126C306.727 450.082 299.217 448.029 292.605 444.173C285.993 440.317 280.512 434.794 276.711 428.157C287.48 420.831 300.22 416.937 313.25 416.988C326.508 417.004 339.473 420.886 350.553 428.157C347.163 434.812 341.984 440.393 335.595 444.274C329.207 448.154 321.862 450.181 314.384 450.126Z" fill="#76A6D9"/>
<path d="M313.097 412.523C308.087 412.484 303.284 410.522 299.683 407.043C296.082 403.564 293.961 398.834 293.758 393.835C293.658 391.409 294.052 388.987 294.917 386.718C295.782 384.448 297.1 382.377 298.79 380.631C300.481 378.885 302.509 377.5 304.752 376.559C306.994 375.619 309.404 375.143 311.836 375.161C316.838 375.209 321.63 377.174 325.222 380.649C328.814 384.125 330.932 388.845 331.137 393.835C331.239 396.263 330.846 398.686 329.982 400.957C329.118 403.228 327.8 405.301 326.11 407.048C324.419 408.796 322.391 410.182 320.147 411.123C317.904 412.064 315.493 412.54 313.059 412.523" fill="#76A6D9"/>
<path d="M374.134 510.17H258.736L257.958 487.272H373.357L374.134 510.17Z" fill="white"/>
<path d="M375.536 551.093H260.124L259.347 528.195H374.759L375.536 551.093Z" fill="white"/>
<path d="M322.996 550.203L317.964 550.89L317.454 544.885C316.931 544.657 316.471 544.307 316.112 543.864C315.753 543.421 315.506 542.899 315.391 542.341C315.297 541.909 315.295 541.462 315.385 541.029C315.475 540.596 315.655 540.186 315.913 539.827C316.171 539.467 316.501 539.166 316.883 538.941C317.265 538.717 317.69 538.575 318.13 538.525C319.037 538.412 319.955 538.641 320.702 539.168C321.449 539.695 321.972 540.482 322.168 541.374C322.279 541.91 322.245 542.466 322.07 542.984C321.896 543.503 321.587 543.966 321.175 544.326L322.996 550.152V550.203ZM330.984 531.35L303.186 535.166C302.92 535.197 302.664 535.281 302.433 535.415C302.202 535.549 302.001 535.729 301.843 535.944C301.685 536.159 301.574 536.405 301.515 536.665C301.457 536.925 301.453 537.195 301.504 537.456L305.148 556.067C305.267 556.613 305.587 557.095 306.045 557.418C306.502 557.74 307.064 557.88 307.619 557.81L335.431 553.994C335.697 553.964 335.954 553.879 336.186 553.744C336.418 553.609 336.62 553.428 336.778 553.212C336.936 552.995 337.048 552.748 337.105 552.486C337.163 552.225 337.165 551.954 337.112 551.691L333.456 533.08C333.333 532.536 333.013 532.058 332.555 531.738C332.098 531.418 331.538 531.28 330.984 531.35Z" fill="#3273BA"/>
<path d="M328.245 530.358C327.751 530.42 327.253 530.295 326.847 530.008C326.441 529.72 326.158 529.292 326.053 528.806L325.697 526.987C325.188 524.504 323.794 522.291 321.775 520.756C319.755 519.221 317.247 518.47 314.715 518.642C313.435 518.713 312.185 519.058 311.051 519.655C309.917 520.251 308.924 521.085 308.142 522.099C307.36 523.113 306.805 524.284 306.517 525.532C306.229 526.779 306.214 528.074 306.472 529.328L306.88 531.414C306.929 531.646 306.93 531.885 306.881 532.117C306.831 532.349 306.734 532.568 306.594 532.76C306.455 532.952 306.277 533.112 306.072 533.231C305.866 533.35 305.638 533.424 305.402 533.449C304.909 533.518 304.409 533.397 304.002 533.111C303.595 532.825 303.313 532.396 303.211 531.91L302.854 530.142C302.506 528.489 302.496 526.784 302.824 525.127C303.152 523.471 303.812 521.897 304.764 520.502C305.715 519.106 306.94 517.916 308.363 517.004C309.786 516.092 311.379 515.477 313.046 515.194C316.662 514.591 320.373 515.4 323.408 517.453C326.444 519.506 328.573 522.647 329.353 526.224L329.761 528.31C329.808 528.543 329.807 528.784 329.756 529.016C329.705 529.249 329.607 529.469 329.467 529.661C329.326 529.854 329.148 530.015 328.942 530.135C328.736 530.255 328.507 530.331 328.27 530.358H328.245Z" fill="#3273BA"/>
<path d="M356.49 583.163H281.362L280.865 568.254H355.98L356.49 583.163Z" fill="#3273BA"/>
<path d="M320.232 498.721C320.256 499.265 320.169 499.81 319.976 500.32C319.783 500.83 319.488 501.295 319.109 501.688C318.73 502.081 318.275 502.393 317.771 502.604C317.268 502.816 316.726 502.923 316.18 502.919C315.057 502.906 313.982 502.464 313.176 501.683C312.37 500.902 311.894 499.841 311.849 498.721C311.826 498.177 311.915 497.634 312.109 497.125C312.303 496.617 312.598 496.153 312.977 495.761C313.355 495.37 313.81 495.06 314.313 494.849C314.815 494.638 315.355 494.531 315.9 494.535C317.023 494.541 318.101 494.98 318.908 495.759C319.715 496.539 320.189 497.6 320.232 498.721Z" fill="#0B2B34"/>
<path d="M302.179 498.721C302.202 499.265 302.114 499.808 301.92 500.318C301.726 500.827 301.431 501.292 301.052 501.684C300.673 502.077 300.219 502.388 299.716 502.6C299.214 502.812 298.673 502.921 298.128 502.919C297.003 502.91 295.926 502.468 295.119 501.686C294.313 500.905 293.839 499.842 293.796 498.721C293.772 498.176 293.859 497.633 294.052 497.123C294.246 496.614 294.54 496.149 294.92 495.757C295.299 495.366 295.754 495.055 296.258 494.845C296.761 494.635 297.302 494.53 297.848 494.535C298.97 494.544 300.045 494.984 300.852 495.763C301.658 496.542 302.133 497.601 302.179 498.721Z" fill="#0B2B34"/>
<path d="M284.127 498.721C284.149 499.265 284.06 499.808 283.867 500.318C283.673 500.827 283.378 501.292 283 501.684C282.621 502.077 282.167 502.388 281.664 502.6C281.161 502.812 280.621 502.921 280.075 502.919C278.95 502.91 277.871 502.469 277.062 501.687C276.253 500.906 275.776 499.844 275.731 498.721C275.708 498.177 275.797 497.634 275.991 497.125C276.185 496.617 276.48 496.153 276.859 495.761C277.237 495.37 277.692 495.06 278.195 494.849C278.697 494.638 279.237 494.531 279.782 494.535C280.907 494.541 281.985 494.979 282.794 495.759C283.603 496.538 284.081 497.599 284.127 498.721Z" fill="#0B2B34"/>
<path d="M338.297 498.721C338.32 499.265 338.231 499.808 338.037 500.318C337.844 500.827 337.549 501.292 337.17 501.684C336.792 502.077 336.337 502.388 335.835 502.6C335.332 502.812 334.791 502.921 334.246 502.919C333.12 502.91 332.041 502.469 331.232 501.687C330.424 500.906 329.947 499.844 329.901 498.721C329.879 498.177 329.967 497.634 330.161 497.125C330.355 496.617 330.65 496.153 331.029 495.761C331.408 495.37 331.863 495.06 332.365 494.849C332.868 494.638 333.408 494.531 333.953 494.535C335.077 494.541 336.156 494.979 336.965 495.759C337.774 496.538 338.251 497.599 338.297 498.721Z" fill="#0B2B34"/>
<path d="M356.35 498.721C356.372 499.265 356.283 499.808 356.09 500.318C355.896 500.827 355.601 501.292 355.223 501.684C354.844 502.077 354.39 502.388 353.887 502.6C353.384 502.812 352.844 502.921 352.298 502.919C351.174 502.91 350.097 502.468 349.29 501.686C348.483 500.905 348.009 499.842 347.967 498.721C347.942 498.176 348.03 497.633 348.223 497.123C348.416 496.614 348.711 496.149 349.09 495.757C349.469 495.366 349.925 495.055 350.428 494.845C350.932 494.635 351.473 494.53 352.018 494.535C353.14 494.544 354.216 494.984 355.022 495.763C355.829 496.542 356.304 497.601 356.35 498.721Z" fill="#0B2B34"/>
<path d="M508.401 386.801C510.096 389.523 511.497 392.131 512.949 394.828C514.402 397.524 515.714 400.272 517.001 403.045C519.626 408.686 521.799 414.527 523.498 420.511C523.728 421.262 523.906 422.063 524.097 422.852L524.377 424.022L524.504 424.608L524.67 425.587C524.971 427.776 524.836 430.002 524.275 432.138C523.402 435.466 522.069 438.656 520.313 441.616C517.165 447.015 513.361 452.006 508.987 456.474L503.624 452.416C506.32 447.474 508.719 442.377 510.809 437.151C511.732 434.846 512.386 432.443 512.758 429.989C512.873 429.238 512.834 428.472 512.644 427.737L512.147 426.185C511.93 425.549 511.752 424.913 511.497 424.264C509.568 419.013 507.326 413.881 504.783 408.897C502.235 403.809 499.496 398.72 496.769 393.861L508.401 386.851" fill="#F4857D"/>
<path d="M504.987 450.597L499.139 453.688L505.866 461.55C505.866 461.55 510.057 458.726 510.248 454.388L504.987 450.571" fill="#F4857D"/>
<path d="M491.279 458.535L498.477 464.246L505.866 461.55L499.139 453.688L491.279 458.535Z" fill="#F4857D"/>
<path d="M466.665 345.19C466.512 345.89 466.027 346.386 465.556 346.297C465.085 346.208 464.843 345.546 464.983 344.847C465.123 344.147 465.62 343.638 466.079 343.74C466.537 343.842 466.805 344.478 466.665 345.19Z" fill="#0B2B34"/>
<path d="M466.092 346.398C464.805 348.388 463.253 350.194 461.48 351.767C461.896 352.202 462.402 352.541 462.964 352.761C463.525 352.981 464.127 353.076 464.728 353.039L466.092 346.348V346.398Z" fill="#F16060"/>
<path d="M463.799 371.357V363.025L474.857 364.297C474.857 364.297 474.666 371.472 468.487 373.583L463.748 371.306" fill="#F4857D"/>
<path d="M466.984 357.008L474.768 359.247L474.908 364.348L463.85 363.012L466.984 357.008Z" fill="#F4857D"/>
<path d="M472.653 370.696C472.911 370.365 473.145 370.017 473.353 369.653C473.145 370.014 472.915 370.362 472.665 370.696H472.653ZM474.818 361.053V359.247L467.034 357.021L474.818 359.26V361.066V361.053ZM465.48 359.934L466.385 358.191L465.48 359.946" fill="#BABCBC"/>
<path d="M472.64 370.696C471.091 369.982 469.708 368.956 468.576 367.681C467.445 366.407 466.591 364.913 466.066 363.292L474.908 364.348C474.904 364.39 474.904 364.433 474.908 364.475L472.691 365.747C473.022 367.041 473.243 368.36 473.353 369.691C473.145 370.055 472.911 370.403 472.653 370.734" fill="#E87466"/>
<path d="M474.908 364.348L466.067 363.292C465.71 362.202 465.508 361.067 465.468 359.921L466.372 358.166L466.971 357.021L474.755 359.247V361.053L474.857 364.348" fill="#E87466"/>
<path d="M470.003 341.781L470.296 341.666C470.336 341.627 470.367 341.581 470.389 341.529C470.41 341.478 470.421 341.423 470.421 341.367C470.421 341.312 470.41 341.257 470.389 341.205C470.367 341.154 470.336 341.107 470.296 341.068C469.851 340.564 469.292 340.174 468.664 339.93C468.037 339.687 467.36 339.597 466.69 339.669C466.635 339.678 466.582 339.698 466.534 339.729C466.487 339.759 466.445 339.798 466.413 339.844C466.381 339.891 466.359 339.943 466.347 339.998C466.336 340.053 466.335 340.11 466.346 340.165C466.365 340.275 466.427 340.372 466.518 340.437C466.608 340.501 466.721 340.527 466.83 340.509C467.361 340.46 467.896 340.539 468.39 340.738C468.884 340.937 469.324 341.251 469.672 341.654L469.991 341.781H470.003Z" fill="#0B2B34"/>
<path d="M486.335 358.115C485.061 364.666 484.272 373.736 488.883 378.099C488.883 378.099 487.087 384.74 474.869 384.74C461.48 384.74 468.423 378.914 468.423 378.914C473.99 377.196 473.939 370.861 472.665 365.773L486.323 358.14" fill="#F4857D"/>
<path d="M491.368 382.424C492.553 380.733 492.514 375.402 491.24 374.461C489.177 372.947 480.386 372.591 468.538 375.313C469.812 380.478 467.085 383.188 467.085 383.188L491.368 382.424Z" fill="#3273BA"/>
<path d="M529.728 682.985L529.473 683.074C529.398 683.108 529.33 683.157 529.275 683.219C529.221 683.28 529.18 683.352 529.155 683.431C529.04 683.812 529.155 683.94 529.231 683.978C529.703 684.385 531.498 683.978 532.76 683.507C531.8 683.112 530.765 682.934 529.728 682.985ZM531.18 684.423C530.819 684.55 530.435 684.605 530.052 684.583C529.67 684.561 529.295 684.463 528.951 684.296C528.818 684.175 528.726 684.015 528.689 683.839C528.653 683.663 528.673 683.48 528.747 683.316C528.785 683.178 528.855 683.05 528.949 682.942C529.044 682.834 529.162 682.749 529.295 682.693C530.505 682.12 533.282 683.24 533.397 683.291L533.537 683.482L533.41 683.685C532.695 684.01 531.948 684.257 531.18 684.423Z" fill="#3273BA"/>
<path d="M530.824 680.53H530.734C530.467 680.632 530.48 680.759 530.48 680.81C530.48 681.408 531.92 682.616 533.028 683.1C532.76 682.387 532.161 680.975 531.397 680.556C531.241 680.459 531.053 680.427 530.874 680.467L530.824 680.53ZM533.372 683.698H533.27C532.263 683.392 530.097 681.866 530.072 680.848C530.063 680.688 530.112 680.531 530.211 680.405C530.309 680.278 530.45 680.192 530.607 680.161C530.76 680.105 530.924 680.082 531.087 680.095C531.25 680.109 531.408 680.157 531.55 680.238C532.747 680.848 533.499 683.329 533.537 683.431V683.634L533.422 683.698H533.372Z" fill="#3273BA"/>
<path d="M463.633 684.194C463.497 684.181 463.361 684.181 463.226 684.194C463.139 684.212 463.058 684.248 462.987 684.301C462.917 684.354 462.859 684.422 462.817 684.499C462.665 684.754 462.716 684.894 462.817 684.957C463.238 685.542 465.506 685.555 467.174 685.313C466.095 684.71 464.911 684.317 463.684 684.156L463.633 684.194ZM465.06 685.924C463.913 685.924 462.805 685.759 462.422 685.25C462.326 685.114 462.274 684.952 462.274 684.785C462.274 684.619 462.326 684.457 462.422 684.321C462.571 684.077 462.808 683.899 463.085 683.825C464.588 683.418 467.71 685.199 467.85 685.275L467.952 685.492L467.786 685.67C466.878 685.835 465.958 685.92 465.035 685.924H465.06Z" fill="#3273BA"/>
<path d="M465.544 682.044H465.417C465.035 682.044 465.009 682.235 464.996 682.286C464.907 682.884 466.359 684.41 467.468 685.072C467.36 684.053 466.947 683.091 466.283 682.311C466.079 682.131 465.816 682.032 465.544 682.031V682.044ZM467.723 685.682H467.646C466.563 685.199 464.423 683.265 464.576 682.248C464.576 682.019 464.793 681.713 465.379 681.662C465.588 681.638 465.8 681.657 466.002 681.718C466.204 681.779 466.391 681.882 466.551 682.019C467.36 682.997 467.845 684.201 467.939 685.466L467.85 685.657H467.723V685.682Z" fill="#3273BA"/>
<path d="M477.583 685.453H468.627L467.735 664.731H476.692L477.583 685.453Z" fill="#F4857D"/>
<path d="M543.36 681.319L534.608 683.202L525.804 663.904L534.569 662.021L543.36 681.319Z" fill="#F4857D"/>
<path d="M533.703 682.337L543.539 680.212C543.712 680.175 543.893 680.197 544.053 680.276C544.212 680.354 544.341 680.484 544.417 680.645L547.831 688.048C547.922 688.228 547.97 688.426 547.969 688.627C547.968 688.828 547.92 689.026 547.828 689.204C547.736 689.383 547.603 689.538 547.44 689.655C547.276 689.772 547.088 689.85 546.889 689.88C543.436 690.554 541.729 690.72 537.397 691.661C534.735 692.234 528.734 693.697 525.052 694.485C521.371 695.274 520.109 691.763 521.549 691.101C527.919 688.176 530.658 685.593 532.403 683.176C532.71 682.75 533.164 682.451 533.677 682.337H533.703Z" fill="#0B2B34"/>
<path d="M468.729 684.423H478.514C478.692 684.422 478.865 684.482 479.004 684.593C479.143 684.704 479.24 684.86 479.278 685.033L481.049 692.997C481.098 693.188 481.103 693.388 481.061 693.582C481.02 693.775 480.934 693.956 480.81 694.11C480.687 694.265 480.529 694.388 480.349 694.471C480.169 694.553 479.973 694.593 479.775 694.587C476.246 694.523 471.137 694.32 466.704 694.32C461.519 694.32 457.034 694.6 450.957 694.6C447.275 694.6 446.256 690.885 447.797 690.554C454.804 689.015 460.537 688.85 466.589 685.123C467.226 684.691 467.972 684.448 468.742 684.423H468.729Z" fill="#0B2B34"/>
<path d="M504.898 380.058C513.293 381.992 520.186 403.389 520.186 403.389L503.318 416.224C498.959 411.577 495.886 405.878 494.4 399.687C491.508 388.467 496.298 378.061 504.885 380.046" fill="#3273BA"/>
<path d="M503.357 416.224C502.542 415.434 501.788 414.584 501.102 413.68C501.79 414.582 502.544 415.433 503.357 416.224ZM504.032 415.716H504.108C503.974 411.24 503.184 406.809 501.764 402.562C502.358 395.022 503.405 387.524 504.898 380.109L504.185 379.982L504.898 380.109C513.294 382.043 520.186 403.44 520.186 403.44L517.906 405.183L506.975 413.502L503.994 415.766" fill="#0056A6"/>
<path d="M460.741 405.615C458.639 407.867 456.55 409.877 454.371 411.976C453.301 413.002 452.205 414.007 451.084 414.99L449.389 416.479L448.957 416.848C448.753 417.026 448.498 417.229 448.231 417.433C447.483 418.029 446.655 418.517 445.772 418.883C444.792 419.301 443.74 419.521 442.675 419.532C441.761 419.54 440.854 419.376 440.001 419.048C439.049 418.69 438.182 418.14 437.453 417.433C436.515 416.524 435.826 415.389 435.452 414.138C435.26 413.522 435.141 412.886 435.096 412.243C435.023 411.49 435.023 410.731 435.096 409.978C435.159 409.368 435.248 408.833 435.338 408.337C435.686 406.603 436.181 404.901 436.816 403.249C437.398 401.681 438.061 400.144 438.802 398.644C439.605 397.028 440.383 395.858 441.173 394.497C444.329 389.334 447.931 384.456 451.937 379.918C455.898 375.406 460.269 371.271 464.996 367.566L469.685 372.375C466.385 376.776 463.149 381.496 460.155 386.152C457.177 390.766 454.456 395.539 452.002 400.45C451.454 401.646 450.727 402.994 450.396 403.961C450.065 404.928 449.542 406.238 449.198 407.396C448.888 408.452 448.646 409.527 448.473 410.614C448.464 410.78 448.464 410.945 448.473 411.111C448.473 411.212 448.473 411.263 448.473 410.996C448.452 410.711 448.396 410.429 448.307 410.156C448.026 409.257 447.521 408.443 446.841 407.79C446.232 407.231 445.518 406.799 444.739 406.518C444.051 406.258 443.322 406.125 442.586 406.124C441.883 406.119 441.186 406.253 440.536 406.518C440.314 406.595 440.103 406.702 439.911 406.836L440.395 406.391L441.924 404.992L444.969 402.142C446.982 400.247 449.02 398.224 450.931 396.341L460.741 405.73" fill="#F4857D"/>
<path d="M503.369 416.224L504.044 415.716L503.369 416.224Z" fill="#C3C4C4"/>
<path d="M503.357 416.224C502.544 415.433 501.79 414.582 501.102 413.68C501.242 410.067 501.446 406.353 501.764 402.562C503.184 406.809 503.974 411.24 504.108 415.716H504.032L503.357 416.224Z" fill="#19457A"/>
<path d="M451.823 389.039C450.001 398.707 448.854 418.552 454.167 457.86H502.095C502.426 450.52 497.802 414.685 504.898 380.058C499.6 379.042 494.242 378.367 488.858 378.036C482.069 377.647 475.263 377.647 468.474 378.036C466.219 378.252 464.015 378.57 462.104 378.913C459.574 379.384 457.248 380.608 455.428 382.424C453.609 384.241 452.383 386.565 451.912 389.09" fill="#3273BA"/>
<path d="M502.095 457.861H454.167C452.223 444.223 450.973 430.497 450.421 416.733C450.421 418.12 450.523 419.545 450.6 421.02C452.838 418.526 454.811 415.806 456.486 412.904C462.767 408.554 471.098 401.519 471.098 394.739C471.1 393.797 470.936 392.863 470.614 391.978C468.232 385.618 466.882 378.99 462.066 378.99H461.633L462.066 378.901C464.028 378.557 466.232 378.239 468.436 378.023C470.64 377.807 473.85 377.73 477.048 377.73C481.099 377.73 485.38 377.858 488.807 378.023C494.191 378.354 499.549 379.03 504.847 380.046C503.354 387.461 502.307 394.958 501.713 402.498C501.394 406.315 501.191 410.004 501.05 413.617C500.923 417.217 500.872 420.702 500.872 424.048C500.872 439.708 502.069 452.098 502.069 456.97C502.076 457.033 502.076 457.097 502.069 457.161C502.069 457.415 502.069 457.644 502.069 457.848" fill="#0056A6"/>
<path d="M450.6 421.008C450.523 419.532 450.472 418.107 450.421 416.721C451.555 416.085 453.836 414.723 456.486 412.904C454.811 415.806 452.838 418.526 450.6 421.02" fill="#19457A"/>
<path d="M477.15 675.429L476.691 664.743L477.15 675.429Z" fill="#C3C4C4"/>
<path d="M477.15 675.416H468.194L467.735 664.743H476.692L477.15 675.416Z" fill="#E87466"/>
<path d="M539.105 671.969L538.226 670.048L539.105 671.969Z" fill="#C3C4C4"/>
<path d="M530.34 673.864L529.46 671.931L538.226 670.048L539.105 671.969L530.34 673.864Z" fill="#E87466"/>
<path d="M490.591 348.485C488.285 357.059 487.38 362.198 482.08 365.76C474.105 371.128 464.168 364.971 463.862 355.876C463.582 347.696 467.391 335.039 476.603 333.308C478.637 332.912 480.738 333.042 482.708 333.687C484.677 334.331 486.448 335.468 487.853 336.989C489.258 338.511 490.249 340.366 490.733 342.378C491.217 344.39 491.177 346.492 490.617 348.485H490.591Z" fill="#F4857D"/>
<path d="M470.474 348.815C470.054 347.658 468.066 338.791 469.926 336.489C471.786 334.186 492.999 335.853 496.145 338.931C501.343 344.02 497.738 348.612 492.043 354.489C487.749 358.916 487.584 363.915 485.431 364.666C481.609 365.938 475.774 364.742 474.589 360.71C473.405 356.677 470.474 348.841 470.474 348.841V348.815Z" fill="#0B2B34"/>
<path d="M493.572 328.856C486.068 325.676 472.016 329.2 464.423 327.368C464.326 330.188 465.254 332.949 467.036 335.14C468.818 337.331 471.333 338.804 474.118 339.287C480.418 340.478 486.817 341.066 493.228 341.043C501.56 340.699 499.942 331.566 493.572 328.856Z" fill="#0B2B34"/>
<path d="M494.744 339.198C497.476 339.468 500.229 338.942 502.668 337.685C504.083 341.068 496.375 341.997 494.744 339.198Z" fill="#0B2B34"/>
<path d="M474.564 349.21C474.394 351.416 473.498 353.505 472.016 355.151C470.067 357.3 468.029 355.965 467.685 353.344C467.366 350.991 468.016 346.984 470.398 345.839C472.781 344.694 474.692 346.564 474.539 349.21H474.564Z" fill="#F4857D"/>
<path d="M471.175 457.861C471.175 457.861 481.367 526.249 486.921 551.857C493.036 579.919 525.817 672.707 525.817 672.707L541.856 669.234C541.856 669.234 518.924 593.594 513.828 554.375C509.892 524.252 502.12 457.835 502.12 457.835H471.2" fill="#3273BA"/>
<path d="M521.982 667.377L524.976 673.165L543.016 669.272L541.5 663.853L521.982 667.377Z" fill="#0B2B34"/>
<path d="M486.693 550.839C486.693 550.559 486.578 550.292 486.527 550.012C486.591 550.279 486.642 550.546 486.693 550.813V550.839ZM486.259 548.715C485.902 546.967 485.533 545.097 485.151 543.105C485.533 545.097 485.902 546.967 486.259 548.715ZM484.909 541.832C484.005 537.087 483.036 531.732 482.068 526.096C483.036 531.732 484.005 537.087 484.909 541.832Z" fill="#A5A8A8"/>
<path d="M485.151 543.13C485.062 542.71 484.985 542.29 484.909 541.858C484.985 542.29 485.074 542.71 485.151 543.13Z" fill="#979A9A"/>
<path d="M486.565 550.012L486.297 548.74L486.565 550.012Z" fill="#979A9A"/>
<path d="M486.693 550.813C486.693 550.546 486.591 550.279 486.527 550.012L486.259 548.74C485.902 546.993 485.533 545.123 485.151 543.13C485.075 542.71 484.986 542.29 484.909 541.858C484.005 537.113 483.036 531.757 482.068 526.122C479.584 511.785 476.972 495.591 474.946 482.539C475.487 482.267 476.086 482.128 476.692 482.132C476.995 482.137 477.297 482.167 477.596 482.221C489.355 484.524 488.107 528.297 486.693 550.813Z" fill="#0A61AE"/>
<path d="M454.167 457.86C454.167 457.86 452.894 524.761 453.913 551.996C454.919 580.377 464.856 673.305 464.856 673.305H480.03C480.03 673.305 480.59 582.044 481.304 554.159C482.043 523.781 485.712 457.81 485.712 457.81L454.167 457.86Z" fill="#3273BA"/>
<path d="M461.938 667.313L462.792 673.61H481.252L481.762 668L461.938 667.313Z" fill="#0B2B34"/>
<path d="M470.615 391.965C474.908 403.529 449.67 417.153 449.67 417.153L438.739 403.16C438.739 403.16 446.027 388.671 454.97 382.145C466.028 374.067 467.34 383.201 470.615 392.004" fill="#3273BA"/>
<path d="M449.619 417.153L449.186 416.593L438.688 403.122C438.688 403.122 445.976 388.632 454.919 382.107C457.938 379.906 460.219 378.977 462.015 378.977C466.831 378.977 468.181 385.567 470.563 391.965C470.885 392.85 471.049 393.785 471.047 394.726C471.047 401.506 462.716 408.541 456.435 412.892C453.785 414.723 451.504 416.085 450.37 416.708L449.619 417.128" fill="#0056A6"/>
<path d="M615.481 274.931C615.481 291.087 594.893 304.19 569.503 304.19C544.112 304.19 523.523 291.087 523.523 274.931C523.523 258.776 544.112 245.673 569.503 245.673C594.893 245.673 615.481 258.763 615.481 274.931Z" fill="#007CFF"/>
<path d="M552.953 269.919C552.478 269.921 552.004 269.972 551.539 270.072C550.653 270.25 549.812 270.603 549.063 271.11C548.315 271.616 547.676 272.267 547.182 273.023C546.684 273.776 546.34 274.62 546.169 275.507C545.998 276.393 546.005 277.304 546.188 278.188C546.372 279.073 546.728 279.913 547.238 280.659C547.747 281.406 548.399 282.045 549.157 282.539C549.91 283.039 550.755 283.385 551.643 283.555C552.531 283.725 553.444 283.717 554.329 283.531C555.215 283.352 556.056 282.999 556.804 282.492C557.553 281.986 558.192 281.335 558.686 280.58C559.187 279.828 559.533 278.984 559.703 278.097C559.874 277.21 559.866 276.299 559.68 275.415C559.501 274.528 559.148 273.686 558.64 272.937C558.133 272.188 557.482 271.547 556.724 271.052C555.59 270.306 554.26 269.913 552.902 269.919H552.953ZM552.953 284.956C551.366 284.954 549.815 284.485 548.494 283.607C547.596 283.022 546.823 282.264 546.221 281.377C545.62 280.491 545.201 279.493 544.991 278.442C544.769 277.396 544.759 276.316 544.96 275.265C545.162 274.215 545.57 273.215 546.163 272.324C546.748 271.428 547.505 270.658 548.391 270.057C549.277 269.457 550.273 269.038 551.323 268.825C552.373 268.604 553.457 268.593 554.511 268.794C555.565 268.995 556.569 269.404 557.463 269.996C559.26 271.162 560.52 272.992 560.967 275.084C561.185 276.133 561.194 277.214 560.993 278.267C560.792 279.319 560.385 280.321 559.795 281.216C559.209 282.113 558.45 282.885 557.562 283.485C556.673 284.086 555.674 284.504 554.622 284.714C554.074 284.83 553.514 284.89 552.953 284.892V284.956ZM550.405 265.505C547.528 266.193 545.018 267.941 543.378 270.4C541.739 272.858 541.09 275.845 541.564 278.761C541.816 280.298 542.38 281.768 543.222 283.081C544.063 284.393 545.163 285.52 546.456 286.393C547.745 287.276 549.2 287.888 550.733 288.192C552.266 288.496 553.845 288.486 555.374 288.161C557.769 287.671 559.947 286.435 561.595 284.632C563.243 282.829 564.276 280.551 564.547 278.124V277.667L574.853 275.542C575.145 275.483 575.447 275.488 575.737 275.556C576.027 275.624 576.3 275.754 576.535 275.936C576.771 276.121 576.963 276.354 577.1 276.619C577.236 276.885 577.313 277.177 577.325 277.476L577.389 278.926C577.392 279.099 577.454 279.265 577.565 279.397C577.677 279.529 577.83 279.619 578 279.651C578.555 279.739 579.083 279.947 579.547 280.261C580.012 280.576 580.401 280.988 580.688 281.47C580.75 281.609 580.856 281.724 580.989 281.797C581.123 281.871 581.277 281.899 581.427 281.877L582.026 281.75C582.174 281.711 582.304 281.626 582.398 281.507C582.493 281.387 582.545 281.24 582.548 281.088C582.643 280.307 582.982 279.575 583.517 278.997C584.053 278.42 584.757 278.025 585.53 277.87C586.298 277.709 587.097 277.795 587.813 278.115C588.529 278.434 589.126 278.972 589.517 279.651C589.582 279.791 589.69 279.906 589.825 279.979C589.961 280.053 590.116 280.08 590.269 280.058L590.88 279.931C591.025 279.889 591.154 279.802 591.248 279.684C591.342 279.565 591.396 279.42 591.403 279.269C591.464 278.712 591.652 278.176 591.953 277.702C592.253 277.228 592.657 276.829 593.135 276.534C593.28 276.44 593.387 276.298 593.436 276.132C593.485 275.966 593.473 275.789 593.403 275.631L592.881 274.27C592.776 273.992 592.731 273.695 592.751 273.399C592.771 273.103 592.854 272.814 592.995 272.553C593.138 272.288 593.338 272.059 593.58 271.881C593.822 271.702 594.102 271.58 594.397 271.522L595.174 271.357C595.594 271.269 595.992 271.098 596.345 270.853C596.697 270.608 596.996 270.295 597.225 269.932C597.462 269.558 597.617 269.138 597.681 268.699C597.744 268.261 597.715 267.814 597.594 267.388C597.346 266.587 596.803 265.91 596.075 265.493C595.347 265.075 594.488 264.948 593.67 265.136L563.26 271.395L563.043 271.001C561.812 268.841 559.917 267.136 557.637 266.139C555.358 265.142 552.817 264.906 550.393 265.467L550.405 265.505ZM552.953 289.675C550.378 289.674 547.865 288.893 545.743 287.436C544.311 286.472 543.09 285.227 542.155 283.777C541.22 282.327 540.59 280.703 540.303 279.002C539.782 275.764 540.504 272.45 542.325 269.721C544.146 266.992 546.932 265.05 550.125 264.284C552.738 263.682 555.474 263.913 557.949 264.945C560.424 265.976 562.513 267.756 563.923 270.034L593.428 263.953C594.566 263.702 595.757 263.891 596.762 264.481C597.766 265.071 598.51 266.018 598.843 267.133C598.996 267.715 599.03 268.322 598.94 268.917C598.85 269.512 598.64 270.083 598.321 270.594C598.008 271.11 597.589 271.556 597.093 271.902C596.598 272.248 596.035 272.487 595.441 272.604L594.664 272.769C594.55 272.788 594.442 272.834 594.35 272.903C594.257 272.971 594.181 273.06 594.129 273.163C594.079 273.264 594.052 273.375 594.052 273.488C594.052 273.6 594.079 273.711 594.129 273.812L594.651 275.173C594.82 275.609 594.834 276.09 594.69 276.534C594.547 276.979 594.254 277.361 593.862 277.616C593.552 277.814 593.29 278.077 593.092 278.387C592.894 278.697 592.765 279.045 592.715 279.409C592.684 279.829 592.519 280.227 592.243 280.546C591.968 280.864 591.598 281.086 591.186 281.178L590.575 281.305C590.161 281.383 589.734 281.326 589.356 281.142C588.977 280.959 588.668 280.659 588.473 280.287C588.211 279.841 587.816 279.488 587.343 279.278C586.869 279.068 586.342 279.011 585.835 279.117C585.326 279.22 584.862 279.481 584.51 279.862C584.158 280.244 583.935 280.726 583.873 281.241C583.837 281.66 583.668 282.055 583.391 282.371C583.113 282.687 582.742 282.906 582.332 282.997L581.733 283.124C581.32 283.2 580.893 283.142 580.515 282.959C580.137 282.776 579.827 282.477 579.631 282.106C579.44 281.791 579.183 281.52 578.877 281.314C578.572 281.107 578.225 280.97 577.86 280.91C577.396 280.836 576.972 280.602 576.663 280.249C576.353 279.896 576.178 279.446 576.166 278.977L576.102 277.527C576.1 277.413 576.073 277.302 576.023 277.2C575.972 277.099 575.899 277.011 575.809 276.941C575.717 276.873 575.612 276.824 575.5 276.798C575.388 276.772 575.272 276.769 575.159 276.789L565.757 278.735C565.367 281.336 564.187 283.754 562.375 285.663C560.564 287.572 558.209 288.879 555.629 289.408C554.761 289.585 553.878 289.675 552.992 289.675H552.953Z" fill="white"/>
<path d="M532.073 321.338C523.728 321.338 516.962 317.025 516.962 311.721C516.962 306.416 523.728 302.104 532.073 302.104C540.417 302.104 547.182 306.403 547.182 311.721C547.182 317.038 540.417 321.338 532.073 321.338Z" fill="#76A6D9"/>
<path d="M508.032 325.281C507.272 325.286 506.515 325.196 505.777 325.014L508.58 317.382C511.752 317.547 514.237 319.252 514.237 321.313C514.237 323.373 511.459 325.256 508.032 325.256" fill="#B3CFEC"/>
<path d="M505.777 325.04C503.471 324.467 501.841 323.03 501.841 321.363C501.841 319.188 504.618 317.42 508.032 317.42H508.579L505.777 325.053" fill="#AAC8E9"/>
</g>
<defs>
<linearGradient id="paint0_linear_31:1105" x1="473.5" y1="512" x2="-1.4178e-05" y2="512" gradientUnits="userSpaceOnUse">
<stop offset="0.609728" stop-color="#EFF6FF"/>
<stop offset="1" stop-color="#EFF6FF" stop-opacity="0"/>
</linearGradient>
<linearGradient id="paint1_linear_31:1105" x1="897.708" y1="949.721" x2="459.978" y2="478.273" gradientUnits="userSpaceOnUse">
<stop stop-color="#DAE3FE" stop-opacity="0.01"/>
<stop offset="1" stop-color="#E9EFFD" stop-opacity="0.58"/>
</linearGradient>
<linearGradient id="paint2_linear_31:1105" x1="865.639" y1="516.217" x2="526.466" y2="151.276" gradientUnits="userSpaceOnUse">
<stop stop-color="#DAE3FE" stop-opacity="0.01"/>
<stop offset="1" stop-color="#E9EFFD" stop-opacity="0.58"/>
</linearGradient>
<clipPath id="clip0_31:1105">
<rect width="720" height="1024" fill="white"/>
</clipPath>
</defs>
</svg>
